GeoramaCondensed-Thin.ufo
<glyph name="exclam" format="2">
  <advance width="136.2"/>
  <unicode hex="0021"/>
  <outline>
    <contour>
      <point x="58.1" y="264.0" type="line"/>
      <point x="78.1" y="264.0" type="line"/>
      <point x="78.1" y="740.0" type="line"/>
      <point x="58.1" y="740.0" type="line"/>
    </contour>
    <contour>
      <point x="53.8" y="17.0" type="curve" smooth="yes"/>
      <point x="53.8" y="1.0"/>
      <point x="54.9" y="0.0"/>
      <point x="68.1" y="0.0" type="curve" smooth="yes"/>
      <point x="82.3" y="0.0"/>
      <point x="82.4" y="1.0"/>
      <point x="82.4" y="17.0" type="curve" smooth="yes"/>
      <point x="82.4" y="33.0"/>
      <point x="82.3" y="34.0"/>
      <point x="68.1" y="34.0" type="curve" smooth="yes"/>
      <point x="53.9" y="34.0"/>
      <point x="53.8" y="33.0"/>
    </contour>
  </outline>
</glyph>
<glyph name="numbersign" format="2">
  <advance width="328.4"/>
  <unicode hex="0023"/>
  <outline>
    <contour>
      <point x="46.7" y="482.2" type="line"/>
      <point x="112.0" y="482.2" type="line"/>
      <point x="75.8" y="217.0" type="line"/>
      <point x="17.9" y="217.0" type="line"/>
      <point x="17.9" y="197.2" type="line"/>
      <point x="73.4" y="197.2" type="line"/>
      <point x="46.6" y="0.0" type="line"/>
      <point x="66.6" y="0.0" type="line"/>
      <point x="93.4" y="197.2" type="line"/>
      <point x="194.4" y="197.2" type="line"/>
      <point x="167.6" y="0.0" type="line"/>
      <point x="187.6" y="0.0" type="line"/>
      <point x="214.4" y="197.2" type="line"/>
      <point x="281.7" y="197.2" type="line"/>
      <point x="281.7" y="217.0" type="line"/>
      <point x="216.8" y="217.0" type="line"/>
      <point x="253.0" y="482.2" type="line"/>
      <point x="310.5" y="482.2" type="line"/>
      <point x="310.5" y="502.0" type="line"/>
      <point x="256.2" y="502.0" type="line"/>
      <point x="283.6" y="700.0" type="line"/>
      <point x="263.6" y="700.0" type="line"/>
      <point x="236.2" y="502.0" type="line"/>
      <point x="135.2" y="502.0" type="line"/>
      <point x="162.6" y="700.0" type="line"/>
      <point x="142.6" y="700.0" type="line"/>
      <point x="115.2" y="502.0" type="line"/>
      <point x="46.7" y="502.0" type="line"/>
    </contour>
    <contour>
      <point x="132.0" y="482.2" type="line"/>
      <point x="233.0" y="482.2" type="line"/>
      <point x="196.8" y="217.0" type="line"/>
      <point x="95.8" y="217.0" type="line"/>
    </contour>
  </outline>
</glyph>
<glyph name="dollar" format="2">
  <advance width="328.4"/>
  <unicode hex="0024"/>
  <outline>
    <contour>
      <point x="146.5" y="-10.0" type="curve" smooth="yes"/>
      <point x="229.4" y="-10.0"/>
      <point x="278.1" y="44.3"/>
      <point x="278.1" y="129.5" type="curve" smooth="yes"/>
      <point x="278.1" y="224.1"/>
      <point x="237.4" y="289.7"/>
      <point x="177.7" y="354.5" type="curve" smooth="yes"/>
      <point x="120.5" y="417.4"/>
      <point x="80.0" y="483.1"/>
      <point x="80.0" y="571.9" type="curve" smooth="yes"/>
      <point x="80.0" y="645.4"/>
      <point x="116.3" y="691.8"/>
      <point x="176.3" y="691.8" type="curve" smooth="yes"/>
      <point x="203.3" y="691.8"/>
      <point x="228.9" y="685.2"/>
      <point x="249.8" y="676.1" type="curve"/>
      <point x="257.6" y="692.5" type="line"/>
      <point x="234.3" y="703.5"/>
      <point x="203.0" y="710.0"/>
      <point x="175.3" y="710.0" type="curve" smooth="yes"/>
      <point x="103.4" y="709.8"/>
      <point x="59.9" y="656.6"/>
      <point x="59.9" y="571.9" type="curve" smooth="yes"/>
      <point x="59.9" y="477.1"/>
      <point x="102.4" y="408.3"/>
      <point x="162.2" y="342.6" type="curve" smooth="yes"/>
      <point x="219.3" y="278.8"/>
      <point x="258.1" y="214.4"/>
      <point x="258.1" y="126.8" type="curve" smooth="yes"/>
      <point x="258.1" y="55.6"/>
      <point x="218.10000000000002" y="9.1"/>
      <point x="150.8" y="9.1" type="curve" smooth="yes"/>
      <point x="118.6" y="9.1"/>
      <point x="83.8" y="15.7"/>
      <point x="57.2" y="27.6" type="curve"/>
      <point x="50.3" y="9.4" type="line"/>
      <point x="77.1" y="-2.5999999999999996"/>
      <point x="114.7" y="-10.0"/>
    </contour>
    <contour>
      <point x="161.0" y="-105.0" type="line"/>
      <point x="181.0" y="-105.0" type="line"/>
      <point x="181.0" y="0.3999999999999999" type="line"/>
      <point x="161.0" y="-4.1" type="line"/>
    </contour>
    <contour>
      <point x="161.0" y="703.2" type="line"/>
      <point x="181.0" y="705.0" type="line"/>
      <point x="181.0" y="805.0" type="line"/>
      <point x="161.0" y="805.0" type="line"/>
    </contour>
  </outline>
</glyph>
<glyph name="ampersand" format="2">
  <advance width="406.3"/>
  <unicode hex="0026"/>
  <outline>
    <contour>
      <point x="382.2" y="-15.3" type="line"/>
      <point x="399.4" y="-3.5999999999999996" type="line"/>
      <point x="131.4" y="402.3" type="line" smooth="yes"/>
      <point x="95.7" y="460.1"/>
      <point x="83.8" y="509.1"/>
      <point x="83.8" y="557.8" type="curve" smooth="yes"/>
      <point x="83.8" y="645.7"/>
      <point x="117.9" y="690.0"/>
      <point x="179.2" y="690.0" type="curve" smooth="yes"/>
      <point x="238.6" y="690.0"/>
      <point x="267.5" y="643.6"/>
      <point x="267.5" y="565.9" type="curve" smooth="yes"/>
      <point x="267.5" y="509.1"/>
      <point x="256.1" y="463.5"/>
      <point x="221.4" y="431.3" type="curve"/>
      <point x="236.2" y="420.4" type="line"/>
      <point x="274.4" y="458.4"/>
      <point x="287.5" y="508.2"/>
      <point x="287.5" y="567.9" type="curve" smooth="yes"/>
      <point x="287.5" y="657.7"/>
      <point x="250.7" y="710.0"/>
      <point x="179.2" y="710.0" type="curve" smooth="yes"/>
      <point x="104.0" y="710.0"/>
      <point x="63.8" y="659.6"/>
      <point x="63.8" y="557.8" type="curve" smooth="yes"/>
      <point x="63.8" y="506.7"/>
      <point x="79.4" y="449.0"/>
      <point x="117.6" y="385.8" type="curve" smooth="yes"/>
    </contour>
    <contour>
      <point x="178.3" y="-10.0" type="curve" smooth="yes"/>
      <point x="243.1" y="-10.0"/>
      <point x="289.3" y="24.9"/>
      <point x="318.2" y="91.2" type="curve"/>
      <point x="307.5" y="110.1" type="line"/>
      <point x="277.9" y="44.5"/>
      <point x="243.1" y="10.0"/>
      <point x="178.3" y="10.0" type="curve" smooth="yes"/>
      <point x="96.5" y="10.0"/>
      <point x="48.5" y="80.6"/>
      <point x="48.5" y="176.4" type="curve" smooth="yes"/>
      <point x="48.5" y="269.3"/>
      <point x="73.7" y="323.4"/>
      <point x="133.4" y="383.4" type="curve"/>
      <point x="125.1" y="398.0" type="line"/>
      <point x="58.1" y="341.5"/>
      <point x="28.5" y="276.3"/>
      <point x="28.5" y="176.4" type="curve" smooth="yes"/>
      <point x="28.5" y="67.6"/>
      <point x="82.6" y="-10.0"/>
    </contour>
    <contour>
      <point x="324.6" y="100.9" type="line"/>
      <point x="347.8" y="158.8"/>
      <point x="360.8" y="235.1"/>
      <point x="360.8" y="317.2" type="curve" smooth="yes"/>
      <point x="360.8" y="341.0"/>
      <point x="359.5" y="358.2"/>
      <point x="356.0" y="376.6" type="curve"/>
      <point x="337.0" y="373.2" type="line"/>
      <point x="340.5" y="354.8"/>
      <point x="341.7" y="338.7"/>
      <point x="341.7" y="317.2" type="curve" smooth="yes"/>
      <point x="341.7" y="239.1"/>
      <point x="331.4" y="170.2"/>
      <point x="313.0" y="122.6" type="curve"/>
    </contour>
  </outline>
</glyph>
<glyph name="quotesingle" format="2">
  <advance width="119.6"/>
  <unicode hex="0027"/>
  <outline>
    <contour>
      <point x="53.8" y="427.0" type="line"/>
      <point x="65.8" y="427.0" type="line"/>
      <point x="70.8" y="700.0" type="line"/>
      <point x="48.8" y="700.0" type="line"/>
    </contour>
  </outline>
</glyph>
<glyph name="parenleft" format="2">
  <advance width="200.5"/>
  <unicode hex="0028"/>
  <outline>
    <contour>
      <point x="60.9" y="265.0" type="curve" smooth="yes"/>
      <point x="60.9" y="-7.6"/>
      <point x="111.4" y="-193.5"/>
      <point x="192.6" y="-220.9" type="curve"/>
      <point x="192.6" y="-196.4" type="line"/>
      <point x="124.2" y="-162.3"/>
      <point x="82.7" y="5.0"/>
      <point x="82.7" y="265.0" type="curve" smooth="yes"/>
      <point x="82.7" y="525.0"/>
      <point x="124.2" y="692.3"/>
      <point x="192.6" y="726.4" type="curve"/>
      <point x="192.6" y="750.9" type="line"/>
      <point x="111.4" y="723.5"/>
      <point x="60.9" y="537.6"/>
    </contour>
  </outline>
</glyph>
<glyph name="parenright" format="2">
  <advance width="200.5"/>
  <unicode hex="0029"/>
  <outline>
    <contour>
      <point x="7.9" y="-196.4" type="curve"/>
      <point x="7.9" y="-220.9" type="line"/>
      <point x="89.1" y="-193.5"/>
      <point x="139.6" y="-7.6"/>
      <point x="139.6" y="265.0" type="curve" smooth="yes"/>
      <point x="139.6" y="537.6"/>
      <point x="89.1" y="723.5"/>
      <point x="7.9" y="750.9" type="curve"/>
      <point x="7.9" y="726.4" type="line"/>
      <point x="76.3" y="692.3"/>
      <point x="117.8" y="525.0"/>
      <point x="117.8" y="265.0" type="curve" smooth="yes"/>
      <point x="117.8" y="5.0"/>
      <point x="76.3" y="-162.3"/>
    </contour>
  </outline>
</glyph>
<glyph name="asterisk" format="2">
  <advance width="210.4"/>
  <unicode hex="002A"/>
  <outline>
    <contour>
      <point x="49.0" y="389.3" type="line"/>
      <point x="105.3" y="485.2" type="line"/>
      <point x="161.2" y="389.2" type="line"/>
      <point x="176.0" y="399.1" type="line"/>
      <point x="118.4" y="499.0" type="line"/>
      <point x="209.1" y="544.1" type="line"/>
      <point x="202.3" y="560.0" type="line"/>
      <point x="114.4" y="516.9" type="line"/>
      <point x="114.4" y="639.1" type="line"/>
      <point x="96.2" y="639.1" type="line"/>
      <point x="96.2" y="516.9" type="line"/>
      <point x="8.1" y="560.0" type="line"/>
      <point x="1.3" y="544.1" type="line"/>
      <point x="92.2" y="499.0" type="line"/>
      <point x="34.1" y="399.3" type="line"/>
    </contour>
  </outline>
</glyph>
<glyph name="plus" format="2">
  <advance width="389.0"/>
  <unicode hex="002B"/>
  <outline>
    <contour>
      <point x="184.5" y="72.0" type="line"/>
      <point x="204.5" y="72.0" type="line"/>
      <point x="204.5" y="279.0" type="line"/>
      <point x="347.6" y="279.0" type="line"/>
      <point x="347.6" y="299.0" type="line"/>
      <point x="204.5" y="299.0" type="line"/>
      <point x="204.5" y="506.0" type="line"/>
      <point x="184.5" y="506.0" type="line"/>
      <point x="184.5" y="299.0" type="line"/>
      <point x="41.4" y="299.0" type="line"/>
      <point x="41.4" y="279.0" type="line"/>
      <point x="184.5" y="279.0" type="line"/>
    </contour>
  </outline>
</glyph>
<glyph name="comma" format="2">
  <advance width="103.1"/>
  <unicode hex="002C"/>
  <outline>
    <contour>
      <point x="39.4" y="33.4" type="line"/>
      <point x="46.7" y="13.4"/>
      <point x="50.9" y="-9.5"/>
      <point x="50.9" y="-27.1" type="curve" smooth="yes"/>
      <point x="50.9" y="-88.7"/>
      <point x="32.2" y="-156.4"/>
      <point x="-13.399999999999999" y="-187.5" type="curve"/>
      <point x="-2.7" y="-203.6" type="line"/>
      <point x="52.9" y="-166.1"/>
      <point x="70.9" y="-83.8"/>
      <point x="70.9" y="-26.9" type="curve" smooth="yes"/>
      <point x="70.9" y="-5.3"/>
      <point x="67.6" y="17.9"/>
      <point x="60.2" y="40.6" type="curve"/>
    </contour>
  </outline>
</glyph>
<glyph name="hyphen" format="2">
  <advance width="206.6"/>
  <unicode hex="002D"/>
  <outline>
    <contour>
      <point x="18.9" y="255.0" type="line"/>
      <point x="187.7" y="255.0" type="line"/>
      <point x="187.7" y="275.0" type="line"/>
      <point x="18.9" y="275.0" type="line"/>
    </contour>
  </outline>
</glyph>
<glyph name="period" format="2">
  <advance width="103.1"/>
  <unicode hex="002E"/>
  <outline>
    <contour>
      <point x="37.3" y="17.0" type="curve" smooth="yes"/>
      <point x="37.3" y="1.0"/>
      <point x="38.4" y="0.0"/>
      <point x="51.6" y="0.0" type="curve" smooth="yes"/>
      <point x="65.8" y="0.0"/>
      <point x="65.9" y="1.0"/>
      <point x="65.9" y="17.0" type="curve" smooth="yes"/>
      <point x="65.9" y="33.0"/>
      <point x="65.8" y="34.0"/>
      <point x="51.6" y="34.0" type="curve" smooth="yes"/>
      <point x="37.4" y="34.0"/>
      <point x="37.3" y="33.0"/>
    </contour>
  </outline>
</glyph>
<glyph name="slash" format="2">
  <advance width="215.2"/>
  <unicode hex="002F"/>
  <outline>
    <contour>
      <point x="2.8" y="-210.0" type="line"/>
      <point x="22.1" y="-210.0" type="line"/>
      <point x="212.4" y="740.0" type="line"/>
      <point x="193.1" y="740.0" type="line"/>
    </contour>
  </outline>
</glyph>
<glyph name="zero" format="2">
  <advance width="328.4"/>
  <unicode hex="0030"/>
  <outline>
    <contour>
      <point x="18.8" y="350.0" type="curve" smooth="yes"/>
      <point x="18.8" y="69.9"/>
      <point x="70.5" y="-10.0"/>
      <point x="164.2" y="-10.0" type="curve" smooth="yes"/>
      <point x="257.9" y="-10.0"/>
      <point x="309.6" y="69.9"/>
      <point x="309.6" y="350.0" type="curve" smooth="yes"/>
      <point x="309.6" y="631.0"/>
      <point x="257.9" y="710.0"/>
      <point x="164.2" y="710.0" type="curve" smooth="yes"/>
      <point x="70.5" y="710.0"/>
      <point x="18.8" y="631.0"/>
    </contour>
    <contour>
      <point x="38.8" y="350.0" type="curve" smooth="yes"/>
      <point x="38.8" y="615.0"/>
      <point x="84.1" y="690.0"/>
      <point x="164.2" y="690.0" type="curve" smooth="yes"/>
      <point x="244.3" y="690.0"/>
      <point x="289.6" y="615.0"/>
      <point x="289.6" y="350.0" type="curve" smooth="yes"/>
      <point x="289.6" y="85.9"/>
      <point x="244.3" y="10.0"/>
      <point x="164.2" y="10.0" type="curve" smooth="yes"/>
      <point x="84.1" y="10.0"/>
      <point x="38.8" y="85.9"/>
    </contour>
  </outline>
</glyph>
<glyph name="one" format="2">
  <advance width="328.4"/>
  <unicode hex="0031"/>
  <outline>
    <contour>
      <point x="23.5" y="0.0" type="line"/>
      <point x="317.8" y="0.0" type="line"/>
      <point x="317.8" y="20.0" type="line"/>
      <point x="189.8" y="20.0" type="line"/>
      <point x="189.8" y="701.0" type="line"/>
      <point x="177.8" y="701.0" type="line"/>
      <point x="10.3" y="571.9" type="line"/>
      <point x="21.9" y="557.5" type="line"/>
      <point x="169.8" y="667.0" type="line"/>
      <point x="169.8" y="20.0" type="line"/>
      <point x="23.5" y="20.0" type="line"/>
    </contour>
  </outline>
</glyph>
<glyph name="two" format="2">
  <advance width="328.5"/>
  <unicode hex="0032"/>
  <outline>
    <contour>
      <point x="32.25" y="17.0" type="curve"/>
      <point x="37.25" y="0.0" type="line"/>
      <point x="305.25" y="0.0" type="line"/>
      <point x="305.25" y="20.0" type="line"/>
      <point x="56.5" y="20.0" type="line"/>
      <point x="214.25" y="296.0"/>
      <point x="262.5" y="425.0"/>
      <point x="262.5" y="532.5" type="curve" smooth="yes"/>
      <point x="262.5" y="660.0"/>
      <point x="217.5" y="710.0"/>
      <point x="144.75" y="710.0" type="curve" smooth="yes"/>
      <point x="102.5" y="710.0"/>
      <point x="65.75" y="695.75"/>
      <point x="30.75" y="655.75" type="curve"/>
      <point x="43.25" y="643.25" type="line"/>
      <point x="74.0" y="677.75"/>
      <point x="105.75" y="691.0"/>
      <point x="144.75" y="691.0" type="curve" smooth="yes"/>
      <point x="204.5" y="691.0"/>
      <point x="243.5" y="650.5"/>
      <point x="243.5" y="536.0" type="curve" smooth="yes"/>
      <point x="243.5" y="431.75"/>
      <point x="199.0" y="300.25"/>
    </contour>
  </outline>
</glyph>
<glyph name="three" format="2">
  <advance width="328.5"/>
  <unicode hex="0033"/>
  <outline>
    <contour>
      <point x="8.5" y="38.5" type="line"/>
      <point x="40.25" y="5.75"/>
      <point x="79.0" y="-10.0"/>
      <point x="131.75" y="-10.0" type="curve" smooth="yes"/>
      <point x="229.75" y="-10.0"/>
      <point x="287.0" y="67.5"/>
      <point x="287.0" y="199.25" type="curve" smooth="yes"/>
      <point x="287.0" y="289.0"/>
      <point x="256.5" y="350.25"/>
      <point x="196.25" y="370.0" type="curve"/>
      <point x="242.0" y="392.0"/>
      <point x="266.75" y="452.5"/>
      <point x="266.75" y="533.5" type="curve" smooth="yes"/>
      <point x="266.75" y="641.25"/>
      <point x="225.25" y="710.0"/>
      <point x="133.75" y="710.0" type="curve" smooth="yes"/>
      <point x="93.5" y="710.0"/>
      <point x="54.5" y="697.5"/>
      <point x="27.0" y="676.0" type="curve"/>
      <point x="38.25" y="662.5" type="line"/>
      <point x="64.75" y="681.0"/>
      <point x="96.5" y="690.0"/>
      <point x="133.75" y="690.0" type="curve" smooth="yes"/>
      <point x="212.0" y="690.0"/>
      <point x="246.75" y="629.25"/>
      <point x="246.75" y="533.5" type="curve" smooth="yes"/>
      <point x="246.75" y="441.75"/>
      <point x="212.5" y="379.0"/>
      <point x="159.5" y="379.0" type="curve" smooth="yes"/>
      <point x="84.75" y="379.0" type="line"/>
      <point x="84.75" y="359.0" type="line"/>
      <point x="144.0" y="359.0" type="line" smooth="yes"/>
      <point x="225.5" y="359.0"/>
      <point x="267.0" y="305.5"/>
      <point x="267.0" y="199.25" type="curve" smooth="yes"/>
      <point x="267.0" y="80.5"/>
      <point x="216.75" y="10.0"/>
      <point x="132.5" y="10.0" type="curve" smooth="yes"/>
      <point x="84.0" y="10.0"/>
      <point x="52.75" y="23.0"/>
      <point x="22.75" y="51.0" type="curve"/>
    </contour>
  </outline>
</glyph>
<glyph name="four" format="2">
  <advance width="328.5"/>
  <unicode hex="0034"/>
  <outline>
    <contour>
      <point x="21.25" y="194.0" type="line"/>
      <point x="221.75" y="194.0" type="line"/>
      <point x="221.75" y="0.0" type="line"/>
      <point x="241.75" y="0.0" type="line"/>
      <point x="241.75" y="194.0" type="line"/>
      <point x="317.0" y="194.0" type="line"/>
      <point x="317.0" y="214.0" type="line"/>
      <point x="241.75" y="214.0" type="line"/>
      <point x="241.75" y="699.0" type="line"/>
      <point x="226.75" y="704.5" type="line"/>
      <point x="14.5" y="211.0" type="line"/>
    </contour>
    <contour>
      <point x="38.25" y="214.0" type="line"/>
      <point x="221.75" y="634.25" type="line"/>
      <point x="221.75" y="214.0" type="line"/>
    </contour>
  </outline>
</glyph>
<glyph name="five" format="2">
  <advance width="328.4"/>
  <unicode hex="0035"/>
  <outline>
    <contour>
      <point x="25.5" y="42.9" type="line"/>
      <point x="56.0" y="9.0"/>
      <point x="93.9" y="-9.9"/>
      <point x="145.6" y="-9.9" type="curve" smooth="yes"/>
      <point x="244.6" y="-9.9"/>
      <point x="300.3" y="65.1"/>
      <point x="300.3" y="195.0" type="curve" smooth="yes"/>
      <point x="300.3" y="316.6"/>
      <point x="254.4" y="382.4"/>
      <point x="163.7" y="382.4" type="curve" smooth="yes"/>
      <point x="71.2" y="382.4" type="line"/>
      <point x="88.2" y="680.0" type="line"/>
      <point x="275.9" y="680.0" type="line"/>
      <point x="275.9" y="700.0" type="line"/>
      <point x="69.5" y="700.0" type="line"/>
      <point x="51.0" y="373.4" type="line"/>
      <point x="61.0" y="362.4" type="line"/>
      <point x="161.3" y="362.4" type="line" smooth="yes"/>
      <point x="240.3" y="362.4"/>
      <point x="280.3" y="303.7"/>
      <point x="280.3" y="195.0" type="curve" smooth="yes"/>
      <point x="280.3" y="76.9"/>
      <point x="233.0" y="10.1"/>
      <point x="145.6" y="10.1" type="curve" smooth="yes"/>
      <point x="95.2" y="10.1"/>
      <point x="65.8" y="30.8"/>
      <point x="40.9" y="55.5" type="curve"/>
    </contour>
  </outline>
</glyph>
<glyph name="six" format="2">
  <advance width="328.4"/>
  <unicode hex="0036"/>
  <outline>
    <contour>
      <point x="171.4" y="-10.0" type="curve" smooth="yes"/>
      <point x="253.2" y="-10.0"/>
      <point x="306.5" y="73.4"/>
      <point x="306.5" y="203.4" type="curve" smooth="yes"/>
      <point x="306.5" y="328.5"/>
      <point x="257.3" y="400.4"/>
      <point x="175.7" y="400.4" type="curve" smooth="yes"/>
      <point x="112.5" y="400.4"/>
      <point x="51.9" y="351.7"/>
      <point x="34.5" y="285.1" type="curve"/>
      <point x="40.0" y="256.8" type="line"/>
      <point x="60.9" y="334.3"/>
      <point x="114.4" y="381.3"/>
      <point x="174.8" y="381.3" type="curve" smooth="yes"/>
      <point x="244.4" y="381.3"/>
      <point x="286.5" y="315.6"/>
      <point x="286.5" y="200.7" type="curve" smooth="yes"/>
      <point x="286.5" y="83.6"/>
      <point x="240.4" y="8.2"/>
      <point x="170.5" y="8.2" type="curve" smooth="yes"/>
      <point x="81.3" y="8.2"/>
      <point x="41.1" y="96.1"/>
      <point x="41.1" y="326.4" type="curve" smooth="yes"/>
      <point x="41.1" y="578.0"/>
      <point x="88.0" y="691.8"/>
      <point x="187.0" y="691.8" type="curve" smooth="yes"/>
      <point x="223.0" y="691.8"/>
      <point x="246.8" y="680.1"/>
      <point x="276.6" y="661.5" type="curve"/>
      <point x="288.7" y="676.1" type="line"/>
      <point x="257.0" y="698.4"/>
      <point x="227.8" y="710.0"/>
      <point x="188.8" y="710.0" type="curve" smooth="yes"/>
      <point x="75.0" y="710.0"/>
      <point x="21.1" y="608.2"/>
      <point x="21.1" y="329.3" type="curve" smooth="yes"/>
      <point x="21.1" y="77.7"/>
      <point x="64.6" y="-10.0"/>
    </contour>
  </outline>
</glyph>
<glyph name="seven" format="2">
  <advance width="328.4"/>
  <unicode hex="0037"/>
  <outline>
    <contour>
      <point x="124.3" y="0.0" type="curve"/>
      <point x="144.3" y="0.0" type="line"/>
      <point x="145.2" y="141.9"/>
      <point x="164.7" y="258.3"/>
      <point x="201.3" y="371.4" type="curve" smooth="yes"/>
      <point x="302.5" y="683.0" type="line"/>
      <point x="302.5" y="700.0" type="line"/>
      <point x="22.9" y="700.0" type="line"/>
      <point x="22.9" y="680.0" type="line"/>
      <point x="279.7" y="680.0" type="line"/>
      <point x="198.2" y="426.9" type="line" smooth="yes"/>
      <point x="143.5" y="255.4"/>
      <point x="124.3" y="139.7"/>
    </contour>
  </outline>
</glyph>
<glyph name="eight" format="2">
  <advance width="328.5"/>
  <unicode hex="0038"/>
  <outline>
    <contour>
      <point x="176.75" y="362.0" type="curve"/>
      <point x="191.5" y="352.5" type="line"/>
      <point x="269.25" y="403.25"/>
      <point x="296.5" y="465.75"/>
      <point x="296.5" y="546.25" type="curve" smooth="yes"/>
      <point x="296.5" y="652.0"/>
      <point x="249.75" y="710.0"/>
      <point x="166.0" y="710.0" type="curve" smooth="yes"/>
      <point x="82.5" y="710.0"/>
      <point x="33.0" y="650.75"/>
      <point x="33.0" y="547.0" type="curve" smooth="yes"/>
      <point x="33.0" y="320.75"/>
      <point x="292.0" y="399.0"/>
      <point x="292.0" y="165.25" type="curve" smooth="yes"/>
      <point x="292.0" y="65.5"/>
      <point x="245.75" y="10.0"/>
      <point x="164.25" y="10.0" type="curve" smooth="yes"/>
      <point x="82.0" y="10.0"/>
      <point x="37.0" y="68.75"/>
      <point x="37.0" y="174.25" type="curve" smooth="yes"/>
      <point x="37.0" y="266.0"/>
      <point x="71.0" y="333.5"/>
      <point x="146.0" y="376.75" type="curve"/>
      <point x="130.0" y="388.0" type="line"/>
      <point x="49.0" y="334.75"/>
      <point x="17.0" y="262.75"/>
      <point x="17.0" y="171.25" type="curve" smooth="yes"/>
      <point x="17.0" y="55.5"/>
      <point x="68.75" y="-10.0"/>
      <point x="163.5" y="-10.0" type="curve" smooth="yes"/>
      <point x="257.75" y="-10.0"/>
      <point x="312.0" y="53.5"/>
      <point x="312.0" y="164.75" type="curve" smooth="yes"/>
      <point x="312.0" y="411.25"/>
      <point x="53.0" y="336.25"/>
      <point x="53.0" y="550.5" type="curve" smooth="yes"/>
      <point x="53.0" y="639.5"/>
      <point x="95.25" y="691.0"/>
      <point x="166.0" y="691.0" type="curve" smooth="yes"/>
      <point x="237.75" y="691.0"/>
      <point x="276.5" y="640.75"/>
      <point x="276.5" y="545.25" type="curve" smooth="yes"/>
      <point x="276.5" y="468.0"/>
      <point x="253.5" y="411.0"/>
    </contour>
  </outline>
</glyph>
<glyph name="nine" format="2">
  <advance width="328.4"/>
  <unicode hex="0039"/>
  <outline>
    <contour>
      <point x="141.6" y="-10.0" type="curve" smooth="yes"/>
      <point x="255.4" y="-10.0"/>
      <point x="305.7" y="91.8"/>
      <point x="305.7" y="370.7" type="curve" smooth="yes"/>
      <point x="305.7" y="622.3"/>
      <point x="262.2" y="710.0"/>
      <point x="159.4" y="710.0" type="curve" smooth="yes"/>
      <point x="76.0" y="710.0"/>
      <point x="20.3" y="627.2"/>
      <point x="20.3" y="496.7" type="curve" smooth="yes"/>
      <point x="20.3" y="372.1"/>
      <point x="69.9" y="299.6"/>
      <point x="151.1" y="299.6" type="curve" smooth="yes"/>
      <point x="214.3" y="299.6"/>
      <point x="274.9" y="350.1"/>
      <point x="292.3" y="416.7" type="curve"/>
      <point x="292.2" y="454.0" type="line"/>
      <point x="268.6" y="364.8"/>
      <point x="212.4" y="318.7"/>
      <point x="152.0" y="318.7" type="curve" smooth="yes"/>
      <point x="83.8" y="318.7"/>
      <point x="40.3" y="385.0"/>
      <point x="40.3" y="499.4" type="curve" smooth="yes"/>
      <point x="40.3" y="617.0"/>
      <point x="88.8" y="691.8"/>
      <point x="160.3" y="691.8" type="curve" smooth="yes"/>
      <point x="245.5" y="691.8"/>
      <point x="285.7" y="603.9"/>
      <point x="285.7" y="373.6" type="curve" smooth="yes"/>
      <point x="285.7" y="122.0"/>
      <point x="242.4" y="8.2"/>
      <point x="143.4" y="8.2" type="curve" smooth="yes"/>
      <point x="107.4" y="8.2"/>
      <point x="80.0" y="19.9"/>
      <point x="50.2" y="38.5" type="curve"/>
      <point x="38.1" y="23.9" type="line"/>
      <point x="69.8" y="1.6"/>
      <point x="102.6" y="-10.0"/>
    </contour>
  </outline>
</glyph>
<glyph name="less" format="2">
  <advance width="389.0"/>
  <unicode hex="003C"/>
  <outline>
    <contour>
      <point x="346.7" y="87.0" type="line"/>
      <point x="346.7" y="110.8" type="line"/>
      <point x="62.5" y="289.9" type="line"/>
      <point x="346.7" y="470.1" type="line"/>
      <point x="346.7" y="492.0" type="line"/>
      <point x="42.3" y="299.9" type="line"/>
      <point x="42.3" y="279.9" type="line"/>
    </contour>
  </outline>
</glyph>
<glyph name="equal" format="2">
  <advance width="389.0"/>
  <unicode hex="003D"/>
  <outline>
    <contour>
      <point x="347.6" y="197.0" type="line"/>
      <point x="41.4" y="197.0" type="line"/>
      <point x="41.4" y="177.0" type="line"/>
      <point x="347.6" y="177.0" type="line"/>
    </contour>
    <contour>
      <point x="347.6" y="404.0" type="line"/>
      <point x="41.4" y="404.0" type="line"/>
      <point x="41.4" y="384.0" type="line"/>
      <point x="347.6" y="384.0" type="line"/>
    </contour>
  </outline>
</glyph>
<glyph name="greater" format="2">
  <advance width="389.0"/>
  <unicode hex="003E"/>
  <outline>
    <contour>
      <point x="346.7" y="279.0" type="line"/>
      <point x="346.7" y="299.0" type="line"/>
      <point x="42.3" y="492.0" type="line"/>
      <point x="42.3" y="468.2" type="line"/>
      <point x="326.5" y="289.0" type="line"/>
      <point x="42.3" y="109.0" type="line"/>
      <point x="42.3" y="87.0" type="line"/>
    </contour>
  </outline>
</glyph>
<glyph name="question" format="2">
  <advance width="274.4"/>
  <unicode hex="003F"/>
  <outline>
    <contour>
      <point x="113.5" y="263.7" type="line"/>
      <point x="133.5" y="263.7" type="line"/>
      <point x="133.5" y="340.5" type="line"/>
      <point x="215.1" y="417.6"/>
      <point x="256.9" y="462.2"/>
      <point x="256.9" y="574.7" type="curve" smooth="yes"/>
      <point x="256.9" y="697.0"/>
      <point x="193.7" y="750.0"/>
      <point x="127.8" y="750.0" type="curve" smooth="yes"/>
      <point x="84.2" y="750.0"/>
      <point x="41.2" y="728.7"/>
      <point x="8.4" y="694.3" type="curve"/>
      <point x="20.2" y="680.8" type="line"/>
      <point x="55.5" y="715.9"/>
      <point x="93.6" y="730.9"/>
      <point x="127.8" y="730.9" type="curve" smooth="yes"/>
      <point x="186.4" y="730.9"/>
      <point x="236.0" y="673.8"/>
      <point x="236.0" y="576.5" type="curve" smooth="yes"/>
      <point x="236.0" y="484.6"/>
      <point x="206.2" y="427.7"/>
      <point x="113.5" y="350.2" type="curve"/>
    </contour>
    <contour>
      <point x="109.0" y="17.0" type="curve" smooth="yes"/>
      <point x="109.0" y="1.0"/>
      <point x="111.9" y="0.0"/>
      <point x="124.2" y="0.0" type="curve" smooth="yes"/>
      <point x="137.5" y="0.0"/>
      <point x="138.5" y="1.0"/>
      <point x="138.5" y="17.0" type="curve" smooth="yes"/>
      <point x="138.5" y="33.0"/>
      <point x="137.5" y="34.0"/>
      <point x="124.2" y="34.0" type="curve" smooth="yes"/>
      <point x="110.0" y="34.0"/>
      <point x="109.0" y="33.0"/>
    </contour>
  </outline>
</glyph>
<glyph name="at" format="2">
  <advance width="451.9"/>
  <unicode hex="0040"/>
  <outline>
    <contour>
      <point x="236.3" y="-123.0" type="curve" smooth="yes"/>
      <point x="299.2" y="-123.0"/>
      <point x="350.9" y="-90.1"/>
      <point x="373.6" y="-56.8" type="curve"/>
      <point x="360.3" y="-46.9" type="line"/>
      <point x="335.2" y="-79.2"/>
      <point x="292.1" y="-104.8"/>
      <point x="236.3" y="-104.8" type="curve" smooth="yes"/>
      <point x="104.9" y="-104.8"/>
      <point x="45.7" y="-13.6"/>
      <point x="45.7" y="268.4" type="curve" smooth="yes"/>
      <point x="45.7" y="513.0"/>
      <point x="83.6" y="692.7"/>
      <point x="236.4" y="692.7" type="curve" smooth="yes"/>
      <point x="377.8" y="692.7"/>
      <point x="406.6" y="583.0"/>
      <point x="406.6" y="352.5" type="curve" smooth="yes"/>
      <point x="406.6" y="207.6"/>
      <point x="397.9" y="77.5"/>
      <point x="350.7" y="77.5" type="curve" smooth="yes"/>
      <point x="326.7" y="77.5"/>
      <point x="300.4" y="99.1"/>
      <point x="307.3" y="247.8" type="curve" smooth="yes"/>
      <point x="320.3" y="516.9" type="line"/>
      <point x="290.0" y="528.5"/>
      <point x="264.5" y="535.7"/>
      <point x="243.4" y="535.7" type="curve" smooth="yes"/>
      <point x="152.9" y="535.7"/>
      <point x="128.3" y="406.7"/>
      <point x="128.3" y="269.8" type="curve" smooth="yes"/>
      <point x="128.3" y="110.5"/>
      <point x="155.4" y="60.6"/>
      <point x="205.4" y="60.6" type="curve" smooth="yes"/>
      <point x="264.3" y="60.6"/>
      <point x="279.4" y="121.5"/>
      <point x="291.1" y="209.7" type="curve"/>
      <point x="289.9" y="85.9"/>
      <point x="308.0" y="57.6"/>
      <point x="350.6" y="57.6" type="curve" smooth="yes"/>
      <point x="414.5" y="57.6"/>
      <point x="426.5" y="197.5"/>
      <point x="426.5" y="352.5" type="curve" smooth="yes"/>
      <point x="426.5" y="604.1"/>
      <point x="390.7" y="709.9"/>
      <point x="236.4" y="709.9" type="curve" smooth="yes"/>
      <point x="70.6" y="709.9"/>
      <point x="25.7" y="523.0"/>
      <point x="25.7" y="268.4" type="curve" smooth="yes"/>
      <point x="25.7" y="-25.6"/>
      <point x="93.7" y="-123.0"/>
    </contour>
    <contour>
      <point x="207.2" y="80.5" type="curve" smooth="yes"/>
      <point x="173.7" y="80.5"/>
      <point x="148.3" y="122.5"/>
      <point x="148.3" y="269.8" type="curve" smooth="yes"/>
      <point x="148.3" y="387.8"/>
      <point x="172.3" y="516.6"/>
      <point x="242.4" y="516.6" type="curve" smooth="yes"/>
      <point x="258.8" y="516.6"/>
      <point x="278.3" y="511.9"/>
      <point x="300.3" y="502.7" type="curve"/>
      <point x="295.5" y="422.0" type="line" smooth="yes"/>
      <point x="275.4" y="115.4"/>
      <point x="252.1" y="80.5"/>
    </contour>
  </outline>
</glyph>
<glyph name="A" format="2">
  <advance width="350.8"/>
  <unicode hex="0041"/>
  <anchor x="331.8" y="0.0" name="ogonek"/>
  <anchor x="176.3" y="0.0" name="bottom"/>
  <anchor x="176.3" y="700.0" name="top"/>
  <outline>
    <contour>
      <point x="19.0" y="0.0" type="line"/>
      <point x="39.2" y="0.0" type="line"/>
      <point x="85.1" y="221.1" type="line"/>
      <point x="266.4" y="221.1" type="line"/>
      <point x="311.5" y="0.0" type="line"/>
      <point x="331.8" y="0.0" type="line"/>
      <point x="183.8" y="710.0" type="line"/>
      <point x="168.6" y="710.0" type="line"/>
    </contour>
    <contour>
      <point x="89.1" y="240.1" type="line"/>
      <point x="176.1" y="657.5" type="line"/>
      <point x="262.5" y="240.1" type="line"/>
    </contour>
  </outline>
</glyph>
<glyph name="B" format="2">
  <advance width="347.5"/>
  <unicode hex="0042"/>
  <anchor x="164.0" y="700.0" name="top"/>
  <anchor x="164.0" y="0.0" name="bottom"/>
  <outline>
    <contour>
      <point x="52.9" y="-4.9" type="line"/>
      <point x="93.0" y="-8.8"/>
      <point x="120.2" y="-10.0"/>
      <point x="154.6" y="-10.0" type="curve" smooth="yes"/>
      <point x="269.8" y="-10.0"/>
      <point x="321.3" y="50.6"/>
      <point x="321.3" y="182.3" type="curve" smooth="yes"/>
      <point x="321.3" y="277.7"/>
      <point x="282.1" y="341.8"/>
      <point x="215.2" y="358.5" type="curve"/>
      <point x="215.2" y="359.6" type="line"/>
      <point x="266.6" y="380.3"/>
      <point x="300.7" y="449.6"/>
      <point x="300.7" y="534.6" type="curve" smooth="yes"/>
      <point x="300.7" y="656.0"/>
      <point x="256.2" y="710.0"/>
      <point x="152.5" y="710.0" type="curve" smooth="yes"/>
      <point x="124.30000000000001" y="710.0"/>
      <point x="95.6" y="707.8"/>
      <point x="52.9" y="703.1" type="curve"/>
    </contour>
    <contour>
      <point x="72.9" y="365.6" type="line"/>
      <point x="72.9" y="686.9" type="line"/>
      <point x="107.2" y="690.8"/>
      <point x="121.2" y="691.8"/>
      <point x="151.3" y="691.8" type="curve" smooth="yes"/>
      <point x="240.7" y="691.8"/>
      <point x="280.7" y="641.1"/>
      <point x="280.7" y="534.6" type="curve" smooth="yes"/>
      <point x="280.7" y="438.4"/>
      <point x="237.1" y="365.6"/>
      <point x="170.1" y="365.6" type="curve" smooth="yes"/>
    </contour>
    <contour>
      <point x="72.9" y="13.2" type="curve"/>
      <point x="72.9" y="345.6" type="line"/>
      <point x="174.0" y="345.6" type="line" smooth="yes"/>
      <point x="254.7" y="345.6"/>
      <point x="301.3" y="281.4"/>
      <point x="301.3" y="183.0" type="curve" smooth="yes"/>
      <point x="301.3" y="59.7"/>
      <point x="258.4" y="9.0"/>
      <point x="151.9" y="9.0" type="curve" smooth="yes"/>
      <point x="132.1" y="9.0"/>
      <point x="115.9" y="10.2"/>
    </contour>
  </outline>
</glyph>
<glyph name="C" format="2">
  <advance width="322.6"/>
  <unicode hex="0043"/>
  <anchor x="196.0" y="700.0" name="top"/>
  <anchor x="195.1" y="0.0" name="bottom"/>
  <outline>
    <contour>
      <point x="34.4" y="336.1" type="curve" smooth="yes"/>
      <point x="34.4" y="59.9"/>
      <point x="100.8" y="-10.0"/>
      <point x="204.2" y="-10.0" type="curve" smooth="yes"/>
      <point x="234.6" y="-10.0"/>
      <point x="276.9" y="-6.3"/>
      <point x="305.0" y="2.7" type="curve"/>
      <point x="300.8" y="21.8" type="line"/>
      <point x="276.3" y="13.7"/>
      <point x="231.5" y="8.2"/>
      <point x="205.1" y="8.2" type="curve" smooth="yes"/>
      <point x="112.9" y="8.2"/>
      <point x="54.4" y="80.1"/>
      <point x="54.4" y="336.1" type="curve" smooth="yes"/>
      <point x="54.4" y="617.8"/>
      <point x="114.0" y="690.9"/>
      <point x="210.8" y="690.9" type="curve" smooth="yes"/>
      <point x="238.8" y="690.9"/>
      <point x="262.7" y="688.0"/>
      <point x="291.0" y="679.6" type="curve"/>
      <point x="295.2" y="697.8" type="line"/>
      <point x="265.1" y="707.1"/>
      <point x="238.4" y="710.0"/>
      <point x="209.9" y="710.0" type="curve" smooth="yes"/>
      <point x="94.7" y="710.0"/>
      <point x="34.4" y="617.3"/>
    </contour>
  </outline>
</glyph>
<glyph name="D" format="2">
  <advance width="373.5"/>
  <unicode hex="0044"/>
  <anchor x="173.1" y="700.0" name="top"/>
  <outline>
    <contour>
      <point x="158.6" y="-10.0" type="curve" smooth="yes"/>
      <point x="285.8" y="-10.0"/>
      <point x="339.1" y="91.9"/>
      <point x="339.1" y="349.2" type="curve" smooth="yes"/>
      <point x="339.1" y="609.1"/>
      <point x="287.9" y="710.0"/>
      <point x="157.4" y="710.0" type="curve" smooth="yes"/>
      <point x="126.5" y="710.0"/>
      <point x="92.3" y="707.9"/>
      <point x="52.9" y="703.6" type="curve"/>
      <point x="52.9" y="-5.4" type="line"/>
      <point x="85.7" y="-8.5"/>
      <point x="124.0" y="-10.0"/>
    </contour>
    <contour>
      <point x="146.8" y="8.2" type="curve" smooth="yes"/>
      <point x="128.7" y="8.2"/>
      <point x="97.3" y="9.6"/>
      <point x="72.9" y="11.9" type="curve"/>
      <point x="72.9" y="687.2" type="line"/>
      <point x="98.1" y="689.6"/>
      <point x="128.5" y="690.9"/>
      <point x="147.5" y="690.9" type="curve" smooth="yes"/>
      <point x="271.9" y="690.9"/>
      <point x="318.1" y="605.1"/>
      <point x="318.1" y="349.3" type="curve" smooth="yes"/>
      <point x="318.1" y="95.2"/>
      <point x="272.0" y="8.2"/>
    </contour>
  </outline>
</glyph>
<glyph name="E" format="2">
  <advance width="310.5"/>
  <unicode hex="0045"/>
  <anchor x="295.3" y="0.0" name="ogonek"/>
  <anchor x="174.6" y="0.0" name="bottom"/>
  <anchor x="169.0" y="700.0" name="top"/>
  <outline>
    <contour>
      <point x="52.9" y="0.0" type="line"/>
      <point x="295.3" y="0.0" type="line"/>
      <point x="295.3" y="20.0" type="line"/>
      <point x="72.9" y="20.0" type="line"/>
      <point x="72.9" y="355.9" type="line"/>
      <point x="266.7" y="355.9" type="line"/>
      <point x="266.7" y="375.0" type="line"/>
      <point x="72.9" y="375.0" type="line"/>
      <point x="72.9" y="680.0" type="line"/>
      <point x="283.4" y="680.0" type="line"/>
      <point x="283.4" y="700.0" type="line"/>
      <point x="52.9" y="700.0" type="line"/>
    </contour>
  </outline>
</glyph>
<glyph name="F" format="2">
  <advance width="290.9"/>
  <unicode hex="0046"/>
  <outline>
    <contour>
      <point x="52.9" y="0.0" type="line"/>
      <point x="72.9" y="0.0" type="line"/>
      <point x="72.9" y="345.3" type="line"/>
      <point x="245.5" y="345.3" type="line"/>
      <point x="245.5" y="364.4" type="line"/>
      <point x="72.9" y="364.4" type="line"/>
      <point x="72.9" y="680.0" type="line"/>
      <point x="283.4" y="680.0" type="line"/>
      <point x="283.4" y="700.0" type="line"/>
      <point x="52.9" y="700.0" type="line"/>
    </contour>
  </outline>
</glyph>
<glyph name="G" format="2">
  <advance width="347.6"/>
  <unicode hex="0047"/>
  <anchor x="194.0" y="700.0" name="top"/>
  <anchor x="196.6" y="0.0" name="bottom"/>
  <outline>
    <contour>
      <point x="34.4" y="336.1" type="curve" smooth="yes"/>
      <point x="34.4" y="97.3"/>
      <point x="85.3" y="-10.0"/>
      <point x="201.5" y="-10.0" type="curve" smooth="yes"/>
      <point x="244.2" y="-10.0"/>
      <point x="285.7" y="-4.9"/>
      <point x="306.4" y="4.0" type="curve"/>
      <point x="306.4" y="336.1" type="line"/>
      <point x="177.6" y="336.1" type="line"/>
      <point x="177.6" y="317.0" type="line"/>
      <point x="286.4" y="317.0" type="line"/>
      <point x="286.4" y="18.0" type="line"/>
      <point x="264.7" y="11.1"/>
      <point x="238.1" y="8.2"/>
      <point x="202.4" y="8.2" type="curve" smooth="yes"/>
      <point x="101.9" y="8.2"/>
      <point x="54.4" y="110.3"/>
      <point x="54.4" y="336.1" type="curve" smooth="yes"/>
      <point x="54.4" y="586.9"/>
      <point x="102.8" y="690.9"/>
      <point x="207.5" y="690.9" type="curve" smooth="yes"/>
      <point x="235.4" y="690.9"/>
      <point x="262.1" y="687.4"/>
      <point x="291.2" y="678.3" type="curve"/>
      <point x="295.4" y="696.3" type="line"/>
      <point x="268.0" y="705.4"/>
      <point x="237.8" y="710.0"/>
      <point x="206.6" y="710.0" type="curve" smooth="yes"/>
      <point x="88.1" y="710.0"/>
      <point x="34.4" y="598.9"/>
    </contour>
  </outline>
</glyph>
<glyph name="H" format="2">
  <advance width="396.1"/>
  <unicode hex="0048"/>
  <anchor x="198.1" y="700.0" name="top"/>
  <outline>
    <contour>
      <point x="52.9" y="0.0" type="line"/>
      <point x="72.9" y="0.0" type="line"/>
      <point x="72.9" y="290.9" type="line"/>
      <point x="323.2" y="290.9" type="line"/>
      <point x="323.2" y="0.0" type="line"/>
      <point x="343.2" y="0.0" type="line"/>
      <point x="343.2" y="700.0" type="line"/>
      <point x="323.2" y="700.0" type="line"/>
      <point x="323.2" y="310.0" type="line"/>
      <point x="72.9" y="310.0" type="line"/>
      <point x="72.9" y="700.0" type="line"/>
      <point x="52.9" y="700.0" type="line"/>
    </contour>
  </outline>
</glyph>
<glyph name="J" format="2">
  <advance width="259.2"/>
  <unicode hex="004A"/>
  <anchor x="123.5" y="700.0" name="top"/>
  <outline>
    <contour>
      <point x="7.4" y="1.2999999999999998" type="line"/>
      <point x="33.7" y="-6.4"/>
      <point x="64.2" y="-10.1"/>
      <point x="87.1" y="-10.1" type="curve" smooth="yes"/>
      <point x="188.1" y="-10.1"/>
      <point x="213.8" y="46.3"/>
      <point x="213.8" y="125.7" type="curve" smooth="yes"/>
      <point x="213.8" y="700.0" type="line"/>
      <point x="24.1" y="700.0" type="line"/>
      <point x="24.1" y="680.9" type="line"/>
      <point x="193.8" y="680.9" type="line"/>
      <point x="193.8" y="123.0" type="line" smooth="yes"/>
      <point x="193.8" y="40.5"/>
      <point x="158.1" y="9.0"/>
      <point x="87.1" y="9.0" type="curve" smooth="yes"/>
      <point x="64.5" y="9.0"/>
      <point x="37.1" y="11.8"/>
      <point x="12.5" y="19.5" type="curve"/>
    </contour>
  </outline>
</glyph>
<glyph name="K" format="2">
  <advance width="335.75"/>
  <unicode hex="004B"/>
  <anchor x="168.25" y="700.0" name="top"/>
  <anchor x="177.25" y="0.0" name="bottom"/>
  <outline>
    <contour>
      <point x="324.25" y="-10.0" type="curve" smooth="yes"/>
      <point x="327.25" y="-10.0"/>
      <point x="331.75" y="-10.0"/>
      <point x="337.75" y="-8.0" type="curve"/>
      <point x="337.75" y="12.75" type="line"/>
      <point x="335.25" y="11.75"/>
      <point x="332.0" y="11.75"/>
      <point x="329.75" y="11.75" type="curve" smooth="yes"/>
      <point x="308.5" y="12.0"/>
      <point x="294.75" y="23.75"/>
      <point x="242.0" y="116.25" type="curve" smooth="yes"/>
      <point x="73.0" y="413.0" type="line"/>
      <point x="73.0" y="700.0" type="line"/>
      <point x="53.0" y="700.0" type="line"/>
      <point x="53.0" y="0.0" type="line"/>
      <point x="73.0" y="0.0" type="line"/>
      <point x="73.0" y="370.75" type="line"/>
      <point x="225.0" y="106.0" type="line" smooth="yes"/>
      <point x="271.75" y="24.75"/>
      <point x="293.5" y="-10.0"/>
    </contour>
    <contour>
      <point x="124.75" y="300.75" type="line"/>
      <point x="182.25" y="375.75"/>
      <point x="268.25" y="508.5"/>
      <point x="309.0" y="697.5" type="curve"/>
      <point x="290.25" y="702.5" type="line"/>
      <point x="249.5" y="517.75"/>
      <point x="171.0" y="396.25"/>
      <point x="114.25" y="320.5" type="curve"/>
    </contour>
  </outline>
</glyph>
<glyph name="L" format="2">
  <advance width="274.1"/>
  <unicode hex="004C"/>
  <anchor x="137.1" y="350.0" name="center"/>
  <anchor x="62.9" y="700.0" name="top"/>
  <anchor x="185.6" y="700.0" name="topright"/>
  <anchor x="161.0" y="0.0" name="bottom"/>
  <outline>
    <contour>
      <point x="52.9" y="0.0" type="line"/>
      <point x="267.6" y="0.0" type="line"/>
      <point x="267.6" y="19.1" type="line"/>
      <point x="72.9" y="19.1" type="line"/>
      <point x="72.9" y="700.0" type="line"/>
      <point x="52.9" y="700.0" type="line"/>
    </contour>
  </outline>
</glyph>
<glyph name="M" format="2">
  <advance width="426.5"/>
  <unicode hex="004D"/>
  <outline>
    <contour>
      <point x="53.0" y="0.0" type="line"/>
      <point x="73.0" y="0.0" type="line"/>
      <point x="73.0" y="643.75" type="line"/>
      <point x="206.0" y="278.5" type="line"/>
      <point x="219.5" y="278.5" type="line"/>
      <point x="353.5" y="643.25" type="line"/>
      <point x="353.5" y="0.0" type="line"/>
      <point x="373.5" y="0.0" type="line"/>
      <point x="373.5" y="700.0" type="line"/>
      <point x="352.75" y="700.0" type="line"/>
      <point x="213.75" y="320.75" type="line"/>
      <point x="74.5" y="700.0" type="line"/>
      <point x="53.0" y="700.0" type="line"/>
    </contour>
  </outline>
</glyph>
<glyph name="N" format="2">
  <advance width="391.75"/>
  <unicode hex="004E"/>
  <anchor x="196.25" y="700.0" name="top"/>
  <anchor x="196.25" y="0.0" name="bottom"/>
  <outline>
    <contour>
      <point x="53.0" y="0.0" type="line"/>
      <point x="73.0" y="0.0" type="line"/>
      <point x="73.0" y="642.75" type="line"/>
      <point x="318.0" y="0.0" type="line"/>
      <point x="338.75" y="0.0" type="line"/>
      <point x="338.75" y="700.0" type="line"/>
      <point x="318.75" y="700.0" type="line"/>
      <point x="318.75" y="54.75" type="line"/>
      <point x="73.5" y="701.0" type="line"/>
      <point x="53.0" y="701.0" type="line"/>
    </contour>
  </outline>
</glyph>
<glyph name="O" format="2">
  <advance width="395.0"/>
  <unicode hex="004F"/>
  <anchor x="224.0" y="0.0" name="ogonek"/>
  <anchor x="196.75" y="700.0" name="top"/>
  <anchor x="280.75" y="686.75" name="topright"/>
  <anchor x="196.75" y="0.0" name="bottom"/>
  <outline>
    <contour>
      <point x="196.75" y="8.25" type="curve" smooth="yes"/>
      <point x="110.25" y="8.25"/>
      <point x="54.5" y="77.0"/>
      <point x="54.5" y="349.0" type="curve" smooth="yes"/>
      <point x="54.5" y="624.25"/>
      <point x="110.25" y="691.75"/>
      <point x="196.75" y="691.75" type="curve" smooth="yes"/>
      <point x="284.25" y="691.75"/>
      <point x="340.25" y="624.5"/>
      <point x="340.25" y="349.0" type="curve" smooth="yes"/>
      <point x="340.25" y="75.5"/>
      <point x="284.25" y="8.25"/>
    </contour>
    <contour>
      <point x="196.75" y="-10.0" type="curve" smooth="yes"/>
      <point x="298.75" y="-10.0"/>
      <point x="360.5" y="59.75"/>
      <point x="360.5" y="349.5" type="curve" smooth="yes"/>
      <point x="360.5" y="640.25"/>
      <point x="297.5" y="710.0"/>
      <point x="196.75" y="710.0" type="curve" smooth="yes"/>
      <point x="96.5" y="710.0"/>
      <point x="34.5" y="640.0"/>
      <point x="34.5" y="349.0" type="curve" smooth="yes"/>
      <point x="34.5" y="61.5"/>
      <point x="96.5" y="-10.0"/>
    </contour>
  </outline>
</glyph>
<glyph name="P" format="2">
  <advance width="327.0"/>
  <unicode hex="0050"/>
  <outline>
    <contour>
      <point x="52.9" y="0.0" type="line"/>
      <point x="72.9" y="0.0" type="line"/>
      <point x="72.9" y="290.5" type="line"/>
      <point x="98.1" y="289.2"/>
      <point x="120.1" y="289.1"/>
      <point x="147.1" y="289.1" type="curve" smooth="yes"/>
      <point x="254.4" y="289.1"/>
      <point x="305.8" y="350.0"/>
      <point x="305.8" y="509.1" type="curve" smooth="yes"/>
      <point x="305.8" y="660.9"/>
      <point x="270.4" y="710.0"/>
      <point x="147.3" y="710.0" type="curve" smooth="yes"/>
      <point x="123.80000000000001" y="710.0"/>
      <point x="96.7" y="708.0"/>
      <point x="52.9" y="703.6" type="curve"/>
    </contour>
    <contour>
      <point x="72.9" y="687.2" type="line"/>
      <point x="107.9" y="690.7"/>
      <point x="129.0" y="691.8"/>
      <point x="148.2" y="691.8" type="curve" smooth="yes"/>
      <point x="260.1" y="691.8"/>
      <point x="285.8" y="640.0"/>
      <point x="285.8" y="506.4" type="curve" smooth="yes"/>
      <point x="285.8" y="363.4"/>
      <point x="244.2" y="309.1"/>
      <point x="148.0" y="309.1" type="curve" smooth="yes"/>
      <point x="119.0" y="309.1"/>
      <point x="99.9" y="309.4"/>
      <point x="72.9" y="310.6" type="curve"/>
    </contour>
  </outline>
</glyph>
<glyph name="Q" format="2">
  <advance width="395.0"/>
  <unicode hex="0051"/>
  <outline>
    <contour>
      <point x="216.5" y="3.5" type="curve"/>
      <point x="198.0" y="-0.25" type="line"/>
      <point x="219.0" y="-156.5"/>
      <point x="242.0" y="-209.75"/>
      <point x="292.75" y="-209.75" type="curve" smooth="yes"/>
      <point x="308.75" y="-209.75"/>
      <point x="328.25" y="-204.25"/>
      <point x="351.0" y="-195.25" type="curve"/>
      <point x="344.75" y="-178.25" type="line"/>
      <point x="326.0" y="-187.0"/>
      <point x="309.5" y="-191.5"/>
      <point x="296.25" y="-191.5" type="curve" smooth="yes"/>
      <point x="255.5" y="-191.5"/>
      <point x="236.75" y="-145.0"/>
    </contour>
    <component base="O"/>
  </outline>
</glyph>
<glyph name="R" format="2">
  <advance width="350.25"/>
  <unicode hex="0052"/>
  <anchor x="166.75" y="700.0" name="top"/>
  <anchor x="176.75" y="0.0" name="bottom"/>
  <outline>
    <contour>
      <point x="335.75" y="-10.0" type="curve" smooth="yes"/>
      <point x="341.5" y="-10.0"/>
      <point x="346.75" y="-7.25"/>
      <point x="350.0" y="-5.5" type="curve"/>
      <point x="346.5" y="12.0" type="line"/>
      <point x="343.25" y="11.0"/>
      <point x="337.25" y="10.0"/>
      <point x="335.25" y="10.0" type="curve" smooth="yes"/>
      <point x="311.25" y="10.0"/>
      <point x="281.25" y="38.0"/>
      <point x="203.0" y="312.75" type="curve"/>
      <point x="268.75" y="332.75"/>
      <point x="303.75" y="394.0"/>
      <point x="303.75" y="516.5" type="curve" smooth="yes"/>
      <point x="303.75" y="664.5"/>
      <point x="256.5" y="710.0"/>
      <point x="144.0" y="710.0" type="curve" smooth="yes"/>
      <point x="113.25" y="710.0"/>
      <point x="87.25" y="708.0"/>
      <point x="53.0" y="703.75" type="curve"/>
      <point x="53.0" y="0.0" type="line"/>
      <point x="73.0" y="0.0" type="line"/>
      <point x="73.0" y="305.75" type="line"/>
      <point x="95.0" y="304.5"/>
      <point x="120.25" y="304.25"/>
      <point x="146.0" y="304.25" type="curve" smooth="yes"/>
      <point x="159.25" y="304.25"/>
      <point x="171.5" y="305.25"/>
      <point x="184.0" y="307.0" type="curve"/>
      <point x="266.0" y="19.75"/>
      <point x="291.25" y="-10.0"/>
    </contour>
    <contour>
      <point x="147.0" y="324.25" type="curve" smooth="yes"/>
      <point x="121.25" y="324.25"/>
      <point x="97.75" y="324.5"/>
      <point x="73.0" y="325.75" type="curve"/>
      <point x="73.0" y="687.5" type="line"/>
      <point x="100.0" y="690.75"/>
      <point x="118.75" y="691.75"/>
      <point x="145.0" y="691.75" type="curve" smooth="yes"/>
      <point x="248.75" y="691.75"/>
      <point x="283.75" y="642.25"/>
      <point x="283.75" y="514.0" type="curve" smooth="yes"/>
      <point x="283.75" y="373.25"/>
      <point x="238.0" y="324.25"/>
    </contour>
  </outline>
</glyph>
<glyph name="S" format="2">
  <advance width="311.0"/>
  <unicode hex="0053"/>
  <anchor x="164.0" y="700.0" name="top"/>
  <anchor x="155.5" y="0.0" name="bottom"/>
  <outline>
    <contour>
      <point x="260.25" y="692.5" type="line"/>
      <point x="238.0" y="702.25"/>
      <point x="201.75" y="710.0"/>
      <point x="168.25" y="710.0" type="curve" smooth="yes"/>
      <point x="92.75" y="710.0"/>
      <point x="35.25" y="657.0"/>
      <point x="35.25" y="567.75" type="curve" smooth="yes"/>
      <point x="35.25" y="476.25"/>
      <point x="79.25" y="411.5"/>
      <point x="151.5" y="345.0" type="curve" smooth="yes"/>
      <point x="220.0" y="280.25"/>
      <point x="263.5" y="217.0"/>
      <point x="263.5" y="130.75" type="curve" smooth="yes"/>
      <point x="263.5" y="47.75"/>
      <point x="204.75" y="10.0"/>
      <point x="137.25" y="10.0" type="curve" smooth="yes"/>
      <point x="102.0" y="10.0"/>
      <point x="60.25" y="16.5"/>
      <point x="30.25" y="29.5" type="curve"/>
      <point x="22.25" y="11.25" type="line"/>
      <point x="45.75" y="0.0"/>
      <point x="97.25" y="-10.0"/>
      <point x="137.25" y="-10.0" type="curve" smooth="yes"/>
      <point x="216.25" y="-10.0"/>
      <point x="283.75" y="37.5"/>
      <point x="283.75" y="133.5" type="curve" smooth="yes"/>
      <point x="283.75" y="225.5"/>
      <point x="238.75" y="289.25"/>
      <point x="166.25" y="357.0" type="curve" smooth="yes"/>
      <point x="97.0" y="422.25"/>
      <point x="55.5" y="482.0"/>
      <point x="55.5" y="567.75" type="curve" smooth="yes"/>
      <point x="55.5" y="643.75"/>
      <point x="101.0" y="691.75"/>
      <point x="168.25" y="691.75" type="curve" smooth="yes"/>
      <point x="201.75" y="691.75"/>
      <point x="229.5" y="685.75"/>
      <point x="252.5" y="676.0" type="curve"/>
    </contour>
  </outline>
</glyph>
<glyph name="T" format="2">
  <advance width="294.2"/>
  <unicode hex="0054"/>
  <anchor x="147.1" y="700.0" name="top"/>
  <anchor x="147.1" y="0.0" name="bottom"/>
  <outline>
    <contour>
      <point x="289.1" y="681.0" type="line"/>
      <point x="289.1" y="700.0" type="line"/>
      <point x="5.1" y="700.0" type="line"/>
      <point x="5.1" y="681.0" type="line"/>
      <point x="137.1" y="681.0" type="line"/>
      <point x="137.1" y="0.0" type="line"/>
      <point x="157.1" y="0.0" type="line"/>
      <point x="157.1" y="681.0" type="line"/>
    </contour>
  </outline>
</glyph>
<glyph name="U" format="2">
  <advance width="380.3"/>
  <unicode hex="0055"/>
  <anchor x="216.3" y="0.0" name="ogonek"/>
  <anchor x="190.6" y="700.0" name="top"/>
  <anchor x="334.9" y="700.0" name="topright"/>
  <anchor x="190.6" y="0.0" name="bottom"/>
  <outline>
    <contour>
      <point x="45.4" y="151.6" type="line"/>
      <point x="45.4" y="18.6"/>
      <point x="121.1" y="-10.0"/>
      <point x="190.6" y="-10.0" type="curve" smooth="yes"/>
      <point x="260.1" y="-10.0"/>
      <point x="334.9" y="18.6"/>
      <point x="334.9" y="151.6" type="curve" smooth="yes"/>
      <point x="334.9" y="700.0" type="line"/>
      <point x="314.9" y="700.0" type="line"/>
      <point x="314.9" y="151.6" type="line" smooth="yes"/>
      <point x="314.9" y="31.9"/>
      <point x="250.1" y="10.0"/>
      <point x="190.6" y="10.0" type="curve" smooth="yes"/>
      <point x="131.1" y="10.0"/>
      <point x="65.4" y="31.9"/>
      <point x="65.4" y="151.6" type="curve" smooth="yes"/>
      <point x="65.4" y="700.0" type="line"/>
      <point x="45.4" y="700.0" type="line"/>
    </contour>
  </outline>
</glyph>
<glyph name="V" format="2">
  <advance width="331.0"/>
  <unicode hex="0056"/>
  <outline>
    <contour>
      <point x="155.0" y="0.0" type="line"/>
      <point x="176.0" y="0.0" type="line"/>
      <point x="320.5" y="698.5" type="line"/>
      <point x="302.0" y="702.5" type="line"/>
      <point x="165.5" y="49.25" type="line"/>
      <point x="29.0" y="702.5" type="line"/>
      <point x="10.5" y="698.5" type="line"/>
    </contour>
  </outline>
</glyph>
<glyph name="W" format="2">
  <advance width="459.25"/>
  <unicode hex="0057"/>
  <anchor x="229.5" y="700.0" name="top"/>
  <anchor x="229.5" y="0.0" name="bottom"/>
  <outline>
    <contour>
      <point x="356.5" y="0.0" type="line"/>
      <point x="449.75" y="698.75" type="line"/>
      <point x="430.0" y="702.25" type="line"/>
      <point x="343.25" y="50.75" type="line"/>
      <point x="242.25" y="696.25" type="line"/>
      <point x="217.0" y="696.25" type="line"/>
      <point x="116.0" y="50.75" type="line"/>
      <point x="29.25" y="702.25" type="line"/>
      <point x="9.5" y="698.75" type="line"/>
      <point x="103.5" y="0.0" type="line"/>
      <point x="125.5" y="0.0" type="line"/>
      <point x="228.75" y="648.75" type="line"/>
      <point x="332.75" y="0.0" type="line"/>
    </contour>
  </outline>
</glyph>
<glyph name="X" format="2">
  <advance width="339.0"/>
  <unicode hex="0058"/>
  <outline>
    <contour>
      <point x="25.0" y="2.5" type="line"/>
      <point x="42.5" y="-4.5" type="line"/>
      <point x="167.75" y="334.25" type="line"/>
      <point x="296.0" y="-4.5" type="line"/>
      <point x="313.25" y="2.5" type="line"/>
      <point x="180.0" y="359.0" type="line"/>
      <point x="305.0" y="696.5" type="line"/>
      <point x="287.75" y="703.5" type="line"/>
      <point x="170.5" y="387.5" type="line"/>
      <point x="50.5" y="703.5" type="line"/>
      <point x="33.25" y="696.5" type="line"/>
      <point x="159.25" y="360.5" type="line"/>
    </contour>
  </outline>
</glyph>
<glyph name="Y" format="2">
  <advance width="321.2"/>
  <unicode hex="0059"/>
  <anchor x="161.5" y="700.0" name="top"/>
  <anchor x="161.3" y="0.0" name="bottom"/>
  <outline>
    <contour>
      <point x="152.2" y="0.0" type="line"/>
      <point x="172.2" y="0.0" type="line"/>
      <point x="172.2" y="314.8" type="line"/>
      <point x="308.1" y="696.5" type="line"/>
      <point x="290.7" y="703.5" type="line"/>
      <point x="162.2" y="342.7" type="line"/>
      <point x="26.9" y="703.5" type="line"/>
      <point x="9.5" y="696.5" type="line"/>
      <point x="152.2" y="314.8" type="line"/>
    </contour>
  </outline>
</glyph>
<glyph name="Z" format="2">
  <advance width="319.1"/>
  <unicode hex="005A"/>
  <anchor x="167.2" y="350.0" name="center"/>
  <anchor x="167.2" y="0.0" name="bottom"/>
  <anchor x="165.1" y="700.0" name="top"/>
  <outline>
    <contour>
      <point x="18.0" y="0.0" type="line"/>
      <point x="308.2" y="0.0" type="line"/>
      <point x="308.2" y="19.1" type="line"/>
      <point x="41.7" y="19.1" type="line"/>
      <point x="41.7" y="21.1" type="line"/>
      <point x="290.9" y="685.0" type="line"/>
      <point x="290.9" y="700.0" type="line"/>
      <point x="39.7" y="700.0" type="line"/>
      <point x="39.7" y="680.9" type="line"/>
      <point x="267.2" y="680.9" type="line"/>
      <point x="267.2" y="678.9" type="line"/>
      <point x="18.0" y="15.0" type="line"/>
    </contour>
  </outline>
</glyph>
<glyph name="bracketleft" format="2">
  <advance width="200.5"/>
  <unicode hex="005B"/>
  <outline>
    <contour>
      <point x="79.9" y="-190.0" type="line"/>
      <point x="79.9" y="720.0" type="line"/>
      <point x="190.5" y="720.0" type="line"/>
      <point x="190.5" y="740.0" type="line"/>
      <point x="59.9" y="740.0" type="line"/>
      <point x="59.9" y="-210.0" type="line"/>
      <point x="190.5" y="-210.0" type="line"/>
      <point x="190.5" y="-190.0" type="line"/>
    </contour>
  </outline>
</glyph>
<glyph name="bracketright" format="2">
  <advance width="200.5"/>
  <unicode hex="005D"/>
  <outline>
    <contour>
      <point x="10.0" y="-190.0" type="line"/>
      <point x="10.0" y="-210.0" type="line"/>
      <point x="140.6" y="-210.0" type="line"/>
      <point x="140.6" y="740.0" type="line"/>
      <point x="10.0" y="740.0" type="line"/>
      <point x="10.0" y="720.0" type="line"/>
      <point x="120.6" y="720.0" type="line"/>
      <point x="120.6" y="-190.0" type="line"/>
    </contour>
  </outline>
</glyph>
<glyph name="asciicircum" format="2">
  <advance width="389.0"/>
  <unicode hex="005E"/>
  <outline>
    <contour>
      <point x="35.6" y="278.7" type="line"/>
      <point x="56.8" y="278.7" type="line"/>
      <point x="194.5" y="687.8" type="line"/>
      <point x="332.2" y="278.7" type="line"/>
      <point x="353.4" y="278.7" type="line"/>
      <point x="204.5" y="710.0" type="line"/>
      <point x="184.5" y="710.0" type="line"/>
    </contour>
  </outline>
</glyph>
<glyph name="underscore" format="2">
  <advance width="647.2"/>
  <unicode hex="005F"/>
  <outline>
    <contour>
      <point x="0.0" y="-136.0" type="line"/>
      <point x="647.2" y="-136.0" type="line"/>
      <point x="647.2" y="-116.0" type="line"/>
      <point x="0.0" y="-116.0" type="line"/>
    </contour>
  </outline>
</glyph>
<glyph name="a" format="2">
  <advance width="305.75"/>
  <unicode hex="0061"/>
  <anchor x="307.5" y="-1.0" name="ogonek"/>
  <anchor x="140.5" y="0.0" name="bottom"/>
  <anchor x="143.25" y="530.0" name="top"/>
  <outline>
    <contour>
      <point x="16.0" y="107.5" type="curve" smooth="yes"/>
      <point x="16.0" y="30.75"/>
      <point x="52.75" y="-10.0"/>
      <point x="111.0" y="-10.0" type="curve" smooth="yes"/>
      <point x="158.25" y="-10.0"/>
      <point x="197.25" y="16.0"/>
      <point x="226.25" y="46.0" type="curve"/>
      <point x="226.25" y="11.0"/>
      <point x="243.25" y="-10.0"/>
      <point x="271.5" y="-10.0" type="curve" smooth="yes"/>
      <point x="282.0" y="-10.0"/>
      <point x="293.25" y="-8.0"/>
      <point x="307.5" y="-1.0" type="curve"/>
      <point x="300.75" y="16.0" type="line"/>
      <point x="289.5" y="11.0"/>
      <point x="280.25" y="9.0"/>
      <point x="271.75" y="9.0" type="curve" smooth="yes"/>
      <point x="255.75" y="9.0"/>
      <point x="246.5" y="19.0"/>
      <point x="246.5" y="50.25" type="curve" smooth="yes"/>
      <point x="246.5" y="414.25" type="line" smooth="yes"/>
      <point x="246.5" y="495.25"/>
      <point x="211.75" y="540.0"/>
      <point x="139.5" y="540.0" type="curve" smooth="yes"/>
      <point x="112.5" y="540.0"/>
      <point x="80.75" y="535.0"/>
      <point x="44.75" y="522.0" type="curve"/>
      <point x="51.5" y="504.5" type="line"/>
      <point x="85.75" y="516.25"/>
      <point x="115.25" y="520.0"/>
      <point x="139.75" y="520.0" type="curve" smooth="yes"/>
      <point x="200.25" y="520.0"/>
      <point x="226.75" y="481.5"/>
      <point x="226.75" y="414.25" type="curve" smooth="yes"/>
      <point x="226.75" y="279.75" type="line"/>
      <point x="104.5" y="254.75"/>
      <point x="16.0" y="220.25"/>
    </contour>
    <contour>
      <point x="36.0" y="112.5" type="curve" smooth="yes"/>
      <point x="36.0" y="209.75"/>
      <point x="127.5" y="242.75"/>
      <point x="226.75" y="260.75" type="curve"/>
      <point x="226.75" y="73.5" type="line"/>
      <point x="200.25" y="42.0"/>
      <point x="159.0" y="9.0"/>
      <point x="112.75" y="9.0" type="curve" smooth="yes"/>
      <point x="65.5" y="9.0"/>
      <point x="36.0" y="46.0"/>
    </contour>
  </outline>
</glyph>
<glyph name="c" format="2">
  <advance width="266.8"/>
  <unicode hex="0063"/>
  <anchor x="161.3" y="530.0" name="top"/>
  <anchor x="162.2" y="0.0" name="bottom"/>
  <outline>
    <contour>
      <point x="33.5" y="259.1" type="curve" smooth="yes"/>
      <point x="33.5" y="68.7"/>
      <point x="77.3" y="-10.0"/>
      <point x="169.2" y="-10.0" type="curve" smooth="yes"/>
      <point x="194.5" y="-10.0"/>
      <point x="227.9" y="-5.5"/>
      <point x="248.4" y="-0.3999999999999999" type="curve"/>
      <point x="244.4" y="17.8" type="line"/>
      <point x="224.5" y="13.6"/>
      <point x="190.4" y="9.1"/>
      <point x="169.6" y="9.1" type="curve" smooth="yes"/>
      <point x="93.3" y="9.1"/>
      <point x="53.5" y="82.5"/>
      <point x="53.5" y="253.7" type="curve" smooth="yes"/>
      <point x="53.5" y="442.0"/>
      <point x="91.8" y="520.9"/>
      <point x="173.0" y="520.9" type="curve" smooth="yes"/>
      <point x="194.9" y="520.9"/>
      <point x="217.6" y="517.5"/>
      <point x="238.5" y="511.8" type="curve"/>
      <point x="242.5" y="530.0" type="line"/>
      <point x="220.7" y="536.6"/>
      <point x="195.2" y="540.0"/>
      <point x="175.7" y="540.0" type="curve" smooth="yes"/>
      <point x="78.0" y="540.0"/>
      <point x="33.5" y="459.4"/>
    </contour>
  </outline>
</glyph>
<glyph name="d" format="2">
  <advance width="316.5"/>
  <unicode hex="0064"/>
  <anchor x="158.3" y="275.0" name="center"/>
  <anchor x="161.6" y="740.0" name="top"/>
  <anchor x="334.0" y="740.0" name="topright"/>
  <anchor x="158.3" y="0.0" name="bottom"/>
  <outline>
    <contour>
      <point x="248.8" y="0.0" type="line"/>
      <point x="264.5" y="0.0" type="line"/>
      <point x="264.5" y="740.0" type="line"/>
      <point x="244.5" y="740.0" type="line"/>
      <point x="244.5" y="530.2" type="line"/>
      <point x="219.0" y="537.3"/>
      <point x="197.3" y="540.0"/>
      <point x="176.1" y="540.0" type="curve" smooth="yes"/>
      <point x="74.6" y="540.0"/>
      <point x="33.5" y="460.7"/>
      <point x="33.5" y="253.1" type="curve" smooth="yes"/>
      <point x="33.5" y="80.7"/>
      <point x="75.2" y="-10.0"/>
      <point x="151.9" y="-10.0" type="curve" smooth="yes"/>
      <point x="184.0" y="-10.0"/>
      <point x="215.6" y="0.0"/>
      <point x="244.5" y="21.0" type="curve"/>
    </contour>
    <contour>
      <point x="244.5" y="41.3" type="line"/>
      <point x="208.3" y="16.5"/>
      <point x="184.9" y="8.2"/>
      <point x="151.9" y="8.2" type="curve" smooth="yes"/>
      <point x="89.2" y="8.2"/>
      <point x="53.5" y="94.5"/>
      <point x="53.5" y="253.1" type="curve" smooth="yes"/>
      <point x="53.5" y="453.3"/>
      <point x="88.4" y="522.8"/>
      <point x="180.6" y="522.8" type="curve" smooth="yes"/>
      <point x="198.2" y="522.8"/>
      <point x="215.7" y="520.1"/>
      <point x="244.5" y="512.8" type="curve"/>
    </contour>
  </outline>
</glyph>
<glyph name="e" format="2">
  <advance width="304.3"/>
  <unicode hex="0065"/>
  <anchor x="243.9" y="2.3000000000000003" name="ogonek"/>
  <anchor x="166.0" y="0.0" name="bottom"/>
  <anchor x="162.4" y="530.0" name="top"/>
  <outline>
    <contour>
      <point x="164.6" y="-10.0" type="curve" smooth="yes"/>
      <point x="198.7" y="-10.0"/>
      <point x="236.1" y="-2.9"/>
      <point x="266.5" y="8.6" type="curve"/>
      <point x="261.6" y="26.8" type="line"/>
      <point x="230.6" y="15.4"/>
      <point x="197.2" y="9.1"/>
      <point x="165.5" y="9.1" type="curve" smooth="yes"/>
      <point x="89.1" y="9.1"/>
      <point x="53.5" y="65.0"/>
      <point x="53.5" y="263.4" type="curve" smooth="yes"/>
      <point x="53.5" y="271.0"/>
      <point x="53.6" y="279.4"/>
      <point x="53.7" y="286.9" type="curve"/>
      <point x="163.0" y="286.9"/>
      <point x="239.2" y="296.9"/>
      <point x="276.2" y="302.6" type="curve"/>
      <point x="276.3" y="305.9"/>
      <point x="277.2" y="319.1"/>
      <point x="277.2" y="325.0" type="curve" smooth="yes"/>
      <point x="277.2" y="479.1"/>
      <point x="240.3" y="540.0"/>
      <point x="169.0" y="540.0" type="curve" smooth="yes"/>
      <point x="91.2" y="540.0"/>
      <point x="33.5" y="480.9"/>
      <point x="33.5" y="249.9" type="curve" smooth="yes"/>
      <point x="33.5" y="57.3"/>
      <point x="73.4" y="-10.0"/>
    </contour>
    <contour>
      <point x="54.0" y="305.1" type="curve"/>
      <point x="63.5" y="482.5"/>
      <point x="113.6" y="521.8"/>
      <point x="169.0" y="521.8" type="curve" smooth="yes"/>
      <point x="228.1" y="521.8"/>
      <point x="257.1" y="468.2"/>
      <point x="257.1" y="318.8" type="curve"/>
      <point x="233.4" y="313.1"/>
      <point x="141.6" y="305.1"/>
    </contour>
  </outline>
</glyph>
<glyph name="f" format="2">
  <advance width="225.2"/>
  <unicode hex="0066"/>
  <outline>
    <contour>
      <point x="82.4" y="0.0" type="line"/>
      <point x="102.4" y="0.0" type="line"/>
      <point x="102.4" y="464.9" type="line"/>
      <point x="213.1" y="464.9" type="line"/>
      <point x="213.1" y="484.0" type="line"/>
      <point x="102.4" y="484.0" type="line"/>
      <point x="102.4" y="513.4" type="line" smooth="yes"/>
      <point x="102.4" y="667.1"/>
      <point x="135.4" y="731.0"/>
      <point x="206.7" y="731.0" type="curve" smooth="yes"/>
      <point x="225.2" y="731.0"/>
      <point x="242.9" y="728.9"/>
      <point x="264.2" y="722.2" type="curve"/>
      <point x="268.3" y="740.4" type="line"/>
      <point x="244.4" y="747.4"/>
      <point x="225.1" y="750.1"/>
      <point x="206.3" y="750.1" type="curve" smooth="yes"/>
      <point x="123.2" y="750.1"/>
      <point x="82.4" y="680.6"/>
      <point x="82.4" y="513.4" type="curve" smooth="yes"/>
      <point x="82.4" y="484.0" type="line"/>
      <point x="14.4" y="478.1" type="line"/>
      <point x="14.4" y="464.9" type="line"/>
      <point x="82.4" y="464.9" type="line"/>
    </contour>
  </outline>
</glyph>
<glyph name="g" format="2">
  <advance width="317.2"/>
  <unicode hex="0067"/>
  <anchor x="166.4" y="530.0" name="top"/>
  <anchor x="167.2" y="-211.0" name="bottom"/>
  <outline>
    <contour>
      <point x="169.9" y="-220.0" type="curve" smooth="yes"/>
      <point x="257.8" y="-220.0"/>
      <point x="309.9" y="-164.7"/>
      <point x="309.9" y="-74.3" type="curve" smooth="yes"/>
      <point x="309.9" y="8.0"/>
      <point x="271.1" y="52.7"/>
      <point x="198.2" y="52.7" type="curve" smooth="yes"/>
      <point x="133.7" y="52.7" type="line" smooth="yes"/>
      <point x="80.3" y="52.7"/>
      <point x="63.9" y="81.9"/>
      <point x="63.9" y="120.5" type="curve" smooth="yes"/>
      <point x="63.9" y="159.9"/>
      <point x="81.0" y="193.7"/>
      <point x="112.2" y="218.5" type="curve"/>
      <point x="100.4" y="228.3" type="line"/>
      <point x="63.0" y="198.6"/>
      <point x="44.8" y="161.0"/>
      <point x="44.8" y="119.2" type="curve" smooth="yes"/>
      <point x="44.8" y="67.1"/>
      <point x="67.3" y="33.6"/>
      <point x="133.4" y="33.6" type="curve" smooth="yes"/>
      <point x="199.1" y="33.6" type="line" smooth="yes"/>
      <point x="256.7" y="33.6"/>
      <point x="289.9" y="-6.3"/>
      <point x="289.9" y="-74.1" type="curve" smooth="yes"/>
      <point x="289.9" y="-154.6"/>
      <point x="246.9" y="-200.9"/>
      <point x="169.9" y="-200.9" type="curve" smooth="yes"/>
      <point x="90.7" y="-200.9"/>
      <point x="49.6" y="-159.0"/>
      <point x="49.6" y="-75.8" type="curve" smooth="yes"/>
      <point x="49.6" y="-23.7"/>
      <point x="63.4" y="16.8"/>
      <point x="99.9" y="47.6" type="curve"/>
      <point x="84.3" y="54.5" type="line"/>
      <point x="44.2" y="20.3"/>
      <point x="29.6" y="-21.7"/>
      <point x="29.6" y="-75.9" type="curve" smooth="yes"/>
      <point x="29.6" y="-170.5"/>
      <point x="78.0" y="-220.0"/>
    </contour>
    <contour>
      <point x="161.4" y="204.8" type="curve" smooth="yes"/>
      <point x="234.9" y="204.8"/>
      <point x="271.2" y="260.3"/>
      <point x="271.2" y="372.0" type="curve" smooth="yes"/>
      <point x="271.2" y="483.7"/>
      <point x="234.9" y="540.0"/>
      <point x="161.4" y="540.0" type="curve" smooth="yes"/>
      <point x="87.9" y="540.0"/>
      <point x="51.6" y="483.7"/>
      <point x="51.6" y="372.0" type="curve" smooth="yes"/>
      <point x="51.6" y="260.3"/>
      <point x="87.9" y="204.8"/>
    </contour>
    <contour>
      <point x="161.4" y="223.8" type="curve" smooth="yes"/>
      <point x="99.9" y="223.8"/>
      <point x="71.6" y="270.4"/>
      <point x="71.6" y="372.0" type="curve" smooth="yes"/>
      <point x="71.6" y="474.5"/>
      <point x="99.9" y="521.0"/>
      <point x="161.4" y="521.0" type="curve" smooth="yes"/>
      <point x="222.9" y="521.0"/>
      <point x="251.2" y="474.5"/>
      <point x="251.2" y="372.0" type="curve" smooth="yes"/>
      <point x="251.2" y="270.4"/>
      <point x="222.9" y="223.8"/>
    </contour>
    <contour>
      <point x="241.1" y="481.6" type="line"/>
      <point x="256.6" y="513.7"/>
      <point x="273.1" y="527.3"/>
      <point x="294.8" y="527.3" type="curve" smooth="yes"/>
      <point x="301.3" y="527.3"/>
      <point x="303.9" y="527.2"/>
      <point x="307.0" y="526.0" type="curve"/>
      <point x="308.1" y="546.0" type="line"/>
      <point x="304.3" y="547.2"/>
      <point x="302.0" y="547.3"/>
      <point x="294.8" y="547.3" type="curve" smooth="yes"/>
      <point x="266.8" y="547.3"/>
      <point x="241.5" y="528.7"/>
      <point x="230.4" y="500.0" type="curve"/>
    </contour>
  </outline>
</glyph>
<glyph name="h" format="2">
  <advance width="324.2"/>
  <unicode hex="0068"/>
  <anchor x="162.6" y="395.0" name="center"/>
  <anchor x="162.6" y="0.0" name="bottom"/>
  <anchor x="166.2" y="740.0" name="top"/>
  <outline>
    <contour>
      <point x="52.0" y="0.0" type="line"/>
      <point x="72.0" y="0.0" type="line"/>
      <point x="72.0" y="487.5" type="line"/>
      <point x="102.2" y="507.5"/>
      <point x="141.4" y="521.8"/>
      <point x="174.3" y="521.8" type="curve" smooth="yes"/>
      <point x="227.4" y="521.8"/>
      <point x="252.2" y="490.1"/>
      <point x="252.2" y="434.7" type="curve" smooth="yes"/>
      <point x="252.2" y="0.0" type="line"/>
      <point x="272.2" y="0.0" type="line"/>
      <point x="272.2" y="434.7" type="line" smooth="yes"/>
      <point x="272.2" y="510.7"/>
      <point x="232.8" y="540.0"/>
      <point x="180.6" y="540.0" type="curve" smooth="yes"/>
      <point x="141.3" y="540.0"/>
      <point x="103.4" y="526.4"/>
      <point x="72.0" y="508.5" type="curve"/>
      <point x="72.0" y="740.0" type="line"/>
      <point x="52.0" y="740.0" type="line"/>
    </contour>
  </outline>
</glyph>
<glyph name="i" format="2">
  <advance width="124.0"/>
  <unicode hex="0069"/>
  <anchor x="71.9" y="0.0" name="ogonek"/>
  <anchor x="62.0" y="0.0" name="bottom"/>
  <outline>
    <contour>
      <point x="62.0" y="677.0" type="curve" smooth="yes"/>
      <point x="76.2" y="677.0"/>
      <point x="76.3" y="678.0"/>
      <point x="76.3" y="694.0" type="curve" smooth="yes"/>
      <point x="76.3" y="710.0"/>
      <point x="76.2" y="711.0"/>
      <point x="62.0" y="711.0" type="curve" smooth="yes"/>
      <point x="47.8" y="711.0"/>
      <point x="47.7" y="710.0"/>
      <point x="47.7" y="694.0" type="curve" smooth="yes"/>
      <point x="47.7" y="678.0"/>
      <point x="48.8" y="677.0"/>
    </contour>
    <contour>
      <point x="52.0" y="0.0" type="line"/>
      <point x="72.0" y="0.0" type="line"/>
      <point x="72.0" y="530.0" type="line"/>
      <point x="52.0" y="530.0" type="line"/>
    </contour>
  </outline>
</glyph>
<glyph name="k" format="2">
  <advance width="296.25"/>
  <unicode hex="006B"/>
  <anchor x="62.0" y="740.0" name="top"/>
  <anchor x="168.5" y="0.0" name="bottom"/>
  <outline>
    <contour>
      <point x="291.5" y="-6.5" type="curve" smooth="yes"/>
      <point x="297.25" y="-6.5"/>
      <point x="303.25" y="-4.5"/>
      <point x="307.5" y="-2.75" type="curve"/>
      <point x="305.25" y="16.5" type="line"/>
      <point x="301.0" y="15.5"/>
      <point x="296.0" y="14.5"/>
      <point x="292.25" y="14.5" type="curve" smooth="yes"/>
      <point x="274.0" y="14.5"/>
      <point x="263.25" y="23.0"/>
      <point x="193.25" y="136.75" type="curve" smooth="yes"/>
      <point x="72.0" y="333.25" type="line"/>
      <point x="72.0" y="740.0" type="line"/>
      <point x="52.0" y="740.0" type="line"/>
      <point x="52.0" y="0.0" type="line"/>
      <point x="72.0" y="0.0" type="line"/>
      <point x="72.0" y="295.25" type="line"/>
      <point x="180.5" y="122.0" type="line" smooth="yes"/>
      <point x="256.25" y="2.0"/>
      <point x="265.25" y="-6.5"/>
    </contour>
    <contour>
      <point x="119.0" y="238.75" type="line"/>
      <point x="173.0" y="310.0"/>
      <point x="245.75" y="403.25"/>
      <point x="274.25" y="531.5" type="curve"/>
      <point x="256.5" y="539.0" type="line"/>
      <point x="227.25" y="405.0"/>
      <point x="158.75" y="323.5"/>
      <point x="108.75" y="257.25" type="curve"/>
    </contour>
  </outline>
</glyph>
<glyph name="l" format="2">
  <advance width="155.0"/>
  <unicode hex="006C"/>
  <anchor x="78.0" y="395.0" name="center"/>
  <anchor x="62.0" y="740.0" name="top"/>
  <anchor x="141.5" y="740.0" name="topright"/>
  <anchor x="102.9" y="0.0" name="bottom"/>
  <outline>
    <contour>
      <point x="72.0" y="740.0" type="line"/>
      <point x="52.0" y="740.0" type="line"/>
      <point x="52.0" y="92.0" type="line" smooth="yes"/>
      <point x="52.0" y="7.0"/>
      <point x="74.0" y="-10.0"/>
      <point x="114.2" y="-10.0" type="curve" smooth="yes"/>
      <point x="125.8" y="-10.0"/>
      <point x="140.0" y="-7.5"/>
      <point x="153.4" y="-2.1" type="curve"/>
      <point x="149.4" y="17.0" type="line"/>
      <point x="133.3" y="11.6"/>
      <point x="122.8" y="10.0"/>
      <point x="114.2" y="10.0" type="curve" smooth="yes"/>
      <point x="88.5" y="10.0"/>
      <point x="72.0" y="23.0"/>
      <point x="72.0" y="92.0" type="curve" smooth="yes"/>
    </contour>
  </outline>
</glyph>
<glyph name="m" format="2">
  <advance width="498.5"/>
  <unicode hex="006D"/>
  <outline>
    <contour>
      <point x="52.0" y="0.0" type="line"/>
      <point x="72.0" y="0.0" type="line"/>
      <point x="72.0" y="490.4" type="line"/>
      <point x="99.8" y="508.8"/>
      <point x="134.6" y="521.3"/>
      <point x="164.2" y="521.3" type="curve" smooth="yes"/>
      <point x="219.9" y="521.3"/>
      <point x="239.5" y="483.8"/>
      <point x="239.5" y="434.2" type="curve" smooth="yes"/>
      <point x="239.5" y="0.0" type="line"/>
      <point x="259.5" y="0.0" type="line"/>
      <point x="259.5" y="434.2" type="line" smooth="yes"/>
      <point x="259.5" y="454.3"/>
      <point x="256.6" y="471.8"/>
      <point x="251.0" y="486.7" type="curve"/>
      <point x="279.7" y="507.0"/>
      <point x="317.1" y="521.8"/>
      <point x="350.8" y="521.8" type="curve" smooth="yes"/>
      <point x="406.9" y="521.8"/>
      <point x="426.5" y="484.2"/>
      <point x="426.5" y="434.6" type="curve" smooth="yes"/>
      <point x="426.5" y="0.0" type="line"/>
      <point x="446.5" y="0.0" type="line"/>
      <point x="446.5" y="434.6" type="line" smooth="yes"/>
      <point x="446.5" y="503.7"/>
      <point x="413.2" y="540.0"/>
      <point x="357.1" y="540.0" type="curve" smooth="yes"/>
      <point x="306.6" y="540.0"/>
      <point x="265.4" y="518.0"/>
      <point x="243.0" y="502.1" type="curve"/>
      <point x="227.9" y="526.4"/>
      <point x="202.7" y="539.5"/>
      <point x="170.5" y="539.5" type="curve" smooth="yes"/>
      <point x="134.1" y="539.5"/>
      <point x="100.1" y="526.5"/>
      <point x="72.0" y="510.8" type="curve"/>
      <point x="72.0" y="530.0" type="line"/>
      <point x="52.0" y="530.0" type="line"/>
    </contour>
  </outline>
</glyph>
<glyph name="n" format="2">
  <advance width="324.2"/>
  <unicode hex="006E"/>
  <anchor x="165.7" y="530.0" name="top"/>
  <anchor x="167.7" y="0.0" name="bottom"/>
  <outline>
    <contour>
      <point x="52.0" y="0.0" type="line"/>
      <point x="72.0" y="0.0" type="line"/>
      <point x="72.0" y="487.5" type="line"/>
      <point x="102.2" y="507.5"/>
      <point x="141.4" y="521.8"/>
      <point x="174.3" y="521.8" type="curve" smooth="yes"/>
      <point x="227.4" y="521.8"/>
      <point x="252.2" y="490.1"/>
      <point x="252.2" y="434.7" type="curve" smooth="yes"/>
      <point x="252.2" y="0.0" type="line"/>
      <point x="272.2" y="0.0" type="line"/>
      <point x="272.2" y="434.7" type="line" smooth="yes"/>
      <point x="272.2" y="510.7"/>
      <point x="232.8" y="540.0"/>
      <point x="180.6" y="540.0" type="curve" smooth="yes"/>
      <point x="141.3" y="540.0"/>
      <point x="103.3" y="526.4"/>
      <point x="72.0" y="508.5" type="curve"/>
      <point x="72.0" y="530.0" type="line"/>
      <point x="52.0" y="530.0" type="line"/>
    </contour>
  </outline>
</glyph>
<glyph name="o" format="2">
  <advance width="318.2"/>
  <unicode hex="006F"/>
  <anchor x="191.1" y="0.0" name="ogonek"/>
  <anchor x="159.1" y="530.0" name="top"/>
  <anchor x="223.1" y="521.0" name="topright"/>
  <anchor x="159.1" y="0.0" name="bottom"/>
  <outline>
    <contour>
      <point x="33.5" y="265.2" type="curve" smooth="yes"/>
      <point x="33.5" y="48.0"/>
      <point x="70.4" y="-10.0"/>
      <point x="159.1" y="-10.0" type="curve" smooth="yes"/>
      <point x="247.8" y="-10.0"/>
      <point x="284.7" y="48.0"/>
      <point x="284.7" y="265.2" type="curve" smooth="yes"/>
      <point x="284.7" y="481.1"/>
      <point x="249.5" y="540.0"/>
      <point x="159.1" y="540.0" type="curve" smooth="yes"/>
      <point x="68.7" y="540.0"/>
      <point x="33.5" y="481.1"/>
    </contour>
    <contour>
      <point x="53.5" y="265.2" type="curve" smooth="yes"/>
      <point x="53.5" y="465.1"/>
      <point x="82.2" y="521.8"/>
      <point x="159.1" y="521.8" type="curve" smooth="yes"/>
      <point x="236.0" y="521.8"/>
      <point x="264.7" y="465.1"/>
      <point x="264.7" y="265.2" type="curve" smooth="yes"/>
      <point x="264.7" y="64.3"/>
      <point x="234.3" y="8.2"/>
      <point x="159.1" y="8.2" type="curve" smooth="yes"/>
      <point x="83.9" y="8.2"/>
      <point x="53.5" y="64.3"/>
    </contour>
  </outline>
</glyph>
<glyph name="p" format="2">
  <advance width="316.5"/>
  <unicode hex="0070"/>
  <outline>
    <contour>
      <point x="52.0" y="-210.0" type="line"/>
      <point x="72.0" y="-210.0" type="line"/>
      <point x="72.0" y="-0.09999999999999987" type="line"/>
      <point x="98.9" y="-7.3"/>
      <point x="120.4" y="-10.0"/>
      <point x="140.4" y="-10.0" type="curve" smooth="yes"/>
      <point x="241.9" y="-10.0"/>
      <point x="283.0" y="69.3"/>
      <point x="283.0" y="276.9" type="curve" smooth="yes"/>
      <point x="283.0" y="446.6"/>
      <point x="242.2" y="540.0"/>
      <point x="168.2" y="540.0" type="curve" smooth="yes"/>
      <point x="136.1" y="540.0"/>
      <point x="100.0" y="528.2"/>
      <point x="72.0" y="508.9" type="curve"/>
      <point x="72.0" y="539.0" type="line"/>
      <point x="52.0" y="539.0" type="line"/>
    </contour>
    <contour>
      <point x="135.9" y="7.2" type="curve" smooth="yes"/>
      <point x="118.3" y="7.2"/>
      <point x="101.7" y="9.9"/>
      <point x="72.0" y="17.2" type="curve"/>
      <point x="72.0" y="488.7" type="line"/>
      <point x="108.2" y="513.5"/>
      <point x="131.6" y="521.8"/>
      <point x="163.7" y="521.8" type="curve" smooth="yes"/>
      <point x="227.3" y="521.8"/>
      <point x="263.0" y="434.5"/>
      <point x="263.0" y="276.9" type="curve" smooth="yes"/>
      <point x="263.0" y="76.7"/>
      <point x="228.1" y="7.2"/>
    </contour>
  </outline>
</glyph>
<glyph name="q" format="2">
  <advance width="316.5"/>
  <unicode hex="0071"/>
  <outline>
    <contour>
      <point x="264.5" y="525.2" type="line"/>
      <point x="224.1" y="536.3"/>
      <point x="201.1" y="540.0"/>
      <point x="176.1" y="540.0" type="curve" smooth="yes"/>
      <point x="74.6" y="540.0"/>
      <point x="33.5" y="460.7"/>
      <point x="33.5" y="253.1" type="curve" smooth="yes"/>
      <point x="33.5" y="84.3"/>
      <point x="75.2" y="-10.0"/>
      <point x="148.3" y="-10.0" type="curve" smooth="yes"/>
      <point x="180.4" y="-10.0"/>
      <point x="216.5" y="1.8000000000000003"/>
      <point x="244.5" y="21.1" type="curve"/>
      <point x="244.5" y="-210.0" type="line"/>
      <point x="264.5" y="-210.0" type="line"/>
    </contour>
    <contour>
      <point x="244.5" y="511.9" type="curve"/>
      <point x="244.5" y="41.3" type="line"/>
      <point x="208.3" y="16.5"/>
      <point x="184.9" y="8.2"/>
      <point x="152.8" y="8.2" type="curve" smooth="yes"/>
      <point x="90.1" y="8.2"/>
      <point x="53.5" y="97.3"/>
      <point x="53.5" y="253.1" type="curve" smooth="yes"/>
      <point x="53.5" y="453.3"/>
      <point x="88.4" y="522.8"/>
      <point x="180.6" y="522.8" type="curve" smooth="yes"/>
      <point x="197.3" y="522.8"/>
      <point x="214.8" y="520.1"/>
    </contour>
  </outline>
</glyph>
<glyph name="r" format="2">
  <advance width="228.9"/>
  <unicode hex="0072"/>
  <anchor x="137.7" y="530.0" name="top"/>
  <anchor x="62.0" y="0.0" name="bottom"/>
  <outline>
    <contour>
      <point x="72.0" y="530.0" type="line"/>
      <point x="52.0" y="530.0" type="line"/>
      <point x="52.0" y="0.0" type="line"/>
      <point x="72.0" y="0.0" type="line"/>
      <point x="72.0" y="460.9" type="line"/>
      <point x="108.7" y="504.5"/>
      <point x="142.8" y="521.8"/>
      <point x="178.8" y="521.8" type="curve" smooth="yes"/>
      <point x="193.9" y="521.8"/>
      <point x="210.0" y="519.2"/>
      <point x="225.6" y="514.6" type="curve"/>
      <point x="230.5" y="531.9" type="line"/>
      <point x="214.8" y="537.3"/>
      <point x="196.7" y="540.0"/>
      <point x="178.4" y="540.0" type="curve" smooth="yes"/>
      <point x="139.5" y="540.0"/>
      <point x="101.1" y="521.2"/>
      <point x="72.0" y="488.1" type="curve"/>
    </contour>
  </outline>
</glyph>
<glyph name="s" format="2">
  <advance width="257.75"/>
  <unicode hex="0073"/>
  <anchor x="125.5" y="530.0" name="top"/>
  <anchor x="122.0" y="0.0" name="bottom"/>
  <outline>
    <contour>
      <point x="7.75" y="12.25" type="line"/>
      <point x="33.75" y="-2.5"/>
      <point x="75.5" y="-10.0"/>
      <point x="112.75" y="-10.0" type="curve" smooth="yes"/>
      <point x="188.0" y="-10.0"/>
      <point x="240.25" y="32.5"/>
      <point x="240.25" y="113.5" type="curve" smooth="yes"/>
      <point x="240.25" y="194.5"/>
      <point x="192.25" y="237.5"/>
      <point x="136.75" y="280.5" type="curve" smooth="yes"/>
      <point x="90.5" y="318.0"/>
      <point x="46.0" y="357.0"/>
      <point x="46.0" y="424.25" type="curve" smooth="yes"/>
      <point x="46.0" y="481.75"/>
      <point x="83.25" y="520.0"/>
      <point x="144.5" y="520.0" type="curve" smooth="yes"/>
      <point x="170.0" y="520.0"/>
      <point x="193.75" y="514.25"/>
      <point x="213.0" y="506.5" type="curve"/>
      <point x="220.75" y="524.5" type="line"/>
      <point x="199.75" y="534.25"/>
      <point x="172.25" y="540.0"/>
      <point x="144.5" y="540.0" type="curve" smooth="yes"/>
      <point x="68.25" y="540.0"/>
      <point x="26.0" y="492.0"/>
      <point x="26.0" y="424.25" type="curve" smooth="yes"/>
      <point x="26.0" y="349.25"/>
      <point x="73.5" y="304.5"/>
      <point x="125.0" y="264.0" type="curve" smooth="yes"/>
      <point x="179.5" y="223.25"/>
      <point x="220.25" y="183.5"/>
      <point x="220.25" y="113.5" type="curve" smooth="yes"/>
      <point x="220.25" y="46.5"/>
      <point x="175.75" y="10.0"/>
      <point x="112.75" y="10.0" type="curve" smooth="yes"/>
      <point x="79.5" y="10.0"/>
      <point x="41.75" y="16.75"/>
      <point x="17.25" y="29.5" type="curve"/>
    </contour>
  </outline>
</glyph>
<glyph name="t" format="2">
  <advance width="234.5"/>
  <unicode hex="0074"/>
  <anchor x="117.3" y="275.0" name="center"/>
  <anchor x="86.9" y="665.0" name="top"/>
  <anchor x="196.5" y="745.5" name="topright"/>
  <anchor x="146.6" y="0.0" name="bottom"/>
  <outline>
    <contour>
      <point x="171.6" y="-10.0" type="curve" smooth="yes"/>
      <point x="189.3" y="-10.0"/>
      <point x="210.9" y="-6.9"/>
      <point x="234.8" y="0.40000000000000036" type="curve"/>
      <point x="230.6" y="18.5" type="line"/>
      <point x="210.6" y="11.7"/>
      <point x="191.6" y="9.1"/>
      <point x="172.0" y="9.1" type="curve" smooth="yes"/>
      <point x="115.6" y="9.1"/>
      <point x="94.0" y="40.6"/>
      <point x="94.0" y="114.7" type="curve" smooth="yes"/>
      <point x="94.0" y="510.9" type="line"/>
      <point x="227.4" y="510.9" type="line"/>
      <point x="227.4" y="530.0" type="line"/>
      <point x="94.0" y="530.0" type="line"/>
      <point x="94.0" y="665.0" type="line"/>
      <point x="78.9" y="665.0" type="line"/>
      <point x="74.0" y="530.0" type="line"/>
      <point x="8.4" y="524.1" type="line"/>
      <point x="8.4" y="510.9" type="line"/>
      <point x="74.0" y="510.9" type="line"/>
      <point x="74.0" y="114.7" type="line" smooth="yes"/>
      <point x="74.0" y="42.8"/>
      <point x="92.3" y="-10.0"/>
    </contour>
  </outline>
</glyph>
<glyph name="u" format="2">
  <advance width="329.1"/>
  <unicode hex="0075"/>
  <anchor x="329.2" y="-1.0" name="ogonek"/>
  <anchor x="159.5" y="530.0" name="top"/>
  <anchor x="267.9" y="530.0" name="topright"/>
  <anchor x="165.0" y="0.0" name="bottom"/>
  <outline>
    <contour>
      <point x="142.0" y="-10.0" type="curve" smooth="yes"/>
      <point x="180.3" y="-10.0"/>
      <point x="217.6" y="3.6"/>
      <point x="250.8" y="23.4" type="curve"/>
      <point x="254.4" y="2.0"/>
      <point x="272.6" y="-10.0"/>
      <point x="293.0" y="-10.0" type="curve" smooth="yes"/>
      <point x="303.5" y="-10.0"/>
      <point x="314.9" y="-7.9"/>
      <point x="329.2" y="-1.0" type="curve"/>
      <point x="322.3" y="15.9" type="line"/>
      <point x="312.2" y="10.9"/>
      <point x="302.8" y="8.8"/>
      <point x="293.5" y="8.8" type="curve" smooth="yes"/>
      <point x="277.4" y="8.8"/>
      <point x="267.9" y="18.9"/>
      <point x="267.9" y="44.5" type="curve" smooth="yes"/>
      <point x="267.9" y="530.0" type="line"/>
      <point x="247.9" y="530.0" type="line"/>
      <point x="247.9" y="42.4" type="line"/>
      <point x="218.9" y="22.6"/>
      <point x="180.1" y="8.2"/>
      <point x="148.3" y="8.2" type="curve" smooth="yes"/>
      <point x="96.8" y="8.2"/>
      <point x="72.0" y="39.4"/>
      <point x="72.0" y="93.3" type="curve" smooth="yes"/>
      <point x="72.0" y="530.0" type="line"/>
      <point x="52.0" y="530.0" type="line"/>
      <point x="52.0" y="93.3" type="line" smooth="yes"/>
      <point x="52.0" y="19.3"/>
      <point x="90.9" y="-10.0"/>
    </contour>
  </outline>
</glyph>
<glyph name="v" format="2">
  <advance width="289.7"/>
  <unicode hex="0076"/>
  <outline>
    <contour>
      <point x="136.2" y="0.0" type="line"/>
      <point x="153.4" y="0.0" type="line"/>
      <point x="275.8" y="527.6" type="line"/>
      <point x="256.2" y="532.4" type="line"/>
      <point x="144.9" y="43.1" type="line"/>
      <point x="33.5" y="532.4" type="line"/>
      <point x="13.9" y="527.6" type="line"/>
    </contour>
  </outline>
</glyph>
<glyph name="w" format="2">
  <advance width="430.25"/>
  <unicode hex="0077"/>
  <anchor x="215.0" y="530.0" name="top"/>
  <anchor x="215.0" y="0.0" name="bottom"/>
  <outline>
    <contour>
      <point x="109.5" y="0.0" type="line"/>
      <point x="126.25" y="0.0" type="line"/>
      <point x="215.0" y="483.0" type="line"/>
      <point x="304.75" y="0.0" type="line"/>
      <point x="321.5" y="0.0" type="line"/>
      <point x="419.5" y="526.75" type="line"/>
      <point x="399.75" y="531.5" type="line"/>
      <point x="313.75" y="46.0" type="line"/>
      <point x="225.0" y="530.0" type="line"/>
      <point x="205.0" y="530.0" type="line"/>
      <point x="117.75" y="45.75" type="line"/>
      <point x="30.5" y="531.5" type="line"/>
      <point x="10.5" y="526.75" type="line"/>
    </contour>
  </outline>
</glyph>
<glyph name="x" format="2">
  <advance width="308.25"/>
  <unicode hex="0078"/>
  <outline>
    <contour>
      <point x="8.75" y="-4.5" type="line"/>
      <point x="27.0" y="-9.75" type="line"/>
      <point x="153.25" y="250.25" type="line"/>
      <point x="282.0" y="-9.75" type="line"/>
      <point x="300.5" y="-4.5" type="line"/>
      <point x="165.5" y="270.25" type="line"/>
      <point x="288.5" y="527.5" type="line"/>
      <point x="270.0" y="532.75" type="line"/>
      <point x="155.0" y="295.0" type="line"/>
      <point x="38.5" y="533.5" type="line"/>
      <point x="20.0" y="526.5" type="line"/>
      <point x="142.75" y="274.25" type="line"/>
    </contour>
  </outline>
</glyph>
<glyph name="y" format="2">
  <advance width="289.8"/>
  <unicode hex="0079"/>
  <anchor x="143.9" y="530.0" name="top"/>
  <anchor x="230.8" y="0.0" name="bottom"/>
  <outline>
    <contour>
      <point x="105.5" y="-207.7" type="line"/>
      <point x="126.2" y="-213.2" type="line"/>
      <point x="274.1" y="528.1" type="line"/>
      <point x="254.3" y="532.7" type="line"/>
      <point x="156.5" y="39.4" type="line"/>
      <point x="34.4" y="532.8" type="line"/>
      <point x="14.8" y="528.0" type="line"/>
      <point x="145.3" y="0.0" type="line"/>
      <point x="146.5" y="0.0" type="line"/>
    </contour>
  </outline>
</glyph>
<glyph name="z" format="2">
  <advance width="286.6"/>
  <unicode hex="007A"/>
  <anchor x="144.2" y="530.0" name="top"/>
  <outline>
    <contour>
      <point x="21.4" y="0.0" type="line"/>
      <point x="272.2" y="0.0" type="line"/>
      <point x="272.2" y="19.1" type="line"/>
      <point x="44.6" y="19.1" type="line"/>
      <point x="254.9" y="512.0" type="line"/>
      <point x="254.9" y="530.0" type="line"/>
      <point x="31.8" y="530.0" type="line"/>
      <point x="31.8" y="510.9" type="line"/>
      <point x="232.6" y="510.9" type="line"/>
      <point x="21.4" y="18.0" type="line"/>
    </contour>
  </outline>
</glyph>
<glyph name="braceleft" format="2">
  <advance width="221.2"/>
  <unicode hex="007B"/>
  <outline>
    <contour>
      <point x="82.1" y="-72.6" type="curve" smooth="yes"/>
      <point x="82.1" y="-145.3"/>
      <point x="105.1" y="-210.0"/>
      <point x="167.3" y="-210.0" type="curve" smooth="yes"/>
      <point x="189.5" y="-210.0" type="line"/>
      <point x="189.5" y="-190.0" type="line"/>
      <point x="167.3" y="-190.0" type="line" smooth="yes"/>
      <point x="119.3" y="-190.0"/>
      <point x="102.1" y="-135.3"/>
      <point x="102.1" y="-72.6" type="curve" smooth="yes"/>
      <point x="102.1" y="12.8"/>
      <point x="135.1" y="77.7"/>
      <point x="135.1" y="167.5" type="curve" smooth="yes"/>
      <point x="135.1" y="201.4"/>
      <point x="125.3" y="249.6"/>
      <point x="97.8" y="265.0" type="curve"/>
      <point x="125.2" y="285.3"/>
      <point x="135.1" y="328.4"/>
      <point x="135.1" y="362.3" type="curve" smooth="yes"/>
      <point x="135.1" y="446.2"/>
      <point x="102.1" y="510.6"/>
      <point x="102.1" y="602.4" type="curve" smooth="yes"/>
      <point x="102.1" y="665.1"/>
      <point x="119.3" y="720.0"/>
      <point x="167.3" y="720.0" type="curve" smooth="yes"/>
      <point x="189.5" y="720.0" type="line"/>
      <point x="189.5" y="740.0" type="line"/>
      <point x="167.3" y="740.0" type="line" smooth="yes"/>
      <point x="105.1" y="740.0"/>
      <point x="82.1" y="675.1"/>
      <point x="82.1" y="602.4" type="curve" smooth="yes"/>
      <point x="82.1" y="505.0"/>
      <point x="115.1" y="445.1"/>
      <point x="115.1" y="362.3" type="curve" smooth="yes"/>
      <point x="115.1" y="324.5"/>
      <point x="104.7" y="275.0"/>
      <point x="80.0" y="275.0" type="curve" smooth="yes"/>
      <point x="59.0" y="275.0" type="line"/>
      <point x="59.0" y="255.0" type="line"/>
      <point x="80.0" y="255.0" type="line" smooth="yes"/>
      <point x="104.7" y="255.0"/>
      <point x="115.1" y="206.2"/>
      <point x="115.1" y="167.5" type="curve" smooth="yes"/>
      <point x="115.1" y="82.2"/>
      <point x="82.1" y="18.3"/>
    </contour>
  </outline>
</glyph>
<glyph name="braceright" format="2">
  <advance width="221.2"/>
  <unicode hex="007D"/>
  <outline>
    <contour>
      <point x="31.7" y="-190.0" type="line"/>
      <point x="31.7" y="-210.0" type="line"/>
      <point x="54.8" y="-210.0" type="line" smooth="yes"/>
      <point x="117.0" y="-210.0"/>
      <point x="140.0" y="-145.3"/>
      <point x="140.0" y="-72.6" type="curve" smooth="yes"/>
      <point x="140.0" y="18.3"/>
      <point x="107.0" y="82.2"/>
      <point x="107.0" y="167.5" type="curve" smooth="yes"/>
      <point x="107.0" y="206.2"/>
      <point x="117.4" y="255.0"/>
      <point x="142.1" y="255.0" type="curve" smooth="yes"/>
      <point x="162.2" y="255.0" type="line"/>
      <point x="162.2" y="275.0" type="line"/>
      <point x="142.1" y="275.0" type="line" smooth="yes"/>
      <point x="116.5" y="275.0"/>
      <point x="107.0" y="324.5"/>
      <point x="107.0" y="362.3" type="curve" smooth="yes"/>
      <point x="107.0" y="445.1"/>
      <point x="140.0" y="505.0"/>
      <point x="140.0" y="602.4" type="curve" smooth="yes"/>
      <point x="140.0" y="675.1"/>
      <point x="117.0" y="740.0"/>
      <point x="54.8" y="740.0" type="curve" smooth="yes"/>
      <point x="31.7" y="740.0" type="line"/>
      <point x="31.7" y="720.0" type="line"/>
      <point x="54.8" y="720.0" type="line" smooth="yes"/>
      <point x="101.9" y="720.0"/>
      <point x="120.0" y="665.1"/>
      <point x="120.0" y="602.4" type="curve" smooth="yes"/>
      <point x="120.0" y="510.6"/>
      <point x="87.0" y="446.2"/>
      <point x="87.0" y="362.3" type="curve" smooth="yes"/>
      <point x="87.0" y="328.4"/>
      <point x="96.0" y="285.3"/>
      <point x="124.3" y="265.0" type="curve"/>
      <point x="95.9" y="249.6"/>
      <point x="87.0" y="201.4"/>
      <point x="87.0" y="167.5" type="curve" smooth="yes"/>
      <point x="87.0" y="77.7"/>
      <point x="120.0" y="12.8"/>
      <point x="120.0" y="-72.6" type="curve" smooth="yes"/>
      <point x="120.0" y="-135.3"/>
      <point x="101.9" y="-190.0"/>
      <point x="54.8" y="-190.0" type="curve" smooth="yes"/>
    </contour>
  </outline>
</glyph>
<glyph name="asciitilde" format="2">
  <advance width="389.0"/>
  <unicode hex="007E"/>
  <outline>
    <contour>
      <point x="332.9" y="253.0" type="curve"/>
      <point x="332.9" y="277.9" type="line"/>
      <point x="315.0" y="252.5"/>
      <point x="300.5" y="239.9"/>
      <point x="277.4" y="239.9" type="curve" smooth="yes"/>
      <point x="216.0" y="239.9"/>
      <point x="179.7" y="359.0"/>
      <point x="113.0" y="359.0" type="curve" smooth="yes"/>
      <point x="88.0" y="359.0"/>
      <point x="73.0" y="348.7"/>
      <point x="57.0" y="326.1" type="curve"/>
      <point x="57.0" y="301.1" type="line"/>
      <point x="74.5" y="326.3"/>
      <point x="89.2" y="339.0"/>
      <point x="112.3" y="339.0" type="curve" smooth="yes"/>
      <point x="168.3" y="339.0"/>
      <point x="205.5" y="219.9"/>
      <point x="276.7" y="219.9" type="curve" smooth="yes"/>
      <point x="302.6" y="219.9"/>
      <point x="317.0" y="230.4"/>
    </contour>
  </outline>
</glyph>
<glyph name="exclamdown" format="2">
  <advance width="136.2"/>
  <unicode hex="00A1"/>
  <outline>
    <contour>
      <point x="78.1" y="266.0" type="line"/>
      <point x="58.1" y="266.0" type="line"/>
      <point x="58.1" y="-210.0" type="line"/>
      <point x="78.1" y="-210.0" type="line"/>
    </contour>
    <contour>
      <point x="82.4" y="513.0" type="curve" smooth="yes"/>
      <point x="82.4" y="529.0"/>
      <point x="82.3" y="530.0"/>
      <point x="68.1" y="530.0" type="curve" smooth="yes"/>
      <point x="54.9" y="530.0"/>
      <point x="53.8" y="529.0"/>
      <point x="53.8" y="513.0" type="curve" smooth="yes"/>
      <point x="53.8" y="497.0"/>
      <point x="53.9" y="496.0"/>
      <point x="68.1" y="496.0" type="curve" smooth="yes"/>
      <point x="82.3" y="496.0"/>
      <point x="82.4" y="497.0"/>
    </contour>
  </outline>
</glyph>
<glyph name="cent" format="2">
  <advance width="328.4"/>
  <unicode hex="00A2"/>
  <outline>
    <contour>
      <point x="190.3" y="-10.0" type="curve" smooth="yes"/>
      <point x="211.5" y="-10.0"/>
      <point x="235.6" y="-6.7"/>
      <point x="258.6" y="-0.09999999999999964" type="curve"/>
      <point x="254.60000000000002" y="17.2" type="line"/>
      <point x="232.7" y="11.6"/>
      <point x="211.1" y="9.1"/>
      <point x="190.6" y="9.1" type="curve" smooth="yes"/>
      <point x="121.3" y="9.1"/>
      <point x="90.7" y="85.5"/>
      <point x="90.7" y="253.7" type="curve" smooth="yes"/>
      <point x="90.7" y="437.8"/>
      <point x="126.7" y="520.9"/>
      <point x="193.5" y="520.9" type="curve" smooth="yes"/>
      <point x="213.6" y="520.9"/>
      <point x="229.4" y="518.2"/>
      <point x="247.8" y="512.7" type="curve"/>
      <point x="252.7" y="530.0" type="line"/>
      <point x="232.2" y="537.1"/>
      <point x="212.8" y="540.0"/>
      <point x="193.5" y="540.0" type="curve" smooth="yes"/>
      <point x="109.3" y="540.0"/>
      <point x="70.7" y="446.2"/>
      <point x="70.7" y="253.7" type="curve" smooth="yes"/>
      <point x="70.7" y="74.1"/>
      <point x="106.1" y="-10.0"/>
    </contour>
    <contour>
      <point x="169.4" y="-105.0" type="line"/>
      <point x="189.4" y="-105.0" type="line"/>
      <point x="189.4" y="-4.9" type="line"/>
      <point x="169.4" y="-2.3" type="line"/>
    </contour>
    <contour>
      <point x="169.4" y="531.3" type="line"/>
      <point x="189.4" y="535.0" type="line"/>
      <point x="189.4" y="635.0" type="line"/>
      <point x="169.4" y="635.0" type="line"/>
    </contour>
  </outline>
</glyph>
<glyph name="sterling" format="2">
  <advance width="328.4"/>
  <unicode hex="00A3"/>
  <outline>
    <contour>
      <point x="57.3" y="0.0" type="line"/>
      <point x="294.1" y="0.0" type="line"/>
      <point x="294.1" y="20.0" type="line"/>
      <point x="78.5" y="20.0" type="line"/>
      <point x="125.4" y="100.5"/>
      <point x="151.9" y="151.7"/>
      <point x="151.9" y="240.6" type="curve" smooth="yes"/>
      <point x="151.9" y="346.3"/>
      <point x="90.7" y="408.5"/>
      <point x="90.7" y="526.6" type="curve" smooth="yes"/>
      <point x="90.7" y="645.5"/>
      <point x="140.8" y="690.0"/>
      <point x="204.9" y="690.0" type="curve" smooth="yes"/>
      <point x="226.8" y="690.0"/>
      <point x="252.0" y="685.4"/>
      <point x="273.2" y="678.6" type="curve"/>
      <point x="279.0" y="695.0" type="line"/>
      <point x="259.4" y="704.3"/>
      <point x="227.8" y="710.0"/>
      <point x="204.9" y="710.0" type="curve" smooth="yes"/>
      <point x="116.7" y="710.0"/>
      <point x="70.7" y="634.3"/>
      <point x="70.7" y="526.5" type="curve" smooth="yes"/>
      <point x="70.7" y="396.8"/>
      <point x="131.9" y="343.5"/>
      <point x="131.9" y="240.4" type="curve" smooth="yes"/>
      <point x="131.9" y="152.7"/>
      <point x="107.5" y="113.4"/>
      <point x="57.3" y="20.0" type="curve"/>
    </contour>
    <contour>
      <point x="37.5" y="366.0" type="line"/>
      <point x="247.0" y="366.0" type="line"/>
      <point x="247.0" y="386.0" type="line"/>
      <point x="37.5" y="386.0" type="line"/>
    </contour>
  </outline>
</glyph>
<glyph name="currency" format="2">
  <advance width="419.0"/>
  <unicode hex="00A4"/>
  <outline>
    <contour>
      <point x="34.0" y="451.0" type="line"/>
      <point x="108.0" y="376.0" type="line"/>
      <point x="89.0" y="353.0"/>
      <point x="77.0" y="323.0"/>
      <point x="77.0" y="289.0" type="curve" smooth="yes"/>
      <point x="77.0" y="255.0"/>
      <point x="89.0" y="225.0"/>
      <point x="109.0" y="202.0" type="curve"/>
      <point x="34.0" y="127.0" type="line"/>
      <point x="48.0" y="113.0" type="line"/>
      <point x="123.0" y="188.0" type="line"/>
      <point x="146.0" y="168.0"/>
      <point x="176.0" y="157.0"/>
      <point x="209.0" y="157.0" type="curve" smooth="yes"/>
      <point x="242.0" y="157.0"/>
      <point x="273.0" y="168.0"/>
      <point x="296.0" y="188.0" type="curve"/>
      <point x="371.0" y="113.0" type="line"/>
      <point x="385.0" y="127.0" type="line"/>
      <point x="310.0" y="202.0" type="line"/>
      <point x="330.0" y="225.0"/>
      <point x="342.0" y="255.0"/>
      <point x="342.0" y="289.0" type="curve" smooth="yes"/>
      <point x="342.0" y="323.0"/>
      <point x="330.0" y="353.0"/>
      <point x="310.0" y="376.0" type="curve"/>
      <point x="385.0" y="451.0" type="line"/>
      <point x="371.0" y="465.0" type="line"/>
      <point x="296.0" y="390.0" type="line"/>
      <point x="273.0" y="410.0"/>
      <point x="243.0" y="422.0"/>
      <point x="209.0" y="422.0" type="curve" smooth="yes"/>
      <point x="175.0" y="422.0"/>
      <point x="145.0" y="410.0"/>
      <point x="122.0" y="390.0" type="curve"/>
      <point x="48.0" y="465.0" type="line"/>
    </contour>
    <contour>
      <point x="209.0" y="177.0" type="curve" smooth="yes"/>
      <point x="147.0" y="177.0"/>
      <point x="97.0" y="227.0"/>
      <point x="97.0" y="289.0" type="curve" smooth="yes"/>
      <point x="97.0" y="352.0"/>
      <point x="147.0" y="402.0"/>
      <point x="209.0" y="402.0" type="curve" smooth="yes"/>
      <point x="272.0" y="402.0"/>
      <point x="322.0" y="352.0"/>
      <point x="322.0" y="289.0" type="curve" smooth="yes"/>
      <point x="322.0" y="227.0"/>
      <point x="272.0" y="177.0"/>
    </contour>
  </outline>
</glyph>
<glyph name="yen" format="2">
  <advance width="328.5"/>
  <unicode hex="00A5"/>
  <outline>
    <contour>
      <point x="57.5" y="366.0" type="line"/>
      <point x="157.75" y="366.0" type="line"/>
      <point x="157.75" y="224.75" type="line"/>
      <point x="57.5" y="224.75" type="line"/>
      <point x="57.5" y="204.75" type="line"/>
      <point x="157.75" y="204.75" type="line"/>
      <point x="157.75" y="0.0" type="line"/>
      <point x="177.75" y="0.0" type="line"/>
      <point x="177.75" y="204.75" type="line"/>
      <point x="278.0" y="204.75" type="line"/>
      <point x="278.0" y="224.75" type="line"/>
      <point x="177.75" y="224.75" type="line"/>
      <point x="177.75" y="366.0" type="line"/>
      <point x="278.0" y="366.0" type="line"/>
      <point x="278.0" y="386.0" type="line"/>
      <point x="177.75" y="386.0" type="line"/>
      <point x="284.25" y="696.5" type="line"/>
      <point x="265.25" y="703.5" type="line"/>
      <point x="167.75" y="415.0" type="line"/>
      <point x="63.25" y="703.5" type="line"/>
      <point x="44.25" y="696.5" type="line"/>
      <point x="157.75" y="386.0" type="line"/>
      <point x="57.5" y="386.0" type="line"/>
    </contour>
  </outline>
</glyph>
<glyph name="brokenbar" format="2">
  <advance width="127.6"/>
  <unicode hex="00A6"/>
  <outline>
    <contour>
      <point x="73.8" y="391.0" type="line"/>
      <point x="73.8" y="790.0" type="line"/>
      <point x="53.8" y="790.0" type="line"/>
      <point x="53.8" y="391.0" type="line"/>
    </contour>
    <contour>
      <point x="53.8" y="190.0" type="line"/>
      <point x="53.8" y="-210.0" type="line"/>
      <point x="73.8" y="-210.0" type="line"/>
      <point x="73.8" y="190.0" type="line"/>
    </contour>
  </outline>
</glyph>
<glyph name="section" format="2">
  <advance width="332.8"/>
  <unicode hex="00A7"/>
  <outline>
    <contour>
      <point x="130.0" y="-220.0" type="curve" smooth="yes"/>
      <point x="241.5" y="-220.0"/>
      <point x="313.0" y="-103.8"/>
      <point x="313.0" y="51.1" type="curve" smooth="yes"/>
      <point x="313.0" y="140.3"/>
      <point x="295.4" y="218.6"/>
      <point x="229.6" y="421.6" type="curve" smooth="yes"/>
      <point x="178.1" y="583.1"/>
      <point x="171.7" y="604.7"/>
      <point x="171.7" y="646.1" type="curve" smooth="yes"/>
      <point x="171.7" y="699.2"/>
      <point x="197.2" y="730.2"/>
      <point x="238.4" y="730.2" type="curve" smooth="yes"/>
      <point x="253.5" y="730.2"/>
      <point x="267.4" y="727.7"/>
      <point x="285.9" y="719.6" type="curve"/>
      <point x="293.7" y="734.9" type="line"/>
      <point x="270.6" y="745.3"/>
      <point x="247.3" y="749.1"/>
      <point x="223.8" y="749.1" type="curve" smooth="yes"/>
      <point x="107.1" y="749.1"/>
      <point x="36.5" y="650.9"/>
      <point x="35.5" y="484.8" type="curve" smooth="yes"/>
      <point x="35.5" y="393.0"/>
      <point x="55.0" y="304.3"/>
      <point x="115.8" y="125.5" type="curve" smooth="yes"/>
      <point x="163.0" y="-19.7"/>
      <point x="178.5" y="-72.5"/>
      <point x="178.6" y="-117.1" type="curve" smooth="yes"/>
      <point x="178.7" y="-170.3"/>
      <point x="153.6" y="-200.2"/>
      <point x="112.1" y="-200.2" type="curve" smooth="yes"/>
      <point x="85.9" y="-200.2"/>
      <point x="62.9" y="-190.3"/>
      <point x="31.6" y="-162.9" type="curve"/>
      <point x="19.8" y="-177.1" type="line"/>
      <point x="57.7" y="-209.6"/>
      <point x="85.2" y="-220.0"/>
    </contour>
    <contour>
      <point x="131.8" y="-206.4" type="curve" smooth="yes"/>
      <point x="112.7" y="-206.4"/>
      <point x="101.2" y="-204.3"/>
      <point x="91.8" y="-200.8" type="curve"/>
      <point x="107.6" y="-213.4" type="line"/>
      <point x="160.9" y="-213.0"/>
      <point x="196.7" y="-175.0"/>
      <point x="196.7" y="-118.0" type="curve" smooth="yes"/>
      <point x="196.7" y="-73.6"/>
      <point x="183.3" y="-19.9"/>
      <point x="133.5" y="132.0" type="curve" smooth="yes"/>
      <point x="70.2" y="325.9"/>
      <point x="54.6" y="393.4"/>
      <point x="54.6" y="484.8" type="curve" smooth="yes"/>
      <point x="54.6" y="633.6"/>
      <point x="119.8" y="732.8"/>
      <point x="213.9" y="732.8" type="curve" smooth="yes"/>
      <point x="219.2" y="732.8"/>
      <point x="223.7" y="732.7"/>
      <point x="231.1" y="731.6" type="curve"/>
      <point x="220.3" y="741.3" type="line"/>
      <point x="178.0" y="730.7"/>
      <point x="151.8" y="693.3"/>
      <point x="151.7" y="645.9" type="curve" smooth="yes"/>
      <point x="151.7" y="602.3"/>
      <point x="161.9" y="562.6"/>
      <point x="211.0" y="416.0" type="curve" smooth="yes"/>
      <point x="277.3" y="211.8"/>
      <point x="294.8" y="137.3"/>
      <point x="294.8" y="51.1" type="curve" smooth="yes"/>
      <point x="294.9" y="-96.4"/>
      <point x="232.4" y="-206.3"/>
    </contour>
  </outline>
</glyph>
<glyph name="copyright" format="2">
  <advance width="368.8"/>
  <unicode hex="00A9"/>
  <outline>
    <contour>
      <point x="184.4" y="7.3" type="curve" smooth="yes"/>
      <point x="103.2" y="7.3"/>
      <point x="54.3" y="85.9"/>
      <point x="54.3" y="350.0" type="curve" smooth="yes"/>
      <point x="54.3" y="615.0"/>
      <point x="103.2" y="692.7"/>
      <point x="184.4" y="692.7" type="curve" smooth="yes"/>
      <point x="265.6" y="692.7"/>
      <point x="314.5" y="615.0"/>
      <point x="314.5" y="350.0" type="curve" smooth="yes"/>
      <point x="314.5" y="85.9"/>
      <point x="265.6" y="7.3"/>
    </contour>
    <contour>
      <point x="184.4" y="710.0" type="curve" smooth="yes"/>
      <point x="89.6" y="710.0"/>
      <point x="37.0" y="631.0"/>
      <point x="37.0" y="350.0" type="curve" smooth="yes"/>
      <point x="37.0" y="69.9"/>
      <point x="89.6" y="-10.0"/>
      <point x="184.4" y="-10.0" type="curve" smooth="yes"/>
      <point x="279.2" y="-10.0"/>
      <point x="331.8" y="69.9"/>
      <point x="331.8" y="350.0" type="curve" smooth="yes"/>
      <point x="331.8" y="631.0"/>
      <point x="279.2" y="710.0"/>
    </contour>
    <contour>
      <point x="106.1" y="335.8" type="curve" smooth="yes"/>
      <point x="106.1" y="223.2"/>
      <point x="135.0" y="167.3"/>
      <point x="193.4" y="167.3" type="curve" smooth="yes"/>
      <point x="211.1" y="167.3"/>
      <point x="232.8" y="170.7"/>
      <point x="245.6" y="173.4" type="curve"/>
      <point x="241.4" y="191.6" type="line"/>
      <point x="231.2" y="188.8"/>
      <point x="209.0" y="186.4"/>
      <point x="193.4" y="186.4" type="curve" smooth="yes"/>
      <point x="144.5" y="186.4"/>
      <point x="126.1" y="245.1"/>
      <point x="126.1" y="335.8" type="curve" smooth="yes"/>
      <point x="126.1" y="454.6"/>
      <point x="150.6" y="498.0"/>
      <point x="198.4" y="498.0" type="curve" smooth="yes"/>
      <point x="211.7" y="498.0"/>
      <point x="222.9" y="497.5"/>
      <point x="236.2" y="493.4" type="curve"/>
      <point x="240.4" y="511.6" type="line"/>
      <point x="226.2" y="515.7"/>
      <point x="211.9" y="517.1"/>
      <point x="198.4" y="517.1" type="curve" smooth="yes"/>
      <point x="141.0" y="517.1"/>
      <point x="106.1" y="470.3"/>
    </contour>
  </outline>
</glyph>
<glyph name="ordfeminine" format="2">
  <advance width="222.6"/>
  <unicode hex="00AA"/>
  <outline>
    <contour>
      <point x="28.4" y="299.3" type="line"/>
      <point x="198.7" y="299.3" type="line"/>
      <point x="198.7" y="317.1" type="line"/>
      <point x="28.4" y="317.1" type="line"/>
    </contour>
    <component base="a.superior" xOffset="12.3"/>
  </outline>
</glyph>
<glyph name="logicalnot" format="2">
  <advance width="389.0"/>
  <unicode hex="00AC"/>
  <outline>
    <contour>
      <point x="45.0" y="384.0" type="line"/>
      <point x="324.9" y="384.0" type="line"/>
      <point x="324.9" y="177.0" type="line"/>
      <point x="344.9" y="177.0" type="line"/>
      <point x="344.9" y="404.0" type="line"/>
      <point x="45.0" y="404.0" type="line"/>
    </contour>
  </outline>
</glyph>
<glyph name="registered" format="2">
  <advance width="354.1"/>
  <unicode hex="00AE"/>
  <outline>
    <contour>
      <point x="177.5" y="208.1" type="curve" smooth="yes"/>
      <point x="267.4" y="208.1"/>
      <point x="317.1" y="284.0"/>
      <point x="317.1" y="550.1" type="curve" smooth="yes"/>
      <point x="317.1" y="817.1"/>
      <point x="267.4" y="892.1"/>
      <point x="177.5" y="892.1" type="curve" smooth="yes"/>
      <point x="87.6" y="892.1"/>
      <point x="37.0" y="817.1"/>
      <point x="37.0" y="550.1" type="curve" smooth="yes"/>
      <point x="37.0" y="284.0"/>
      <point x="87.6" y="208.1"/>
    </contour>
    <contour>
      <point x="177.5" y="224.4" type="curve" smooth="yes"/>
      <point x="100.2" y="224.4"/>
      <point x="54.2" y="299.0"/>
      <point x="54.2" y="550.1" type="curve" smooth="yes"/>
      <point x="54.2" y="802.1"/>
      <point x="100.2" y="875.8"/>
      <point x="177.5" y="875.8" type="curve" smooth="yes"/>
      <point x="254.8" y="875.8"/>
      <point x="300.8" y="802.1"/>
      <point x="300.8" y="550.1" type="curve" smooth="yes"/>
      <point x="300.8" y="299.0"/>
      <point x="254.8" y="224.4"/>
    </contour>
    <contour>
      <point x="253.2" y="400.6" type="curve" smooth="yes"/>
      <point x="256.2" y="400.6"/>
      <point x="257.3" y="400.6"/>
      <point x="262.1" y="401.5" type="curve"/>
      <point x="259.4" y="419.6" type="line"/>
      <point x="257.4" y="418.7"/>
      <point x="256.3" y="418.7"/>
      <point x="254.3" y="418.7" type="curve" smooth="yes"/>
      <point x="238.9" y="418.7"/>
      <point x="227.9" y="449.9"/>
      <point x="201.5" y="539.6" type="curve"/>
      <point x="233.3" y="554.5"/>
      <point x="240.5" y="588.1"/>
      <point x="240.5" y="631.4" type="curve" smooth="yes"/>
      <point x="240.5" y="692.2"/>
      <point x="219.8" y="715.5"/>
      <point x="168.5" y="715.5" type="curve" smooth="yes"/>
      <point x="152.7" y="715.5"/>
      <point x="137.0" y="713.7"/>
      <point x="116.9" y="709.8" type="curve"/>
      <point x="116.9" y="402.5" type="line"/>
      <point x="135.9" y="402.5" type="line"/>
      <point x="135.9" y="536.1" type="line"/>
      <point x="148.0" y="535.1"/>
      <point x="158.4" y="534.1"/>
      <point x="168.8" y="534.1" type="curve" smooth="yes"/>
      <point x="173.3" y="534.1"/>
      <point x="177.8" y="534.1"/>
      <point x="182.3" y="535.0" type="curve"/>
      <point x="215.1" y="420.2"/>
      <point x="228.2" y="400.6"/>
    </contour>
    <contour>
      <point x="165.2" y="552.2" type="curve" smooth="yes"/>
      <point x="155.7" y="552.2"/>
      <point x="146.2" y="552.3"/>
      <point x="135.9" y="553.3" type="curve"/>
      <point x="135.9" y="694.3" type="line"/>
      <point x="149.7" y="696.4"/>
      <point x="158.1" y="697.4"/>
      <point x="169.4" y="697.4" type="curve" smooth="yes"/>
      <point x="217.3" y="697.4"/>
      <point x="221.5" y="668.4"/>
      <point x="221.5" y="629.6" type="curve" smooth="yes"/>
      <point x="221.5" y="585.5"/>
      <point x="213.8" y="552.2"/>
    </contour>
  </outline>
</glyph>
<glyph name="degree" format="2">
  <advance width="223.0"/>
  <unicode hex="00B0"/>
  <outline>
    <contour>
      <point x="110.5" y="520.0" type="curve" smooth="yes"/>
      <point x="163.0" y="520.0"/>
      <point x="193.0" y="566.0"/>
      <point x="193.0" y="623.0" type="curve" smooth="yes"/>
      <point x="193.0" y="680.0"/>
      <point x="163.0" y="728.0"/>
      <point x="110.5" y="728.0" type="curve" smooth="yes"/>
      <point x="58.0" y="728.0"/>
      <point x="30.0" y="680.0"/>
      <point x="30.0" y="623.0" type="curve" smooth="yes"/>
      <point x="30.0" y="566.0"/>
      <point x="58.0" y="520.0"/>
    </contour>
    <contour>
      <point x="110.5" y="540.0" type="curve" smooth="yes"/>
      <point x="69.0" y="540.0"/>
      <point x="50.0" y="577.0"/>
      <point x="50.0" y="623.0" type="curve" smooth="yes"/>
      <point x="50.0" y="669.0"/>
      <point x="69.0" y="708.0"/>
      <point x="110.5" y="708.0" type="curve" smooth="yes"/>
      <point x="152.0" y="708.0"/>
      <point x="173.0" y="669.0"/>
      <point x="173.0" y="623.0" type="curve" smooth="yes"/>
      <point x="173.0" y="577.0"/>
      <point x="152.0" y="540.0"/>
    </contour>
  </outline>
</glyph>
<glyph name="plusminus" format="2">
  <advance width="417.8"/>
  <unicode hex="00B1"/>
  <outline>
    <contour>
      <point x="41.4" y="72.0" type="line"/>
      <point x="376.4" y="72.0" type="line"/>
      <point x="376.4" y="92.0" type="line"/>
      <point x="218.9" y="92.0" type="line"/>
      <point x="218.9" y="298.0" type="line"/>
      <point x="376.4" y="298.0" type="line"/>
      <point x="376.4" y="318.0" type="line"/>
      <point x="218.9" y="318.0" type="line"/>
      <point x="218.9" y="504.3" type="line"/>
      <point x="198.9" y="504.3" type="line"/>
      <point x="198.9" y="318.0" type="line"/>
      <point x="41.4" y="318.0" type="line"/>
      <point x="41.4" y="298.0" type="line"/>
      <point x="198.9" y="298.0" type="line"/>
      <point x="198.9" y="92.0" type="line"/>
      <point x="41.4" y="92.0" type="line"/>
    </contour>
  </outline>
</glyph>
<glyph name="uni00B2" format="2">
  <advance width="263.7"/>
  <unicode hex="00B2"/>
  <outline>
    <contour>
      <point x="56.6" y="370.0" type="line"/>
      <point x="214.5" y="370.0" type="line"/>
      <point x="214.5" y="386.0" type="line"/>
      <point x="75.2" y="386.0" type="line"/>
      <point x="160.2" y="534.4"/>
      <point x="188.6" y="611.7"/>
      <point x="188.6" y="673.1" type="curve" smooth="yes"/>
      <point x="188.6" y="737.6"/>
      <point x="163.7" y="775.4"/>
      <point x="119.1" y="775.4" type="curve" smooth="yes"/>
      <point x="95.1" y="775.4"/>
      <point x="71.8" y="768.5"/>
      <point x="52.2" y="744.6" type="curve"/>
      <point x="60.0" y="732.3" type="line"/>
      <point x="78.4" y="755.1"/>
      <point x="96.8" y="759.1"/>
      <point x="118.0" y="759.1" type="curve" smooth="yes"/>
      <point x="150.7" y="759.1"/>
      <point x="170.4" y="724.6"/>
      <point x="170.4" y="670.2" type="curve" smooth="yes"/>
      <point x="170.4" y="612.7"/>
      <point x="138.5" y="525.3"/>
      <point x="53.6" y="384.0" type="curve"/>
    </contour>
  </outline>
</glyph>
<glyph name="uni00B3" format="2">
  <advance width="258.5"/>
  <unicode hex="00B3"/>
  <outline>
    <contour>
      <point x="43.8" y="386.9" type="line"/>
      <point x="63.8" y="368.8"/>
      <point x="87.8" y="360.0"/>
      <point x="120.1" y="360.0" type="curve" smooth="yes"/>
      <point x="177.7" y="360.0"/>
      <point x="212.2" y="405.2"/>
      <point x="212.2" y="480.5" type="curve" smooth="yes"/>
      <point x="212.2" y="532.9"/>
      <point x="194.6" y="568.7"/>
      <point x="157.4" y="577.9" type="curve"/>
      <point x="185.5" y="589.3"/>
      <point x="199.8" y="624.2"/>
      <point x="199.8" y="668.9" type="curve" smooth="yes"/>
      <point x="199.8" y="733.0"/>
      <point x="168.6" y="773.8"/>
      <point x="118.8" y="773.8" type="curve" smooth="yes"/>
      <point x="92.2" y="773.8"/>
      <point x="69.8" y="765.9"/>
      <point x="55.3" y="753.4" type="curve"/>
      <point x="62.8" y="741.7" type="line"/>
      <point x="76.6" y="751.6"/>
      <point x="91.5" y="756.7"/>
      <point x="116.9" y="756.7" type="curve" smooth="yes"/>
      <point x="158.3" y="756.7"/>
      <point x="182.5" y="723.7"/>
      <point x="182.5" y="668.6" type="curve" smooth="yes"/>
      <point x="182.5" y="621.9"/>
      <point x="166.5" y="584.8"/>
      <point x="125.7" y="584.8" type="curve" smooth="yes"/>
      <point x="90.1" y="584.8" type="line"/>
      <point x="90.1" y="568.9" type="line"/>
      <point x="125.6" y="568.9" type="line" smooth="yes"/>
      <point x="176.1" y="568.9"/>
      <point x="193.1" y="535.1"/>
      <point x="193.1" y="480.5" type="curve" smooth="yes"/>
      <point x="193.1" y="415.2"/>
      <point x="165.6" y="376.9"/>
      <point x="119.2" y="376.9" type="curve" smooth="yes"/>
      <point x="89.8" y="376.9"/>
      <point x="71.2" y="383.9"/>
      <point x="53.4" y="399.3" type="curve"/>
    </contour>
  </outline>
</glyph>
<glyph name="uni00B5" format="2">
  <advance width="329.1"/>
  <unicode hex="00B5"/>
  <outline>
    <contour>
      <point x="52.0" y="-210.0" type="line"/>
      <point x="72.0" y="-210.0" type="line"/>
      <point x="72.0" y="25.0" type="line"/>
      <point x="87.7" y="-0.8999999999999999"/>
      <point x="112.5" y="-10.0"/>
      <point x="142.0" y="-10.0" type="curve" smooth="yes"/>
      <point x="180.3" y="-10.0"/>
      <point x="217.6" y="3.6"/>
      <point x="250.8" y="23.4" type="curve"/>
      <point x="254.4" y="2.0"/>
      <point x="272.6" y="-10.0"/>
      <point x="293.0" y="-10.0" type="curve" smooth="yes"/>
      <point x="303.5" y="-10.0"/>
      <point x="314.9" y="-7.9"/>
      <point x="329.2" y="-1.0" type="curve"/>
      <point x="322.3" y="15.9" type="line"/>
      <point x="312.2" y="10.9"/>
      <point x="302.8" y="8.8"/>
      <point x="293.5" y="8.8" type="curve" smooth="yes"/>
      <point x="277.4" y="8.8"/>
      <point x="267.9" y="18.9"/>
      <point x="267.9" y="44.5" type="curve" smooth="yes"/>
      <point x="267.9" y="530.0" type="line"/>
      <point x="247.9" y="530.0" type="line"/>
      <point x="247.9" y="42.4" type="line"/>
      <point x="218.9" y="22.6"/>
      <point x="180.1" y="8.2"/>
      <point x="148.3" y="8.2" type="curve" smooth="yes"/>
      <point x="96.8" y="8.2"/>
      <point x="72.0" y="39.4"/>
      <point x="72.0" y="93.3" type="curve" smooth="yes"/>
      <point x="72.0" y="530.0" type="line"/>
      <point x="52.0" y="530.0" type="line"/>
    </contour>
  </outline>
</glyph>
<glyph name="paragraph" format="2">
  <advance width="419.4"/>
  <unicode hex="00B6"/>
  <outline>
    <contour>
      <point x="346.9" y="-210.0" type="line"/>
      <point x="366.9" y="-210.0" type="line"/>
      <point x="366.9" y="740.0" type="line"/>
      <point x="346.9" y="740.0" type="line"/>
    </contour>
    <contour>
      <point x="173.7" y="196.1" type="line"/>
      <point x="80.5" y="215.3"/>
      <point x="40.9" y="313.2"/>
      <point x="40.9" y="456.4" type="curve" smooth="yes"/>
      <point x="40.9" y="605.0"/>
      <point x="95.5" y="717.0"/>
      <point x="222.1" y="721.8" type="curve"/>
      <point x="222.1" y="-210.0" type="line"/>
      <point x="242.1" y="-210.0" type="line"/>
      <point x="242.1" y="740.0" type="line"/>
      <point x="227.3" y="740.0" type="line" smooth="yes"/>
      <point x="83.5" y="740.0"/>
      <point x="20.9" y="614.4"/>
      <point x="20.9" y="456.4" type="curve" smooth="yes"/>
      <point x="20.9" y="304.8"/>
      <point x="66.5" y="198.2"/>
      <point x="172.6" y="176.1" type="curve"/>
    </contour>
  </outline>
</glyph>
<glyph name="periodcentered" format="2">
  <advance width="103.1"/>
  <unicode hex="00B7"/>
  <outline>
    <contour>
      <point x="37.3" y="287.0" type="curve" smooth="yes"/>
      <point x="37.3" y="271.0"/>
      <point x="38.4" y="270.0"/>
      <point x="51.6" y="270.0" type="curve" smooth="yes"/>
      <point x="65.8" y="270.0"/>
      <point x="65.9" y="271.0"/>
      <point x="65.9" y="287.0" type="curve" smooth="yes"/>
      <point x="65.9" y="303.0"/>
      <point x="65.8" y="304.0"/>
      <point x="51.6" y="304.0" type="curve" smooth="yes"/>
      <point x="37.4" y="304.0"/>
      <point x="37.3" y="303.0"/>
    </contour>
  </outline>
</glyph>
<glyph name="uni00B9" format="2">
  <advance width="243.8"/>
  <unicode hex="00B9"/>
  <outline>
    <contour>
      <point x="28.8" y="370.0" type="line"/>
      <point x="215.3" y="370.0" type="line"/>
      <point x="215.3" y="386.9" type="line"/>
      <point x="136.7" y="386.9" type="line"/>
      <point x="136.7" y="769.8" type="line"/>
      <point x="126.6" y="769.8" type="line"/>
      <point x="28.4" y="695.9" type="line"/>
      <point x="36.2" y="680.8" type="line"/>
      <point x="117.7" y="742.3" type="line"/>
      <point x="117.7" y="386.9" type="line"/>
      <point x="28.8" y="386.9" type="line"/>
    </contour>
  </outline>
</glyph>
<glyph name="ordmasculine" format="2">
  <advance width="246.6"/>
  <unicode hex="00BA"/>
  <outline>
    <contour>
      <point x="38.8" y="299.4" type="line"/>
      <point x="209.9" y="299.4" type="line"/>
      <point x="209.9" y="317.2" type="line"/>
      <point x="38.8" y="317.2" type="line"/>
    </contour>
    <component base="o.superior" xOffset="18.8"/>
  </outline>
</glyph>
<glyph name="questiondown" format="2">
  <advance width="277.5"/>
  <unicode hex="00BF"/>
  <outline>
    <contour>
      <point x="177.1" y="266.3" type="line"/>
      <point x="157.1" y="266.3" type="line"/>
      <point x="157.1" y="189.5" type="line"/>
      <point x="75.5" y="112.4"/>
      <point x="33.7" y="67.8"/>
      <point x="33.7" y="-44.7" type="curve" smooth="yes"/>
      <point x="33.7" y="-167.0"/>
      <point x="96.9" y="-220.0"/>
      <point x="162.8" y="-220.0" type="curve" smooth="yes"/>
      <point x="206.4" y="-220.0"/>
      <point x="249.4" y="-198.7"/>
      <point x="282.2" y="-164.3" type="curve"/>
      <point x="270.4" y="-150.8" type="line"/>
      <point x="235.1" y="-185.9"/>
      <point x="197.0" y="-200.9"/>
      <point x="162.8" y="-200.9" type="curve" smooth="yes"/>
      <point x="104.2" y="-200.9"/>
      <point x="54.6" y="-143.8"/>
      <point x="54.6" y="-46.5" type="curve" smooth="yes"/>
      <point x="54.6" y="45.4"/>
      <point x="84.4" y="102.3"/>
      <point x="177.1" y="179.8" type="curve"/>
    </contour>
    <contour>
      <point x="181.6" y="513.0" type="curve" smooth="yes"/>
      <point x="181.6" y="529.0"/>
      <point x="178.7" y="530.0"/>
      <point x="166.4" y="530.0" type="curve" smooth="yes"/>
      <point x="153.1" y="530.0"/>
      <point x="152.1" y="529.0"/>
      <point x="152.1" y="513.0" type="curve" smooth="yes"/>
      <point x="152.1" y="497.0"/>
      <point x="153.1" y="496.0"/>
      <point x="166.4" y="496.0" type="curve" smooth="yes"/>
      <point x="180.6" y="496.0"/>
      <point x="181.6" y="497.0"/>
    </contour>
  </outline>
</glyph>
<glyph name="AE" format="2">
  <advance width="547.6"/>
  <unicode hex="00C6"/>
  <anchor x="300.6" y="700.0" name="top"/>
  <outline>
    <contour>
      <point x="18.1" y="0.0" type="line"/>
      <point x="38.9" y="-0.9" type="line"/>
      <point x="158.8" y="325.3" type="line"/>
      <point x="290.0" y="325.3" type="line"/>
      <point x="290.0" y="0.0" type="line"/>
      <point x="532.4" y="0.0" type="line"/>
      <point x="532.4" y="20.0" type="line"/>
      <point x="310.0" y="20.0" type="line"/>
      <point x="310.0" y="324.4" type="line"/>
      <point x="503.8" y="324.4" type="line"/>
      <point x="503.8" y="344.4" type="line"/>
      <point x="310.0" y="344.4" type="line"/>
      <point x="310.0" y="680.0" type="line"/>
      <point x="520.5" y="680.0" type="line"/>
      <point x="520.5" y="700.0" type="line"/>
      <point x="277.0" y="700.0" type="line"/>
    </contour>
    <contour>
      <point x="165.4" y="344.4" type="line"/>
      <point x="290.0" y="680.7" type="line"/>
      <point x="290.0" y="344.4" type="line"/>
    </contour>
  </outline>
</glyph>
<glyph name="multiply" format="2">
  <advance width="371.0"/>
  <unicode hex="00D7"/>
  <outline>
    <contour>
      <point x="73.4" y="76.3" type="line"/>
      <point x="184.7" y="267.7" type="line"/>
      <point x="297.5" y="77.5" type="line"/>
      <point x="315.1" y="87.0" type="line"/>
      <point x="196.9" y="288.0" type="line"/>
      <point x="314.4" y="491.0" type="line"/>
      <point x="296.8" y="500.5" type="line"/>
      <point x="184.7" y="309.2" type="line"/>
      <point x="73.3" y="500.7" type="line"/>
      <point x="55.7" y="491.2" type="line"/>
      <point x="173.4" y="288.0" type="line"/>
      <point x="55.8" y="85.8" type="line"/>
    </contour>
  </outline>
</glyph>
<glyph name="Oslash" format="2">
  <advance width="395.0"/>
  <unicode hex="00D8"/>
  <anchor x="196.25" y="700.0" name="top"/>
  <outline>
    <contour>
      <point x="53.0" y="-10.0" type="line"/>
      <point x="84.5" y="59.75" type="line"/>
      <point x="88.25" y="67.25" type="line"/>
      <point x="317.5" y="609.75" type="line"/>
      <point x="321.25" y="618.0" type="line"/>
      <point x="361.5" y="710.0" type="line"/>
      <point x="340.75" y="710.0" type="line"/>
      <point x="309.75" y="640.25" type="line"/>
      <point x="305.75" y="632.5" type="line"/>
      <point x="76.75" y="90.5" type="line"/>
      <point x="73.75" y="85.25" type="line"/>
      <point x="32.5" y="-10.0" type="line"/>
    </contour>
    <contour>
      <point x="196.25" y="8.25" type="curve" smooth="yes"/>
      <point x="109.75" y="8.25"/>
      <point x="54.0" y="77.0"/>
      <point x="54.0" y="349.0" type="curve" smooth="yes"/>
      <point x="54.0" y="624.25"/>
      <point x="109.75" y="691.75"/>
      <point x="196.25" y="691.75" type="curve" smooth="yes"/>
      <point x="283.75" y="691.75"/>
      <point x="339.75" y="624.5"/>
      <point x="339.75" y="349.0" type="curve" smooth="yes"/>
      <point x="339.75" y="75.5"/>
      <point x="283.75" y="8.25"/>
    </contour>
    <contour>
      <point x="196.25" y="-10.0" type="curve" smooth="yes"/>
      <point x="298.25" y="-10.0"/>
      <point x="360.0" y="59.75"/>
      <point x="360.0" y="349.5" type="curve" smooth="yes"/>
      <point x="360.0" y="640.25"/>
      <point x="297.0" y="710.0"/>
      <point x="196.25" y="710.0" type="curve" smooth="yes"/>
      <point x="96.0" y="710.0"/>
      <point x="34.0" y="640.0"/>
      <point x="34.0" y="349.0" type="curve" smooth="yes"/>
      <point x="34.0" y="61.5"/>
      <point x="96.0" y="-10.0"/>
    </contour>
  </outline>
</glyph>
<glyph name="Thorn" format="2">
  <advance width="328.0"/>
  <unicode hex="00DE"/>
  <outline>
    <contour>
      <point x="52.9" y="0.0" type="line"/>
      <point x="72.9" y="0.0" type="line"/>
      <point x="72.9" y="185.2" type="line"/>
      <point x="98.1" y="183.9"/>
      <point x="120.1" y="183.8"/>
      <point x="147.1" y="183.8" type="curve" smooth="yes"/>
      <point x="254.4" y="183.8"/>
      <point x="305.8" y="244.7"/>
      <point x="305.8" y="403.8" type="curve" smooth="yes"/>
      <point x="305.8" y="555.6"/>
      <point x="270.4" y="604.7"/>
      <point x="147.3" y="604.7" type="curve" smooth="yes"/>
      <point x="128.5" y="604.7"/>
      <point x="107.7" y="603.6"/>
      <point x="72.9" y="601.0" type="curve"/>
      <point x="72.9" y="700.0" type="line"/>
      <point x="52.9" y="700.0" type="line"/>
    </contour>
    <contour>
      <point x="148.0" y="203.8" type="curve" smooth="yes"/>
      <point x="119.0" y="203.8"/>
      <point x="99.9" y="204.1"/>
      <point x="72.9" y="205.3" type="curve"/>
      <point x="72.9" y="581.9" type="line"/>
      <point x="107.9" y="585.4"/>
      <point x="129.0" y="586.5"/>
      <point x="148.2" y="586.5" type="curve" smooth="yes"/>
      <point x="260.1" y="586.5"/>
      <point x="285.8" y="534.7"/>
      <point x="285.8" y="401.1" type="curve" smooth="yes"/>
      <point x="285.8" y="258.1"/>
      <point x="244.2" y="203.8"/>
    </contour>
  </outline>
</glyph>
<glyph name="germandbls" format="2">
  <advance width="377.75"/>
  <unicode hex="00DF"/>
  <outline>
    <contour>
      <point x="82.25" y="0.0" type="line"/>
      <point x="102.25" y="0.0" type="line"/>
      <point x="102.25" y="539.75" type="line" smooth="yes"/>
      <point x="102.25" y="667.5"/>
      <point x="140.5" y="731.0"/>
      <point x="223.0" y="731.0" type="curve" smooth="yes"/>
      <point x="281.25" y="731.0"/>
      <point x="316.25" y="702.0"/>
      <point x="316.25" y="648.5" type="curve" smooth="yes"/>
      <point x="316.25" y="600.5"/>
      <point x="296.75" y="576.25"/>
      <point x="244.75" y="537.5" type="curve" smooth="yes"/>
      <point x="198.75" y="502.75"/>
      <point x="175.0" y="461.0"/>
      <point x="175.0" y="414.75" type="curve" smooth="yes"/>
      <point x="175.0" y="357.5"/>
      <point x="191.5" y="326.25"/>
      <point x="262.0" y="264.5" type="curve" smooth="yes"/>
      <point x="331.75" y="203.5"/>
      <point x="352.5" y="169.25"/>
      <point x="352.5" y="114.5" type="curve" smooth="yes"/>
      <point x="352.5" y="50.5"/>
      <point x="309.0" y="10.0"/>
      <point x="247.75" y="10.0" type="curve" smooth="yes"/>
      <point x="213.75" y="10.0"/>
      <point x="179.25" y="17.5"/>
      <point x="153.75" y="29.5" type="curve"/>
      <point x="144.25" y="12.25" type="line"/>
      <point x="171.5" y="-1.75"/>
      <point x="209.75" y="-10.0"/>
      <point x="247.75" y="-10.0" type="curve" smooth="yes"/>
      <point x="322.0" y="-10.0"/>
      <point x="372.5" y="37.5"/>
      <point x="372.5" y="114.5" type="curve" smooth="yes"/>
      <point x="372.5" y="174.75"/>
      <point x="348.0" y="216.5"/>
      <point x="277.25" y="278.25" type="curve" smooth="yes"/>
      <point x="210.25" y="337.25"/>
      <point x="195.0" y="364.0"/>
      <point x="195.0" y="414.75" type="curve" smooth="yes"/>
      <point x="195.0" y="457.75"/>
      <point x="216.5" y="493.0"/>
      <point x="258.75" y="525.25" type="curve" smooth="yes"/>
      <point x="311.0" y="563.75"/>
      <point x="336.25" y="597.25"/>
      <point x="336.25" y="648.5" type="curve" smooth="yes"/>
      <point x="336.25" y="713.75"/>
      <point x="293.0" y="750.0"/>
      <point x="223.25" y="750.0" type="curve" smooth="yes"/>
      <point x="127.75" y="750.0"/>
      <point x="82.5" y="684.5"/>
      <point x="82.25" y="551.5" type="curve" smooth="yes"/>
      <point x="82.25" y="484.75" type="line"/>
      <point x="14.5" y="478.75" type="line"/>
      <point x="14.5" y="464.75" type="line"/>
      <point x="82.25" y="464.75" type="line"/>
    </contour>
  </outline>
</glyph>
<glyph name="ae" format="2">
  <advance width="496.75"/>
  <unicode hex="00E6"/>
  <anchor x="251.0" y="530.0" name="top"/>
  <outline>
    <contour>
      <point x="111.25" y="-10.0" type="curve" smooth="yes"/>
      <point x="161.75" y="-10.0"/>
      <point x="207.75" y="21.5"/>
      <point x="247.25" y="71.5" type="curve"/>
      <point x="248.25" y="71.5" type="line"/>
      <point x="268.25" y="15.75"/>
      <point x="302.0" y="-10.0"/>
      <point x="357.5" y="-10.0" type="curve" smooth="yes"/>
      <point x="398.75" y="-10.0"/>
      <point x="431.5" y="-3.75"/>
      <point x="459.0" y="8.25" type="curve"/>
      <point x="454.25" y="26.5" type="line"/>
      <point x="426.25" y="15.75"/>
      <point x="394.25" y="9.25"/>
      <point x="358.5" y="9.25" type="curve" smooth="yes"/>
      <point x="280.75" y="9.25"/>
      <point x="246.75" y="65.75"/>
      <point x="246.75" y="263.0" type="curve" smooth="yes"/>
      <point x="246.75" y="269.25"/>
      <point x="246.75" y="277.0"/>
      <point x="247.0" y="282.75" type="curve"/>
      <point x="358.0" y="282.75"/>
      <point x="431.0" y="296.25"/>
      <point x="468.75" y="302.0" type="curve"/>
      <point x="468.75" y="305.5"/>
      <point x="469.75" y="309.75"/>
      <point x="469.75" y="324.5" type="curve" smooth="yes"/>
      <point x="469.75" y="469.0"/>
      <point x="429.25" y="540.0"/>
      <point x="353.0" y="540.0" type="curve" smooth="yes"/>
      <point x="299.25" y="540.0"/>
      <point x="258.25" y="501.75"/>
      <point x="242.5" y="426.0" type="curve"/>
      <point x="241.5" y="426.0" type="line"/>
      <point x="242.5" y="499.25"/>
      <point x="206.0" y="540.0"/>
      <point x="139.75" y="540.0" type="curve" smooth="yes"/>
      <point x="109.75" y="540.0"/>
      <point x="77.75" y="534.25"/>
      <point x="45.0" y="522.0" type="curve"/>
      <point x="51.5" y="504.5" type="line"/>
      <point x="82.25" y="515.5"/>
      <point x="111.75" y="520.0"/>
      <point x="140.0" y="520.0" type="curve" smooth="yes"/>
      <point x="198.25" y="520.0"/>
      <point x="227.75" y="484.5"/>
      <point x="227.75" y="414.25" type="curve" smooth="yes"/>
      <point x="227.75" y="295.5" type="line"/>
      <point x="80.0" y="256.75"/>
      <point x="16.0" y="210.75"/>
      <point x="16.0" y="107.5" type="curve" smooth="yes"/>
      <point x="16.0" y="32.5"/>
      <point x="52.25" y="-10.0"/>
    </contour>
    <contour>
      <point x="112.75" y="9.0" type="curve" smooth="yes"/>
      <point x="65.0" y="9.0"/>
      <point x="36.0" y="46.75"/>
      <point x="36.0" y="112.5" type="curve" smooth="yes"/>
      <point x="36.0" y="201.5"/>
      <point x="104.5" y="247.75"/>
      <point x="227.5" y="276.5" type="curve"/>
      <point x="227.5" y="267.5"/>
      <point x="227.5" y="259.0"/>
      <point x="227.5" y="250.0" type="curve" smooth="yes"/>
      <point x="227.5" y="182.25"/>
      <point x="233.75" y="129.75"/>
      <point x="241.25" y="92.25" type="curve"/>
      <point x="206.5" y="44.0"/>
      <point x="156.75" y="9.0"/>
    </contour>
    <contour>
      <point x="247.25" y="301.0" type="curve"/>
      <point x="247.25" y="460.25"/>
      <point x="290.25" y="521.75"/>
      <point x="351.75" y="521.75" type="curve" smooth="yes"/>
      <point x="416.75" y="521.75"/>
      <point x="449.75" y="454.0"/>
      <point x="449.75" y="318.25" type="curve"/>
      <point x="419.25" y="310.5"/>
      <point x="327.5" y="301.0"/>
    </contour>
  </outline>
</glyph>
<glyph name="eth" format="2">
  <advance width="314.75"/>
  <unicode hex="00F0"/>
  <outline>
    <contour>
      <point x="267.0" y="491.25" type="curve"/>
      <point x="268.75" y="511.25" type="line"/>
      <point x="248.0" y="530.0"/>
      <point x="219.0" y="537.75"/>
      <point x="184.75" y="537.75" type="curve" smooth="yes"/>
      <point x="79.75" y="537.75"/>
      <point x="33.5" y="454.75"/>
      <point x="33.5" y="256.5" type="curve" smooth="yes"/>
      <point x="33.5" y="62.0"/>
      <point x="69.5" y="-10.0"/>
      <point x="154.25" y="-10.0" type="curve" smooth="yes"/>
      <point x="248.25" y="-10.0"/>
      <point x="280.75" y="65.0"/>
      <point x="280.75" y="321.25" type="curve" smooth="yes"/>
      <point x="280.75" y="596.25"/>
      <point x="248.25" y="710.0"/>
      <point x="115.5" y="710.0" type="curve" smooth="yes"/>
      <point x="86.75" y="710.0"/>
      <point x="66.5" y="706.5"/>
      <point x="34.25" y="697.75" type="curve"/>
      <point x="39.75" y="680.5" type="line"/>
      <point x="66.75" y="688.0"/>
      <point x="85.75" y="692.0"/>
      <point x="113.5" y="692.0" type="curve" smooth="yes"/>
      <point x="223.5" y="692.0"/>
      <point x="261.5" y="602.5"/>
      <point x="261.5" y="319.25" type="curve" smooth="yes"/>
      <point x="261.5" y="83.5"/>
      <point x="234.25" y="8.25"/>
      <point x="155.0" y="8.25" type="curve" smooth="yes"/>
      <point x="82.5" y="8.25"/>
      <point x="53.5" y="76.0"/>
      <point x="53.5" y="256.75" type="curve" smooth="yes"/>
      <point x="53.5" y="444.75"/>
      <point x="97.5" y="519.75"/>
      <point x="184.25" y="519.75" type="curve" smooth="yes"/>
      <point x="214.75" y="519.75"/>
      <point x="242.25" y="514.5"/>
    </contour>
    <contour>
      <point x="90.25" y="569.0" type="line"/>
      <point x="212.5" y="655.75" type="line"/>
      <point x="216.25" y="657.0" type="line"/>
      <point x="299.75" y="716.5" type="line"/>
      <point x="271.75" y="716.5" type="line"/>
      <point x="206.75" y="670.75" type="line"/>
      <point x="203.0" y="669.0" type="line"/>
      <point x="61.5" y="569.0" type="line"/>
    </contour>
  </outline>
</glyph>
<glyph name="divide" format="2">
  <advance width="389.0"/>
  <unicode hex="00F7"/>
  <outline>
    <contour>
      <point x="180.2" y="88.9" type="curve" smooth="yes"/>
      <point x="180.2" y="72.9"/>
      <point x="180.4" y="71.9"/>
      <point x="194.5" y="71.9" type="curve" smooth="yes"/>
      <point x="208.7" y="71.9"/>
      <point x="208.8" y="72.9"/>
      <point x="208.8" y="88.9" type="curve" smooth="yes"/>
      <point x="208.8" y="104.9"/>
      <point x="207.8" y="105.9"/>
      <point x="194.5" y="105.9" type="curve" smooth="yes"/>
      <point x="180.3" y="105.9"/>
      <point x="180.2" y="104.9"/>
    </contour>
    <contour>
      <point x="180.2" y="489.1" type="curve" smooth="yes"/>
      <point x="180.2" y="473.1"/>
      <point x="181.3" y="472.1"/>
      <point x="194.5" y="472.1" type="curve" smooth="yes"/>
      <point x="208.7" y="472.1"/>
      <point x="208.8" y="473.1"/>
      <point x="208.8" y="489.1" type="curve" smooth="yes"/>
      <point x="208.8" y="505.1"/>
      <point x="208.7" y="506.1"/>
      <point x="194.5" y="506.1" type="curve" smooth="yes"/>
      <point x="180.3" y="506.1"/>
      <point x="180.2" y="505.1"/>
    </contour>
    <contour>
      <point x="41.4" y="279.0" type="line"/>
      <point x="347.6" y="279.0" type="line"/>
      <point x="347.6" y="299.0" type="line"/>
      <point x="41.4" y="299.0" type="line"/>
    </contour>
  </outline>
</glyph>
<glyph name="oslash" format="2">
  <advance width="318.25"/>
  <unicode hex="00F8"/>
  <anchor x="159.0" y="530.0" name="top"/>
  <outline>
    <contour>
      <point x="159.0" y="-10.0" type="curve" smooth="yes"/>
      <point x="70.5" y="-10.0"/>
      <point x="33.5" y="48.0"/>
      <point x="33.5" y="265.25" type="curve" smooth="yes"/>
      <point x="33.5" y="481.0"/>
      <point x="68.75" y="540.0"/>
      <point x="159.0" y="540.0" type="curve" smooth="yes"/>
      <point x="249.5" y="540.0"/>
      <point x="284.75" y="481.0"/>
      <point x="284.75" y="265.25" type="curve" smooth="yes"/>
      <point x="284.75" y="48.0"/>
      <point x="247.75" y="-10.0"/>
    </contour>
    <contour>
      <point x="159.0" y="8.25" type="curve" smooth="yes"/>
      <point x="234.25" y="8.25"/>
      <point x="264.75" y="64.25"/>
      <point x="264.75" y="265.25" type="curve" smooth="yes"/>
      <point x="264.75" y="465.0"/>
      <point x="236.0" y="521.75"/>
      <point x="159.0" y="521.75" type="curve" smooth="yes"/>
      <point x="82.25" y="521.75"/>
      <point x="53.5" y="465.0"/>
      <point x="53.5" y="265.25" type="curve" smooth="yes"/>
      <point x="53.5" y="64.25"/>
      <point x="84.0" y="8.25"/>
    </contour>
    <contour>
      <point x="31.75" y="-10.0" type="line"/>
      <point x="62.75" y="63.75" type="line"/>
      <point x="64.5" y="63.75" type="line"/>
      <point x="242.25" y="490.25" type="line"/>
      <point x="244.0" y="490.25" type="line"/>
      <point x="265.25" y="540.0" type="line"/>
      <point x="286.5" y="540.0" type="line"/>
      <point x="255.0" y="464.5" type="line"/>
      <point x="253.25" y="464.5" type="line"/>
      <point x="76.25" y="40.25" type="line"/>
      <point x="74.5" y="40.25" type="line"/>
      <point x="53.0" y="-10.0" type="line"/>
    </contour>
  </outline>
</glyph>
<glyph name="thorn" format="2">
  <advance width="316.5"/>
  <unicode hex="00FE"/>
  <outline>
    <contour>
      <point x="52.0" y="-210.0" type="line"/>
      <point x="72.0" y="-210.0" type="line"/>
      <point x="72.0" y="-0.19999999999999996" type="line"/>
      <point x="97.5" y="-7.3"/>
      <point x="120.1" y="-10.0"/>
      <point x="140.4" y="-10.0" type="curve" smooth="yes"/>
      <point x="242.9" y="-10.0"/>
      <point x="283.0" y="67.9"/>
      <point x="283.0" y="274.9" type="curve" smooth="yes"/>
      <point x="283.0" y="446.5"/>
      <point x="239.7" y="540.0"/>
      <point x="159.1" y="540.0" type="curve" smooth="yes"/>
      <point x="130.2" y="540.0"/>
      <point x="95.5" y="531.0"/>
      <point x="72.0" y="519.4" type="curve"/>
      <point x="72.0" y="740.0" type="line"/>
      <point x="52.0" y="740.0" type="line"/>
    </contour>
    <contour>
      <point x="135.9" y="7.2" type="curve" smooth="yes"/>
      <point x="118.3" y="7.2"/>
      <point x="101.7" y="9.9"/>
      <point x="72.0" y="17.2" type="curve"/>
      <point x="72.0" y="499.3" type="line"/>
      <point x="103.3" y="516.4"/>
      <point x="126.0" y="521.9"/>
      <point x="153.9" y="521.9" type="curve" smooth="yes"/>
      <point x="225.2" y="521.9"/>
      <point x="263.0" y="434.9"/>
      <point x="263.0" y="274.9" type="curve" smooth="yes"/>
      <point x="263.0" y="75.3"/>
      <point x="229.1" y="7.2"/>
    </contour>
  </outline>
</glyph>
<glyph name="Dcroat" format="2">
  <advance width="379.8"/>
  <unicode hex="0110"/>
  <outline>
    <contour>
      <point x="5.5" y="350.0" type="line"/>
      <point x="193.9" y="350.0" type="line"/>
      <point x="193.9" y="370.0" type="line"/>
      <point x="5.5" y="370.0" type="line"/>
    </contour>
    <component base="D" xOffset="6.3"/>
  </outline>
</glyph>
<glyph name="dcroat" format="2">
  <advance width="316.5"/>
  <unicode hex="0111"/>
  <outline>
    <contour>
      <point x="146.6" y="618.0" type="line"/>
      <point x="316.3" y="618.0" type="line"/>
      <point x="316.3" y="636.0" type="line"/>
      <point x="146.6" y="636.0" type="line"/>
    </contour>
    <component base="d"/>
  </outline>
</glyph>
<glyph name="Hbar" format="2">
  <advance width="396.1"/>
  <unicode hex="0126"/>
  <outline>
    <contour>
      <point x="15.9" y="501.8" type="line"/>
      <point x="52.9" y="501.8" type="line"/>
      <point x="52.9" y="0.0" type="line"/>
      <point x="72.9" y="0.0" type="line"/>
      <point x="72.9" y="290.9" type="line"/>
      <point x="323.2" y="290.9" type="line"/>
      <point x="323.2" y="0.0" type="line"/>
      <point x="343.2" y="0.0" type="line"/>
      <point x="343.2" y="501.8" type="line"/>
      <point x="380.2" y="501.8" type="line"/>
      <point x="380.2" y="519.1" type="line"/>
      <point x="343.2" y="519.1" type="line"/>
      <point x="343.2" y="700.0" type="line"/>
      <point x="323.2" y="700.0" type="line"/>
      <point x="323.2" y="519.1" type="line"/>
      <point x="72.9" y="519.1" type="line"/>
      <point x="72.9" y="700.0" type="line"/>
      <point x="52.9" y="700.0" type="line"/>
      <point x="52.9" y="519.1" type="line"/>
      <point x="15.9" y="519.1" type="line"/>
    </contour>
    <contour>
      <point x="72.9" y="310.0" type="line"/>
      <point x="72.9" y="501.8" type="line"/>
      <point x="323.2" y="501.8" type="line"/>
      <point x="323.2" y="310.0" type="line"/>
    </contour>
  </outline>
</glyph>
<glyph name="Idotaccent" format="2">
  <advance width="125.8"/>
  <unicode hex="0130"/>
  <outline>
    <contour>
      <point x="62.9" y="810.0" type="curve" smooth="yes"/>
      <point x="77.1" y="810.0"/>
      <point x="77.2" y="811.0"/>
      <point x="77.2" y="827.0" type="curve" smooth="yes"/>
      <point x="77.2" y="843.0"/>
      <point x="77.1" y="844.0"/>
      <point x="62.9" y="844.0" type="curve" smooth="yes"/>
      <point x="48.7" y="844.0"/>
      <point x="48.6" y="843.0"/>
      <point x="48.6" y="827.0" type="curve" smooth="yes"/>
      <point x="48.6" y="811.0"/>
      <point x="49.7" y="810.0"/>
    </contour>
    <component base="I"/>
  </outline>
</glyph>
<glyph name="dotlessi" format="2">
  <advance width="124.0"/>
  <unicode hex="0131"/>
  <anchor x="71.9" y="0.0" name="ogonek"/>
  <anchor x="62.0" y="0.0" name="bottom"/>
  <anchor x="62.0" y="530.0" name="top"/>
  <outline>
    <contour>
      <point x="52.0" y="0.0" type="line"/>
      <point x="72.0" y="0.0" type="line"/>
      <point x="72.0" y="530.0" type="line"/>
      <point x="52.0" y="530.0" type="line"/>
    </contour>
  </outline>
</glyph>
<glyph name="kgreenlandic" format="2">
  <advance width="296.25"/>
  <unicode hex="0138"/>
  <anchor x="155.5" y="530.0" name="top"/>
  <anchor x="155.5" y="0.0" name="bottom"/>
  <outline>
    <contour>
      <point x="291.5" y="-6.5" type="curve" smooth="yes"/>
      <point x="297.25" y="-6.5"/>
      <point x="303.25" y="-4.5"/>
      <point x="307.5" y="-2.75" type="curve"/>
      <point x="305.25" y="16.5" type="line"/>
      <point x="301.0" y="15.5"/>
      <point x="296.0" y="14.5"/>
      <point x="292.25" y="14.5" type="curve" smooth="yes"/>
      <point x="274.0" y="14.5"/>
      <point x="263.25" y="23.0"/>
      <point x="193.25" y="136.75" type="curve" smooth="yes"/>
      <point x="72.0" y="333.25" type="line"/>
      <point x="72.0" y="530.0" type="line"/>
      <point x="52.0" y="530.0" type="line"/>
      <point x="52.0" y="0.0" type="line"/>
      <point x="72.0" y="0.0" type="line"/>
      <point x="72.0" y="295.25" type="line"/>
      <point x="180.5" y="122.0" type="line" smooth="yes"/>
      <point x="256.25" y="2.0"/>
      <point x="265.25" y="-6.5"/>
    </contour>
    <contour>
      <point x="119.0" y="238.75" type="line"/>
      <point x="173.0" y="310.0"/>
      <point x="245.75" y="402.25"/>
      <point x="274.25" y="530.5" type="curve"/>
      <point x="256.5" y="538.0" type="line"/>
      <point x="227.25" y="404.0"/>
      <point x="158.5" y="323.5"/>
      <point x="108.5" y="257.25" type="curve"/>
    </contour>
  </outline>
</glyph>
<glyph name="Ldot" format="2">
  <advance width="274.1"/>
  <unicode hex="013F"/>
  <outline>
    <contour>
      <point x="185.8" y="358.2" type="curve" smooth="yes"/>
      <point x="185.8" y="342.2"/>
      <point x="186.9" y="341.2"/>
      <point x="200.1" y="341.2" type="curve" smooth="yes"/>
      <point x="214.3" y="341.2"/>
      <point x="214.4" y="342.2"/>
      <point x="214.4" y="358.2" type="curve" smooth="yes"/>
      <point x="214.4" y="374.2"/>
      <point x="214.3" y="375.2"/>
      <point x="200.1" y="375.2" type="curve" smooth="yes"/>
      <point x="185.9" y="375.2"/>
      <point x="185.8" y="374.2"/>
    </contour>
    <component base="L"/>
  </outline>
</glyph>
<glyph name="ldot" format="2">
  <advance width="155.6"/>
  <unicode hex="0140"/>
  <outline>
    <contour>
      <point x="139.3" y="339.9" type="curve" smooth="yes"/>
      <point x="153.5" y="339.9"/>
      <point x="153.6" y="340.9"/>
      <point x="153.6" y="356.9" type="curve" smooth="yes"/>
      <point x="153.6" y="372.9"/>
      <point x="153.5" y="373.9"/>
      <point x="139.3" y="373.9" type="curve" smooth="yes"/>
      <point x="125.1" y="373.9"/>
      <point x="125.0" y="372.9"/>
      <point x="125.0" y="356.9" type="curve" smooth="yes"/>
      <point x="125.0" y="340.9"/>
      <point x="126.1" y="339.9"/>
    </contour>
    <component base="l"/>
  </outline>
</glyph>
<glyph name="Lslash" format="2">
  <advance width="295.7"/>
  <unicode hex="0141"/>
  <outline>
    <contour>
      <point x="24.2" y="210.3" type="line"/>
      <point x="74.5" y="256.6" type="line"/>
      <point x="74.5" y="0.0" type="line"/>
      <point x="289.2" y="0.0" type="line"/>
      <point x="289.2" y="19.1" type="line"/>
      <point x="94.5" y="19.1" type="line"/>
      <point x="94.5" y="273.9" type="line"/>
      <point x="237.7" y="403.3" type="line"/>
      <point x="237.7" y="429.1" type="line"/>
      <point x="94.5" y="300.6" type="line"/>
      <point x="94.5" y="700.0" type="line"/>
      <point x="74.5" y="700.0" type="line"/>
      <point x="74.5" y="283.3" type="line"/>
      <point x="24.2" y="237.0" type="line"/>
    </contour>
  </outline>
</glyph>
<glyph name="lslash" format="2">
  <advance width="155.6"/>
  <unicode hex="0142"/>
  <outline>
    <contour>
      <point x="115.2" y="-10.0" type="curve" smooth="yes"/>
      <point x="127.2" y="-10.0"/>
      <point x="141.7" y="-7.4"/>
      <point x="155.4" y="-2.2" type="curve"/>
      <point x="151.4" y="16.9" type="line"/>
      <point x="135.0" y="11.7"/>
      <point x="124.1" y="10.0"/>
      <point x="115.2" y="10.0" type="curve" smooth="yes"/>
      <point x="89.0" y="10.0"/>
      <point x="72.0" y="23.6"/>
      <point x="72.0" y="119.6" type="curve" smooth="yes"/>
      <point x="72.0" y="271.7" type="line"/>
      <point x="150.0" y="348.8" type="line"/>
      <point x="150.0" y="375.0" type="line"/>
      <point x="72.0" y="297.9" type="line"/>
      <point x="72.0" y="740.0" type="line"/>
      <point x="52.0" y="740.0" type="line"/>
      <point x="52.0" y="277.0" type="line"/>
      <point x="3.8000000000000003" y="229.8" type="line"/>
      <point x="3.8000000000000003" y="204.5" type="line"/>
      <point x="52.0" y="250.8" type="line"/>
      <point x="52.0" y="119.6" type="line" smooth="yes"/>
      <point x="52.0" y="7.6"/>
      <point x="74.5" y="-10.0"/>
    </contour>
  </outline>
</glyph>
<glyph name="Eng" format="2">
  <advance width="391.75"/>
  <unicode hex="014A"/>
  <outline>
    <contour>
      <point x="53.0" y="0.0" type="line"/>
      <point x="73.0" y="0.0" type="line"/>
      <point x="73.0" y="638.25" type="line"/>
      <point x="318.75" y="5.5" type="line"/>
      <point x="318.75" y="-13.0" type="line" smooth="yes"/>
      <point x="318.25" y="-89.75"/>
      <point x="281.75" y="-118.0"/>
      <point x="214.0" y="-118.0" type="curve" smooth="yes"/>
      <point x="204.75" y="-118.0"/>
      <point x="193.25" y="-116.75"/>
      <point x="185.25" y="-115.5" type="curve"/>
      <point x="184.75" y="-134.5" type="line"/>
      <point x="192.75" y="-136.0"/>
      <point x="204.5" y="-137.25"/>
      <point x="214.0" y="-137.25" type="curve" smooth="yes"/>
      <point x="311.75" y="-137.25"/>
      <point x="338.75" y="-84.0"/>
      <point x="338.75" y="-10.0" type="curve" smooth="yes"/>
      <point x="338.75" y="700.0" type="line"/>
      <point x="318.75" y="700.0" type="line"/>
      <point x="318.75" y="64.75" type="line"/>
      <point x="71.5" y="701.0" type="line"/>
      <point x="53.0" y="701.0" type="line"/>
    </contour>
  </outline>
</glyph>
<glyph name="eng" format="2">
  <advance width="324.2"/>
  <unicode hex="014B"/>
  <outline>
    <contour>
      <point x="272.2" y="13.0" type="curve"/>
      <point x="272.2" y="434.7" type="line" smooth="yes"/>
      <point x="272.2" y="510.7"/>
      <point x="232.8" y="540.0"/>
      <point x="180.6" y="540.0" type="curve" smooth="yes"/>
      <point x="141.3" y="540.0"/>
      <point x="103.3" y="526.4"/>
      <point x="72.0" y="508.5" type="curve"/>
      <point x="72.0" y="530.0" type="line"/>
      <point x="52.0" y="530.0" type="line"/>
      <point x="52.0" y="0.0" type="line"/>
      <point x="72.0" y="0.0" type="line"/>
      <point x="72.0" y="487.5" type="line"/>
      <point x="102.2" y="507.5"/>
      <point x="141.4" y="521.8"/>
      <point x="174.3" y="521.8" type="curve" smooth="yes"/>
      <point x="227.4" y="521.8"/>
      <point x="252.2" y="490.1"/>
      <point x="252.2" y="434.7" type="curve" smooth="yes"/>
      <point x="252.2" y="12.6" type="line" smooth="yes"/>
      <point x="252.2" y="-83.9"/>
      <point x="232.3" y="-147.3"/>
      <point x="196.5" y="-179.3" type="curve" smooth="yes"/>
      <point x="191.0" y="-184.4"/>
      <point x="185.5" y="-188.5"/>
      <point x="179.0" y="-191.6" type="curve"/>
      <point x="188.1" y="-208.7" type="line"/>
      <point x="196.5" y="-203.8"/>
      <point x="204.0" y="-197.8"/>
      <point x="211.3" y="-191.8" type="curve" smooth="yes"/>
      <point x="251.2" y="-155.0"/>
      <point x="272.2" y="-90.0"/>
    </contour>
  </outline>
</glyph>
<glyph name="OE" format="2">
  <advance width="558.2"/>
  <unicode hex="0152"/>
  <outline>
    <contour>
      <point x="543.0" y="0.0" type="line"/>
      <point x="543.0" y="20.0" type="line"/>
      <point x="320.6" y="20.0" type="line"/>
      <point x="320.6" y="355.0" type="line"/>
      <point x="514.4" y="355.0" type="line"/>
      <point x="514.4" y="375.0" type="line"/>
      <point x="320.6" y="375.0" type="line"/>
      <point x="320.6" y="680.0" type="line"/>
      <point x="531.1" y="680.0" type="line"/>
      <point x="531.1" y="700.0" type="line"/>
      <point x="320.6" y="700.0" type="line"/>
      <point x="288.7" y="703.1"/>
      <point x="251.3" y="704.6"/>
      <point x="217.6" y="704.6" type="curve" smooth="yes"/>
      <point x="112.4" y="704.6"/>
      <point x="34.4" y="657.7"/>
      <point x="34.4" y="350.6" type="curve" smooth="yes"/>
      <point x="34.4" y="61.9"/>
      <point x="108.30000000000001" y="-6.4"/>
      <point x="217.1" y="-6.4" type="curve" smooth="yes"/>
      <point x="248.6" y="-6.4"/>
      <point x="281.9" y="-4.0"/>
      <point x="320.6" y="0.0" type="curve"/>
    </contour>
    <contour>
      <point x="300.6" y="16.4" type="line"/>
      <point x="280.1" y="14.4"/>
      <point x="250.5" y="12.7"/>
      <point x="227.0" y="12.7" type="curve" smooth="yes"/>
      <point x="123.3" y="12.7"/>
      <point x="55.4" y="61.4"/>
      <point x="55.4" y="350.5" type="curve" smooth="yes"/>
      <point x="55.4" y="641.5"/>
      <point x="125.5" y="686.4"/>
      <point x="229.4" y="686.4" type="curve" smooth="yes"/>
      <point x="245.1" y="686.4"/>
      <point x="283.9" y="684.5"/>
      <point x="300.6" y="682.7" type="curve"/>
    </contour>
  </outline>
</glyph>
<glyph name="oe" format="2">
  <advance width="540.0"/>
  <unicode hex="0153"/>
  <outline>
    <contour>
      <point x="33.5" y="265.25" type="curve" smooth="yes"/>
      <point x="33.5" y="48.0"/>
      <point x="70.5" y="-10.0"/>
      <point x="159.25" y="-10.0" type="curve" smooth="yes"/>
      <point x="232.5" y="-10.0"/>
      <point x="259.5" y="29.75"/>
      <point x="274.75" y="120.5" type="curve"/>
      <point x="289.75" y="31.25"/>
      <point x="328.0" y="-10.0"/>
      <point x="398.0" y="-10.0" type="curve" smooth="yes"/>
      <point x="431.75" y="-10.0"/>
      <point x="473.0" y="-2.5"/>
      <point x="502.25" y="8.5" type="curve"/>
      <point x="497.5" y="26.75" type="line"/>
      <point x="466.5" y="15.5"/>
      <point x="431.0" y="9.0"/>
      <point x="396.75" y="9.0" type="curve" smooth="yes"/>
      <point x="330.25" y="9.0"/>
      <point x="284.75" y="59.5"/>
      <point x="284.75" y="236.5" type="curve" smooth="yes"/>
      <point x="284.75" y="252.5"/>
      <point x="284.75" y="270.5"/>
      <point x="285.0" y="287.0" type="curve"/>
      <point x="396.0" y="287.0"/>
      <point x="474.0" y="297.0"/>
      <point x="512.0" y="302.5" type="curve"/>
      <point x="512.0" y="306.0"/>
      <point x="513.0" y="310.0"/>
      <point x="513.0" y="325.0" type="curve" smooth="yes"/>
      <point x="513.0" y="479.0"/>
      <point x="468.0" y="540.0"/>
      <point x="395.0" y="540.0" type="curve" smooth="yes"/>
      <point x="329.5" y="540.0"/>
      <point x="295.75" y="499.0"/>
      <point x="277.25" y="406.25" type="curve"/>
      <point x="261.75" y="498.25"/>
      <point x="234.75" y="540.0"/>
      <point x="159.25" y="540.0" type="curve" smooth="yes"/>
      <point x="68.75" y="540.0"/>
      <point x="33.5" y="481.0"/>
    </contour>
    <contour>
      <point x="53.5" y="265.25" type="curve" smooth="yes"/>
      <point x="53.5" y="465.0"/>
      <point x="82.25" y="521.75"/>
      <point x="159.25" y="521.75" type="curve" smooth="yes"/>
      <point x="236.0" y="521.75"/>
      <point x="264.75" y="465.0"/>
      <point x="264.75" y="265.25" type="curve" smooth="yes"/>
      <point x="264.75" y="64.25"/>
      <point x="234.5" y="8.25"/>
      <point x="159.25" y="8.25" type="curve" smooth="yes"/>
      <point x="84.0" y="8.25"/>
      <point x="53.5" y="64.25"/>
    </contour>
    <contour>
      <point x="285.25" y="305.0" type="curve"/>
      <point x="294.75" y="482.5"/>
      <point x="338.5" y="521.75"/>
      <point x="395.0" y="521.75" type="curve" smooth="yes"/>
      <point x="455.75" y="521.75"/>
      <point x="493.0" y="468.25"/>
      <point x="493.0" y="318.75" type="curve"/>
      <point x="468.25" y="313.0"/>
      <point x="374.75" y="305.0"/>
    </contour>
  </outline>
</glyph>
<glyph name="uni0162" format="2">
  <advance width="294.2"/>
  <unicode hex="0162"/>
  <outline>
    <contour>
      <point x="97.9" y="-191.8" type="curve"/>
      <point x="90.8" y="-207.1" type="line"/>
      <point x="109.0" y="-217.0"/>
      <point x="127.2" y="-220.0"/>
      <point x="140.7" y="-220.0" type="curve" smooth="yes"/>
      <point x="180.1" y="-220.0"/>
      <point x="196.3" y="-183.7"/>
      <point x="196.3" y="-143.0" type="curve" smooth="yes"/>
      <point x="196.3" y="-99.9"/>
      <point x="175.1" y="-43.9"/>
      <point x="156.9" y="0.5" type="curve"/>
      <point x="137.1" y="0.0" type="line"/>
      <point x="159.6" y="-55.2"/>
      <point x="178.1" y="-104.3"/>
      <point x="178.1" y="-143.0" type="curve" smooth="yes"/>
      <point x="178.1" y="-180.7"/>
      <point x="163.4" y="-202.7"/>
      <point x="137.1" y="-202.7" type="curve" smooth="yes"/>
      <point x="124.7" y="-202.7"/>
      <point x="111.3" y="-198.8"/>
    </contour>
    <component base="T"/>
  </outline>
</glyph>
<glyph name="Tbar" format="2">
  <advance width="294.2"/>
  <unicode hex="0166"/>
  <outline>
    <contour>
      <point x="36.6" y="370.0" type="line"/>
      <point x="137.1" y="370.0" type="line"/>
      <point x="137.1" y="0.0" type="line"/>
      <point x="157.1" y="0.0" type="line"/>
      <point x="157.1" y="370.0" type="line"/>
      <point x="257.6" y="370.0" type="line"/>
      <point x="257.6" y="390.0" type="line"/>
      <point x="157.1" y="390.0" type="line"/>
      <point x="157.1" y="681.1" type="line"/>
      <point x="289.1" y="681.1" type="line"/>
      <point x="289.1" y="700.0" type="line"/>
      <point x="5.1" y="700.0" type="line"/>
      <point x="5.1" y="681.1" type="line"/>
      <point x="137.1" y="681.1" type="line"/>
      <point x="137.1" y="390.0" type="line"/>
      <point x="36.6" y="390.0" type="line"/>
    </contour>
  </outline>
</glyph>
<glyph name="uogonek" format="2">
  <advance width="329.1"/>
  <unicode hex="0173"/>
  <outline>
    <contour>
      <point x="308.0" y="-221.0" type="curve" smooth="yes"/>
      <point x="318.9" y="-221.0"/>
      <point x="327.5" y="-218.1"/>
      <point x="335.9" y="-213.2" type="curve"/>
      <point x="330.5" y="-198.8" type="line"/>
      <point x="323.9" y="-202.7"/>
      <point x="318.1" y="-203.8"/>
      <point x="311.0" y="-203.8" type="curve" smooth="yes"/>
      <point x="294.2" y="-203.8"/>
      <point x="279.1" y="-194.1"/>
      <point x="279.1" y="-156.9" type="curve" smooth="yes"/>
      <point x="279.1" y="-106.1"/>
      <point x="297.3" y="-56.5"/>
      <point x="329.2" y="-1.0" type="curve"/>
      <point x="322.3" y="15.9" type="line"/>
      <point x="312.2" y="10.9"/>
      <point x="302.8" y="8.8"/>
      <point x="293.5" y="8.8" type="curve" smooth="yes"/>
      <point x="277.4" y="8.8"/>
      <point x="267.9" y="18.9"/>
      <point x="267.9" y="44.5" type="curve" smooth="yes"/>
      <point x="267.9" y="530.0" type="line"/>
      <point x="247.9" y="530.0" type="line"/>
      <point x="247.9" y="42.4" type="line"/>
      <point x="218.9" y="22.6"/>
      <point x="180.1" y="8.2"/>
      <point x="148.3" y="8.2" type="curve" smooth="yes"/>
      <point x="96.8" y="8.2"/>
      <point x="72.0" y="39.4"/>
      <point x="72.0" y="93.3" type="curve" smooth="yes"/>
      <point x="72.0" y="530.0" type="line"/>
      <point x="52.0" y="530.0" type="line"/>
      <point x="52.0" y="93.3" type="line" smooth="yes"/>
      <point x="52.0" y="19.3"/>
      <point x="90.9" y="-10.0"/>
      <point x="142.0" y="-10.0" type="curve" smooth="yes"/>
      <point x="180.3" y="-10.0"/>
      <point x="217.6" y="3.6"/>
      <point x="250.8" y="23.4" type="curve"/>
      <point x="254.4" y="2.0"/>
      <point x="272.6" y="-10.0"/>
      <point x="293.0" y="-10.0" type="curve" smooth="yes"/>
      <point x="299.2" y="-10.0"/>
      <point x="306.2" y="-8.8"/>
      <point x="314.2" y="-6.8" type="curve"/>
      <point x="315.0" y="6.5" type="line"/>
      <point x="278.6" y="-59.1"/>
      <point x="260.7" y="-113.4"/>
      <point x="260.7" y="-158.0" type="curve" smooth="yes"/>
      <point x="260.7" y="-204.6"/>
      <point x="281.7" y="-221.0"/>
    </contour>
  </outline>
</glyph>
<glyph name="longs" format="2">
  <advance width="181.9"/>
  <unicode hex="017F"/>
  <outline>
    <contour>
      <point x="102.4" y="487.3" type="line"/>
      <point x="102.4" y="693.0"/>
      <point x="143.5" y="731.0"/>
      <point x="206.7" y="731.0" type="curve" smooth="yes"/>
      <point x="225.9" y="731.0"/>
      <point x="244.4" y="728.6"/>
      <point x="266.4" y="721.9" type="curve"/>
      <point x="270.5" y="740.1" type="line"/>
      <point x="245.8" y="747.1"/>
      <point x="225.7" y="750.1"/>
      <point x="206.3" y="750.1" type="curve" smooth="yes"/>
      <point x="103.4" y="750.1"/>
      <point x="82.4" y="644.6"/>
      <point x="82.4" y="487.3" type="curve" smooth="yes"/>
      <point x="82.4" y="484.0" type="line"/>
      <point x="14.4" y="478.1" type="line"/>
      <point x="14.4" y="464.9" type="line"/>
      <point x="82.4" y="464.9" type="line"/>
      <point x="82.4" y="0.0" type="line"/>
      <point x="102.4" y="0.0" type="line"/>
    </contour>
  </outline>
</glyph>
<glyph name="uni018F" format="2">
  <advance width="350.2"/>
  <unicode hex="018F"/>
  <outline>
    <contour>
      <point x="43.9" y="671.2" type="line"/>
      <point x="78.1" y="682.3"/>
      <point x="122.3" y="692.0"/>
      <point x="156.2" y="692.0" type="curve" smooth="yes"/>
      <point x="250.1" y="692.0"/>
      <point x="295.8" y="595.5"/>
      <point x="295.8" y="352.9" type="curve" smooth="yes"/>
      <point x="295.8" y="342.0"/>
      <point x="295.6" y="331.2"/>
      <point x="295.4" y="320.5" type="curve"/>
      <point x="181.5" y="320.4"/>
      <point x="95.1" y="307.7"/>
      <point x="28.0" y="298.7" type="curve"/>
      <point x="28.0" y="291.8"/>
      <point x="27.1" y="285.8"/>
      <point x="27.1" y="271.7" type="curve" smooth="yes"/>
      <point x="27.1" y="84.4"/>
      <point x="73.6" y="-9.9"/>
      <point x="164.0" y="-9.9" type="curve" smooth="yes"/>
      <point x="267.9" y="-9.9"/>
      <point x="315.8" y="101.7"/>
      <point x="315.8" y="370.9" type="curve" smooth="yes"/>
      <point x="315.8" y="605.7"/>
      <point x="263.1" y="710.0"/>
      <point x="162.5" y="710.0" type="curve" smooth="yes"/>
      <point x="115.1" y="710.0"/>
      <point x="69.0" y="700.4"/>
      <point x="37.1" y="687.4" type="curve"/>
    </contour>
    <contour>
      <point x="295.1" y="300.6" type="curve"/>
      <point x="286.0" y="92.6"/>
      <point x="245.8" y="9.9"/>
      <point x="165.8" y="9.9" type="curve" smooth="yes"/>
      <point x="84.5" y="9.9"/>
      <point x="47.0" y="97.3"/>
      <point x="47.0" y="281.0" type="curve"/>
      <point x="114.6" y="294.0"/>
      <point x="200.2" y="299.7"/>
    </contour>
  </outline>
</glyph>
<glyph name="florin" format="2">
  <advance width="328.4"/>
  <unicode hex="0192"/>
  <outline>
    <contour>
      <point x="60.1" y="384.2" type="line"/>
      <point x="57.1" y="366.0" type="line"/>
      <point x="125.1" y="366.0" type="line"/>
      <point x="35.0" y="-210.0" type="line"/>
      <point x="52.900000000000006" y="-210.0" type="line"/>
      <point x="143.0" y="366.0" type="line"/>
      <point x="254.8" y="366.0" type="line"/>
      <point x="257.8" y="384.2" type="line"/>
      <point x="146.0" y="384.2" type="line"/>
      <point x="155.3" y="439.7" type="line" smooth="yes"/>
      <point x="186.0" y="626.6"/>
      <point x="223.9" y="692.0"/>
      <point x="285.0" y="692.0" type="curve" smooth="yes"/>
      <point x="298.9" y="692.0"/>
      <point x="314.2" y="689.2"/>
      <point x="332.1" y="683.9" type="curve"/>
      <point x="339.9" y="701.0" type="line"/>
      <point x="323.8" y="707.2"/>
      <point x="306.0" y="710.0"/>
      <point x="288.8" y="710.0" type="curve" smooth="yes"/>
      <point x="210.2" y="710.0"/>
      <point x="170.1" y="644.5"/>
      <point x="137.4" y="439.9" type="curve" smooth="yes"/>
      <point x="128.1" y="384.2" type="line"/>
    </contour>
  </outline>
</glyph>
<glyph name="uni0237" format="2">
  <advance width="123.3"/>
  <unicode hex="0237"/>
  <anchor x="61.4" y="530.0" name="top"/>
  <outline>
    <contour>
      <point x="71.4" y="14.0" type="curve" smooth="yes"/>
      <point x="71.4" y="530.0" type="line"/>
      <point x="51.4" y="530.0" type="line"/>
      <point x="51.4" y="14.0" type="line"/>
      <point x="51.4" y="-83.7"/>
      <point x="31.6" y="-147.2"/>
      <point x="-4.3" y="-179.2" type="curve" smooth="yes"/>
      <point x="-9.8" y="-184.3"/>
      <point x="-15.3" y="-188.4"/>
      <point x="-21.8" y="-191.5" type="curve"/>
      <point x="-12.7" y="-208.7" type="line"/>
      <point x="-4.3" y="-203.8"/>
      <point x="3.2" y="-197.8"/>
      <point x="10.5" y="-191.8" type="curve" smooth="yes"/>
      <point x="50.4" y="-155.0"/>
      <point x="71.4" y="-90.0"/>
    </contour>
  </outline>
</glyph>
<glyph name="uni0259" format="2">
  <advance width="301.6"/>
  <unicode hex="0259"/>
  <outline>
    <contour>
      <point x="20.9" y="227.4" type="curve"/>
      <point x="19.9" y="219.6"/>
      <point x="19.9" y="214.5"/>
      <point x="19.9" y="205.0" type="curve" smooth="yes"/>
      <point x="19.9" y="50.9"/>
      <point x="64.9" y="-10.0"/>
      <point x="138.0" y="-10.0" type="curve" smooth="yes"/>
      <point x="216.7" y="-10.0"/>
      <point x="268.1" y="49.1"/>
      <point x="268.1" y="280.1" type="curve" smooth="yes"/>
      <point x="268.1" y="472.7"/>
      <point x="219.2" y="540.0"/>
      <point x="137.1" y="540.0" type="curve" smooth="yes"/>
      <point x="101.1" y="540.0"/>
      <point x="62.8" y="534.7"/>
      <point x="30.6" y="521.4" type="curve"/>
      <point x="35.5" y="503.2" type="line"/>
      <point x="66.5" y="514.6"/>
      <point x="103.5" y="520.9"/>
      <point x="136.2" y="520.9" type="curve" smooth="yes"/>
      <point x="206.2" y="520.9"/>
      <point x="248.1" y="465.0"/>
      <point x="248.1" y="266.6" type="curve" smooth="yes"/>
      <point x="248.1" y="259.0"/>
      <point x="248.0" y="250.6"/>
      <point x="247.9" y="243.1" type="curve"/>
      <point x="136.8" y="243.1"/>
      <point x="58.8" y="233.1"/>
    </contour>
    <contour>
      <point x="247.6" y="224.9" type="curve"/>
      <point x="238.1" y="47.5"/>
      <point x="194.3" y="8.2"/>
      <point x="138.0" y="8.2" type="curve" smooth="yes"/>
      <point x="77.1" y="8.2"/>
      <point x="40.0" y="61.8"/>
      <point x="40.0" y="211.2" type="curve"/>
      <point x="64.6" y="216.9"/>
      <point x="158.2" y="224.9"/>
    </contour>
  </outline>
</glyph>
<glyph name="gravecomb" format="2">
  <unicode hex="0300"/>
  <anchor x="-205.0" y="712.0" name="top"/>
  <anchor x="-159.1" y="530.0" name="_top"/>
  <outline>
    <contour>
      <point x="-166.5" y="596.0" type="line"/>
      <point x="-146.5" y="596.0" type="line"/>
      <point x="-239.8" y="790.0" type="line"/>
      <point x="-263.5" y="790.0" type="line"/>
    </contour>
  </outline>
</glyph>
<glyph name="acutecomb" format="2">
  <unicode hex="0301"/>
  <anchor x="-113.0" y="712.0" name="top"/>
  <anchor x="-159.1" y="530.0" name="_top"/>
  <outline>
    <contour>
      <point x="-171.5" y="596.0" type="line"/>
      <point x="-151.6" y="596.0" type="line"/>
      <point x="-54.5" y="790.0" type="line"/>
      <point x="-77.3" y="790.0" type="line"/>
    </contour>
  </outline>
</glyph>
<glyph name="uni0302" format="2">
  <unicode hex="0302"/>
  <anchor x="-159.0" y="743.5" name="top"/>
  <anchor x="-159.0" y="530.0" name="_top"/>
  <anchor x="-64.75" y="670.75" name="top_viet"/>
  <outline>
    <contour>
      <point x="-251.0" y="596.0" type="line"/>
      <point x="-232.25" y="596.0" type="line"/>
      <point x="-159.0" y="762.25" type="line"/>
      <point x="-87.0" y="596.0" type="line"/>
      <point x="-67.0" y="596.0" type="line"/>
      <point x="-148.5" y="790.0" type="line"/>
      <point x="-168.5" y="790.0" type="line"/>
    </contour>
  </outline>
</glyph>
<glyph name="tildecomb" format="2">
  <unicode hex="0303"/>
  <anchor x="-159.1" y="622.1" name="top"/>
  <anchor x="-159.1" y="530.0" name="_top"/>
  <outline>
    <contour>
      <point x="-253.2" y="604.8" type="curve"/>
      <point x="-234.1" y="604.8" type="line"/>
      <point x="-237.8" y="614.8"/>
      <point x="-240.5" y="631.2"/>
      <point x="-240.5" y="647.3" type="curve" smooth="yes"/>
      <point x="-240.5" y="675.0"/>
      <point x="-232.6" y="699.0"/>
      <point x="-215.2" y="699.0" type="curve" smooth="yes"/>
      <point x="-178.3" y="699.0"/>
      <point x="-158.1" y="604.8"/>
      <point x="-103.2" y="604.8" type="curve" smooth="yes"/>
      <point x="-70.8" y="604.8"/>
      <point x="-59.5" y="637.5"/>
      <point x="-59.5" y="679.0" type="curve" smooth="yes"/>
      <point x="-59.5" y="692.4"/>
      <point x="-61.3" y="707.0"/>
      <point x="-64.1" y="721.5" type="curve"/>
      <point x="-81.4" y="721.5" type="line"/>
      <point x="-78.6" y="708.8"/>
      <point x="-76.8" y="694.2"/>
      <point x="-76.8" y="680.8" type="curve" smooth="yes"/>
      <point x="-76.8" y="657.7"/>
      <point x="-79.6" y="622.9"/>
      <point x="-103.2" y="622.9" type="curve" smooth="yes"/>
      <point x="-147.1" y="622.9"/>
      <point x="-163.7" y="715.2"/>
      <point x="-215.2" y="715.2" type="curve" smooth="yes"/>
      <point x="-245.3" y="715.2"/>
      <point x="-257.8" y="685.4"/>
      <point x="-257.8" y="647.3" type="curve" smooth="yes"/>
      <point x="-257.8" y="633.9"/>
      <point x="-256.0" y="618.4"/>
    </contour>
  </outline>
</glyph>
<glyph name="uni0304" format="2">
  <unicode hex="0304"/>
  <anchor x="-159.1" y="705.0" name="top"/>
  <anchor x="-159.1" y="530.0" name="_top"/>
  <outline>
    <contour>
      <point x="-244.3" y="685.0" type="line"/>
      <point x="-73.9" y="685.0" type="line"/>
      <point x="-73.9" y="705.0" type="line"/>
      <point x="-244.3" y="705.0" type="line"/>
    </contour>
  </outline>
</glyph>
<glyph name="uni0306" format="2">
  <unicode hex="0306"/>
  <anchor x="-159.1" y="699.1" name="top"/>
  <anchor x="-159.1" y="530.0" name="_top"/>
  <outline>
    <contour>
      <point x="-159.1" y="605.3" type="curve" smooth="yes"/>
      <point x="-100.0" y="605.3"/>
      <point x="-65.2" y="635.7"/>
      <point x="-62.900000000000006" y="714.3" type="curve" smooth="yes"/>
      <point x="-62.6" y="719.1"/>
      <point x="-62.3" y="723.2"/>
      <point x="-62.2" y="728.2" type="curve"/>
      <point x="-80.4" y="730.2" type="line"/>
      <point x="-80.5" y="725.5"/>
      <point x="-80.7" y="720.0"/>
      <point x="-80.9" y="716.3" type="curve" smooth="yes"/>
      <point x="-82.6" y="647.4"/>
      <point x="-112.6" y="623.5"/>
      <point x="-159.1" y="623.5" type="curve" smooth="yes"/>
      <point x="-205.6" y="623.5"/>
      <point x="-235.5" y="647.4"/>
      <point x="-237.4" y="716.4" type="curve" smooth="yes"/>
      <point x="-237.6" y="720.0"/>
      <point x="-237.7" y="725.5"/>
      <point x="-237.8" y="730.2" type="curve"/>
      <point x="-256.0" y="728.2" type="line"/>
      <point x="-255.9" y="723.2"/>
      <point x="-255.7" y="719.2"/>
      <point x="-255.4" y="714.4" type="curve" smooth="yes"/>
      <point x="-253.1" y="635.7"/>
      <point x="-218.2" y="605.3"/>
    </contour>
  </outline>
</glyph>
<glyph name="uni0307" format="2">
  <unicode hex="0307"/>
  <anchor x="-159.1" y="635.0" name="top"/>
  <anchor x="-159.1" y="530.0" name="_top"/>
  <outline>
    <contour>
      <point x="-159.1" y="676.0" type="curve" smooth="yes"/>
      <point x="-146.9" y="676.0"/>
      <point x="-144.9" y="684.0"/>
      <point x="-144.9" y="694.0" type="curve" smooth="yes"/>
      <point x="-144.9" y="704.0"/>
      <point x="-146.9" y="712.0"/>
      <point x="-159.1" y="712.0" type="curve" smooth="yes"/>
      <point x="-169.4" y="712.0"/>
      <point x="-173.3" y="704.0"/>
      <point x="-173.3" y="694.0" type="curve" smooth="yes"/>
      <point x="-173.3" y="684.0"/>
      <point x="-169.4" y="676.0"/>
    </contour>
  </outline>
</glyph>
<glyph name="uni0308" format="2">
  <unicode hex="0308"/>
  <anchor x="-159.1" y="635.0" name="top"/>
  <anchor x="-159.1" y="530.0" name="_top"/>
  <outline>
    <contour>
      <point x="-96.6" y="676.0" type="curve" smooth="yes"/>
      <point x="-85.4" y="676.0"/>
      <point x="-83.5" y="684.0"/>
      <point x="-83.5" y="694.0" type="curve" smooth="yes"/>
      <point x="-83.5" y="704.0"/>
      <point x="-85.4" y="712.0"/>
      <point x="-96.6" y="712.0" type="curve" smooth="yes"/>
      <point x="-107.8" y="712.0"/>
      <point x="-109.9" y="704.0"/>
      <point x="-109.9" y="694.0" type="curve" smooth="yes"/>
      <point x="-109.9" y="684.0"/>
      <point x="-107.8" y="676.0"/>
    </contour>
    <contour>
      <point x="-221.5" y="676.0" type="curve" smooth="yes"/>
      <point x="-210.3" y="676.0"/>
      <point x="-208.4" y="684.0"/>
      <point x="-208.4" y="694.0" type="curve" smooth="yes"/>
      <point x="-208.4" y="704.0"/>
      <point x="-210.3" y="712.0"/>
      <point x="-221.5" y="712.0" type="curve" smooth="yes"/>
      <point x="-232.7" y="712.0"/>
      <point x="-234.8" y="704.0"/>
      <point x="-234.8" y="694.0" type="curve" smooth="yes"/>
      <point x="-234.8" y="684.0"/>
      <point x="-232.7" y="676.0"/>
    </contour>
  </outline>
</glyph>
<glyph name="hookabovecomb" format="2">
  <unicode hex="0309"/>
  <anchor x="-151.0" y="794.0" name="top"/>
  <anchor x="-159.1" y="530.0" name="_top"/>
  <outline>
    <contour>
      <point x="-153.5" y="605.5" type="line"/>
      <point x="-119.0" y="646.9"/>
      <point x="-100.4" y="691.4"/>
      <point x="-100.4" y="734.4" type="curve" smooth="yes"/>
      <point x="-100.4" y="775.2"/>
      <point x="-122.8" y="794.0"/>
      <point x="-153.7" y="794.0" type="curve" smooth="yes"/>
      <point x="-176.3" y="794.0"/>
      <point x="-195.5" y="786.2"/>
      <point x="-210.8" y="763.9" type="curve"/>
      <point x="-198.8" y="752.6" type="line"/>
      <point x="-186.9" y="770.8"/>
      <point x="-170.8" y="777.0"/>
      <point x="-154.5" y="777.0" type="curve" smooth="yes"/>
      <point x="-132.3" y="777.0"/>
      <point x="-119.5" y="759.7"/>
      <point x="-119.5" y="733.5" type="curve" smooth="yes"/>
      <point x="-119.5" y="695.0"/>
      <point x="-131.0" y="661.7"/>
      <point x="-165.0" y="617.0" type="curve"/>
    </contour>
  </outline>
</glyph>
<glyph name="uni030A" format="2">
  <unicode hex="030A"/>
  <anchor x="-159.1" y="739.6" name="top"/>
  <anchor x="-159.1" y="530.0" name="_top"/>
  <outline>
    <contour>
      <point x="-159.1" y="617.0" type="curve" smooth="yes"/>
      <point x="-119.6" y="617.0"/>
      <point x="-98.1" y="644.8"/>
      <point x="-98.1" y="695.0" type="curve" smooth="yes"/>
      <point x="-98.1" y="745.2"/>
      <point x="-119.6" y="773.0"/>
      <point x="-159.1" y="773.0" type="curve" smooth="yes"/>
      <point x="-198.6" y="773.0"/>
      <point x="-220.1" y="745.2"/>
      <point x="-220.1" y="695.0" type="curve" smooth="yes"/>
      <point x="-220.1" y="644.8"/>
      <point x="-198.6" y="617.0"/>
    </contour>
    <contour>
      <point x="-159.1" y="634.1" type="curve" smooth="yes"/>
      <point x="-186.5" y="634.1"/>
      <point x="-201.1" y="655.1"/>
      <point x="-201.1" y="695.0" type="curve" smooth="yes"/>
      <point x="-201.1" y="735.8"/>
      <point x="-186.5" y="755.9"/>
      <point x="-159.1" y="755.9" type="curve" smooth="yes"/>
      <point x="-131.7" y="755.9"/>
      <point x="-117.1" y="735.8"/>
      <point x="-117.1" y="695.0" type="curve" smooth="yes"/>
      <point x="-117.1" y="655.1"/>
      <point x="-131.7" y="634.1"/>
    </contour>
  </outline>
</glyph>
<glyph name="uni030B" format="2">
  <unicode hex="030B"/>
  <anchor x="-108.9" y="790.0" name="top"/>
  <anchor x="-159.1" y="530.0" name="_top"/>
  <outline>
    <contour>
      <point x="-122.4" y="596.0" type="line"/>
      <point x="-102.5" y="596.0" type="line"/>
      <point x="-6.300000000000001" y="790.0" type="line"/>
      <point x="-29.1" y="790.0" type="line"/>
    </contour>
    <contour>
      <point x="-211.6" y="596.0" type="line"/>
      <point x="-191.7" y="596.0" type="line"/>
      <point x="-95.5" y="790.0" type="line"/>
      <point x="-118.3" y="790.0" type="line"/>
    </contour>
  </outline>
</glyph>
<glyph name="uni030F" format="2">
  <unicode hex="030F"/>
  <anchor x="-198.9" y="790.0" name="top"/>
  <anchor x="-159.1" y="530.0" name="_top"/>
  <outline>
    <contour>
      <point x="-205.4" y="596.0" type="line"/>
      <point x="-185.4" y="596.0" type="line"/>
      <point x="-278.7" y="790.0" type="line"/>
      <point x="-301.5" y="790.0" type="line"/>
    </contour>
    <contour>
      <point x="-116.2" y="596.0" type="line"/>
      <point x="-96.2" y="596.0" type="line"/>
      <point x="-189.5" y="790.0" type="line"/>
      <point x="-212.3" y="790.0" type="line"/>
    </contour>
  </outline>
</glyph>
<glyph name="uni0312" format="2">
  <unicode hex="0312"/>
  <anchor x="-159.1" y="530.0" name="_top"/>
  <outline>
    <contour>
      <point x="-149.0" y="595.0" type="line"/>
      <point x="-157.8" y="611.0"/>
      <point x="-162.8" y="642.0"/>
      <point x="-162.8" y="675.0" type="curve" smooth="yes"/>
      <point x="-162.8" y="710.0"/>
      <point x="-157.7" y="746.0"/>
      <point x="-135.4" y="790.0" type="curve"/>
      <point x="-159.1" y="790.0" type="line"/>
      <point x="-175.4" y="753.0"/>
      <point x="-182.8" y="720.0"/>
      <point x="-182.8" y="675.0" type="curve" smooth="yes"/>
      <point x="-182.8" y="637.0"/>
      <point x="-176.7" y="608.0"/>
      <point x="-170.4" y="595.0" type="curve"/>
    </contour>
  </outline>
</glyph>
<glyph name="uni031B" format="2">
  <unicode hex="031B"/>
  <anchor x="-102.5" y="530.0" name="_topright"/>
  <anchor x="3.0" y="685.8" name="topright"/>
  <outline>
    <contour>
      <point x="-112.5" y="513.0" type="line"/>
      <point x="-106.1" y="513.0" type="line" smooth="yes"/>
      <point x="-39.3" y="513.0"/>
      <point x="-1.8000000000000007" y="592.3"/>
      <point x="-44.2" y="684.9" type="curve"/>
      <point x="-62.0" y="676.6" type="line"/>
      <point x="-22.8" y="592.2"/>
      <point x="-57.0" y="530.0"/>
      <point x="-108.8" y="530.0" type="curve" smooth="yes"/>
      <point x="-112.5" y="530.0" type="line"/>
    </contour>
  </outline>
</glyph>
<glyph name="uni0326" format="2">
  <unicode hex="0326"/>
  <anchor x="-159.1" y="0.0" name="_bottom"/>
  <outline>
    <contour>
      <point x="-193.1" y="-220.0" type="curve"/>
      <point x="-172.0" y="-220.0" type="line"/>
      <point x="-154.2" y="-183.4"/>
      <point x="-146.6" y="-150.2"/>
      <point x="-146.6" y="-106.7" type="curve" smooth="yes"/>
      <point x="-146.6" y="-94.0"/>
      <point x="-148.0" y="-82.5"/>
      <point x="-149.7" y="-73.0" type="curve"/>
      <point x="-168.5" y="-73.0" type="line"/>
      <point x="-166.4" y="-83.2"/>
      <point x="-164.8" y="-94.7"/>
      <point x="-164.8" y="-106.7" type="curve" smooth="yes"/>
      <point x="-164.8" y="-141.3"/>
      <point x="-172.6" y="-177.2"/>
    </contour>
  </outline>
</glyph>
<glyph name="uni0327" format="2">
  <unicode hex="0327"/>
  <anchor x="-159.1" y="0.0" name="_bottom"/>
  <anchor x="-165.5" y="-220.0" name="bottom"/>
  <outline>
    <contour>
      <point x="-208.3" y="-191.8" type="curve"/>
      <point x="-215.4" y="-207.1" type="line"/>
      <point x="-197.2" y="-217.0"/>
      <point x="-179.0" y="-220.0"/>
      <point x="-165.5" y="-220.0" type="curve" smooth="yes"/>
      <point x="-126.1" y="-220.0"/>
      <point x="-109.9" y="-183.7"/>
      <point x="-109.9" y="-143.0" type="curve" smooth="yes"/>
      <point x="-109.9" y="-99.9"/>
      <point x="-131.1" y="-43.9"/>
      <point x="-157.6" y="0.0" type="curve"/>
      <point x="-175.0" y="0.0" type="line"/>
      <point x="-146.6" y="-55.2"/>
      <point x="-128.1" y="-104.3"/>
      <point x="-128.1" y="-143.0" type="curve" smooth="yes"/>
      <point x="-128.1" y="-180.7"/>
      <point x="-142.8" y="-202.7"/>
      <point x="-169.1" y="-202.7" type="curve" smooth="yes"/>
      <point x="-181.5" y="-202.7"/>
      <point x="-194.9" y="-198.8"/>
    </contour>
  </outline>
</glyph>
<glyph name="uni0328" format="2">
  <unicode hex="0328"/>
  <anchor x="-126.0" y="0.0" name="_ogonek"/>
  <outline>
    <contour>
      <point x="-147.2" y="-220.0" type="curve" smooth="yes"/>
      <point x="-136.3" y="-220.0"/>
      <point x="-127.7" y="-217.1"/>
      <point x="-119.3" y="-212.2" type="curve"/>
      <point x="-124.7" y="-197.8" type="line"/>
      <point x="-131.3" y="-201.7"/>
      <point x="-137.1" y="-202.8"/>
      <point x="-144.2" y="-202.8" type="curve" smooth="yes"/>
      <point x="-161.0" y="-202.8"/>
      <point x="-176.1" y="-193.1"/>
      <point x="-176.1" y="-155.9" type="curve" smooth="yes"/>
      <point x="-176.1" y="-105.1"/>
      <point x="-157.9" y="-55.5"/>
      <point x="-126.0" y="0.0" type="curve"/>
      <point x="-140.2" y="7.5" type="line"/>
      <point x="-176.6" y="-58.1"/>
      <point x="-194.5" y="-112.4"/>
      <point x="-194.5" y="-157.0" type="curve" smooth="yes"/>
      <point x="-194.5" y="-203.6"/>
      <point x="-173.5" y="-220.0"/>
    </contour>
  </outline>
</glyph>
<glyph name="uni0335" format="2">
  <unicode hex="0335"/>
  <anchor x="-62.8" y="350.0" name="_center"/>
  <outline>
    <contour>
      <point x="-163.5" y="340.0" type="line"/>
      <point x="37.8" y="340.0" type="line"/>
      <point x="37.8" y="360.0" type="line"/>
      <point x="-163.5" y="360.0" type="line"/>
    </contour>
  </outline>
</glyph>
<glyph name="pi" format="2">
  <advance width="363.1"/>
  <unicode hex="03C0"/>
  <outline>
    <contour>
      <point x="312.7" y="-10.0" type="curve" smooth="yes"/>
      <point x="323.2" y="-10.0"/>
      <point x="334.6" y="-7.9"/>
      <point x="348.7" y="-1.0" type="curve"/>
      <point x="341.9" y="15.8" type="line"/>
      <point x="331.5" y="10.9"/>
      <point x="322.2" y="8.9"/>
      <point x="312.9" y="8.9" type="curve" smooth="yes"/>
      <point x="295.7" y="8.9"/>
      <point x="287.4" y="20.9"/>
      <point x="287.4" y="44.5" type="curve" smooth="yes"/>
      <point x="287.4" y="511.8" type="line"/>
      <point x="341.8" y="511.8" type="line"/>
      <point x="341.8" y="530.0" type="line"/>
      <point x="175.7" y="530.0" type="line" smooth="yes"/>
      <point x="114.3" y="530.0"/>
      <point x="65.9" y="525.9"/>
      <point x="27.6" y="494.8" type="curve"/>
      <point x="35.6" y="477.8" type="line"/>
      <point x="69.0" y="501.5"/>
      <point x="99.3" y="509.0"/>
      <point x="120.5" y="510.9" type="curve"/>
      <point x="107.2" y="376.8"/>
      <point x="84.6" y="105.0"/>
      <point x="58.6" y="0.0" type="curve"/>
      <point x="78.6" y="0.0" type="line"/>
      <point x="106.6" y="115.0"/>
      <point x="129.0" y="381.8"/>
      <point x="140.5" y="511.8" type="curve"/>
      <point x="267.4" y="511.8" type="line"/>
      <point x="267.4" y="42.4" type="line" smooth="yes"/>
      <point x="267.4" y="16.7"/>
      <point x="280.3" y="-10.0"/>
    </contour>
  </outline>
</glyph>
<glyph name="endash" format="2">
  <advance width="320.8"/>
  <unicode hex="2013"/>
  <outline>
    <contour>
      <point x="9.6" y="255.0" type="line"/>
      <point x="311.2" y="255.0" type="line"/>
      <point x="311.2" y="275.0" type="line"/>
      <point x="9.6" y="275.0" type="line"/>
    </contour>
  </outline>
</glyph>
<glyph name="emdash" format="2">
  <advance width="647.2"/>
  <unicode hex="2014"/>
  <outline>
    <contour>
      <point x="0.0" y="255.0" type="line"/>
      <point x="647.2" y="255.0" type="line"/>
      <point x="647.2" y="275.0" type="line"/>
      <point x="0.0" y="275.0" type="line"/>
    </contour>
  </outline>
</glyph>
<glyph name="quoteleft" format="2">
  <advance width="111.9"/>
  <unicode hex="2018"/>
  <outline>
    <contour>
      <point x="28.4" y="430.0" type="curve"/>
      <point x="46.5" y="430.0" type="line"/>
      <point x="46.4" y="442.0"/>
      <point x="46.4" y="454.0"/>
      <point x="46.4" y="466.0" type="curve" smooth="yes"/>
      <point x="46.4" y="566.0"/>
      <point x="63.5" y="632.0"/>
      <point x="99.8" y="700.0" type="curve"/>
      <point x="80.6" y="700.0" type="line"/>
      <point x="43.4" y="632.0"/>
      <point x="27.4" y="566.0"/>
      <point x="27.4" y="466.0" type="curve" smooth="yes"/>
      <point x="27.4" y="454.0"/>
      <point x="27.4" y="442.0"/>
    </contour>
  </outline>
</glyph>
<glyph name="quoteright" format="2">
  <advance width="111.9"/>
  <unicode hex="2019"/>
  <outline>
    <contour>
      <point x="37.6" y="430.0" type="line"/>
      <point x="74.8" y="498.0"/>
      <point x="90.8" y="564.0"/>
      <point x="90.8" y="664.0" type="curve" smooth="yes"/>
      <point x="90.8" y="676.0"/>
      <point x="90.8" y="688.0"/>
      <point x="89.8" y="700.0" type="curve"/>
      <point x="71.7" y="700.0" type="line"/>
      <point x="71.8" y="688.0"/>
      <point x="71.8" y="676.0"/>
      <point x="71.8" y="664.0" type="curve" smooth="yes"/>
      <point x="71.8" y="564.0"/>
      <point x="54.7" y="498.0"/>
      <point x="18.4" y="430.0" type="curve"/>
    </contour>
  </outline>
</glyph>
<glyph name="dagger" format="2">
  <advance width="316.8"/>
  <unicode hex="2020"/>
  <outline>
    <contour>
      <point x="148.4" y="-210.0" type="line"/>
      <point x="168.4" y="-210.0" type="line"/>
      <point x="168.4" y="511.0" type="line"/>
      <point x="287.4" y="511.0" type="line"/>
      <point x="287.4" y="531.0" type="line"/>
      <point x="168.4" y="531.0" type="line"/>
      <point x="168.4" y="740.0" type="line"/>
      <point x="148.4" y="740.0" type="line"/>
      <point x="148.4" y="531.0" type="line"/>
      <point x="29.4" y="531.0" type="line"/>
      <point x="29.4" y="511.0" type="line"/>
      <point x="148.4" y="511.0" type="line"/>
    </contour>
  </outline>
</glyph>
<glyph name="daggerdbl" format="2">
  <advance width="316.8"/>
  <unicode hex="2021"/>
  <outline>
    <contour>
      <point x="287.4" y="0.0" type="line"/>
      <point x="287.4" y="20.0" type="line"/>
      <point x="168.4" y="20.0" type="line"/>
      <point x="168.4" y="510.0" type="line"/>
      <point x="287.4" y="510.0" type="line"/>
      <point x="287.4" y="530.0" type="line"/>
      <point x="168.4" y="530.0" type="line"/>
      <point x="168.4" y="740.0" type="line"/>
      <point x="148.4" y="740.0" type="line"/>
      <point x="148.4" y="530.0" type="line"/>
      <point x="29.4" y="530.0" type="line"/>
      <point x="29.4" y="510.0" type="line"/>
      <point x="148.4" y="510.0" type="line"/>
      <point x="148.4" y="20.0" type="line"/>
      <point x="29.4" y="20.0" type="line"/>
      <point x="29.4" y="0.0" type="line"/>
      <point x="148.4" y="0.0" type="line"/>
      <point x="148.4" y="-210.0" type="line"/>
      <point x="168.4" y="-210.0" type="line"/>
      <point x="168.4" y="0.0" type="line"/>
    </contour>
  </outline>
</glyph>
<glyph name="bullet" format="2">
  <advance width="217.6"/>
  <unicode hex="2022"/>
  <outline>
    <contour>
      <point x="108.8" y="237.8" type="curve" smooth="yes"/>
      <point x="152.1" y="237.8"/>
      <point x="187.0" y="272.7"/>
      <point x="187.0" y="316.0" type="curve" smooth="yes"/>
      <point x="187.0" y="359.3"/>
      <point x="152.1" y="394.2"/>
      <point x="108.8" y="394.2" type="curve" smooth="yes"/>
      <point x="65.5" y="394.2"/>
      <point x="30.6" y="359.3"/>
      <point x="30.6" y="316.0" type="curve" smooth="yes"/>
      <point x="30.6" y="272.7"/>
      <point x="65.5" y="237.8"/>
    </contour>
  </outline>
</glyph>
<glyph name="minute" format="2">
  <advance width="153.6"/>
  <unicode hex="2032"/>
  <outline>
    <contour>
      <point x="42.4" y="429.0" type="line"/>
      <point x="53.4" y="429.0" type="line"/>
      <point x="111.3" y="700.0" type="line"/>
      <point x="89.3" y="700.0" type="line"/>
    </contour>
  </outline>
</glyph>
<glyph name="guilsinglleft" format="2">
  <advance width="148.9"/>
  <unicode hex="2039"/>
  <outline>
    <contour>
      <point x="21.6" y="266.5" type="line"/>
      <point x="112.6" y="56.6" type="line"/>
      <point x="129.1" y="64.5" type="line"/>
      <point x="42.4" y="270.2" type="line"/>
      <point x="129.1" y="475.9" type="line"/>
      <point x="112.6" y="483.8" type="line"/>
      <point x="21.6" y="273.9" type="line"/>
    </contour>
  </outline>
</glyph>
<glyph name="guilsinglright" format="2">
  <advance width="148.9"/>
  <unicode hex="203A"/>
  <outline>
    <contour>
      <point x="127.3" y="273.9" type="line"/>
      <point x="36.3" y="483.8" type="line"/>
      <point x="19.8" y="475.9" type="line"/>
      <point x="106.5" y="270.2" type="line"/>
      <point x="19.8" y="64.5" type="line"/>
      <point x="36.3" y="56.6" type="line"/>
      <point x="127.3" y="266.5" type="line"/>
    </contour>
  </outline>
</glyph>
<glyph name="fraction" format="2">
  <advance width="86.2"/>
  <unicode hex="2044"/>
  <outline>
    <contour>
      <point x="-96.9" y="-12.7" type="line"/>
      <point x="199.2" y="735.2" type="line"/>
      <point x="183.1" y="741.6" type="line"/>
      <point x="-113.0" y="-6.3" type="line"/>
    </contour>
  </outline>
</glyph>
<glyph name="uni2052" format="2">
  <advance width="328.4"/>
  <unicode hex="2052"/>
  <outline>
    <contour>
      <point x="20.4" y="3.0" type="line"/>
      <point x="37.0" y="-2.9" type="line"/>
      <point x="308.1" y="697.0" type="line"/>
      <point x="291.5" y="702.9" type="line"/>
    </contour>
    <component base="period" xOffset="2.0" yOffset="666.0"/>
    <component base="period" xOffset="224.2"/>
  </outline>
</glyph>
<glyph name="uni2070" format="2">
  <advance width="259.5"/>
  <unicode hex="2070"/>
  <outline>
    <contour>
      <point x="41.8" y="568.6" type="curve" smooth="yes"/>
      <point x="41.8" y="406.8"/>
      <point x="72.8" y="360.9"/>
      <point x="128.9" y="360.9" type="curve" smooth="yes"/>
      <point x="186.6" y="360.9"/>
      <point x="217.7" y="406.8"/>
      <point x="217.7" y="568.6" type="curve" smooth="yes"/>
      <point x="217.7" y="729.6"/>
      <point x="187.5" y="773.7"/>
      <point x="128.9" y="773.7" type="curve" smooth="yes"/>
      <point x="72.8" y="773.7"/>
      <point x="41.8" y="729.6"/>
    </contour>
    <contour>
      <point x="60.0" y="568.6" type="curve" smooth="yes"/>
      <point x="60.0" y="716.5"/>
      <point x="85.5" y="755.8"/>
      <point x="128.9" y="755.8" type="curve" smooth="yes"/>
      <point x="173.9" y="755.8"/>
      <point x="199.5" y="716.5"/>
      <point x="199.5" y="568.6" type="curve" smooth="yes"/>
      <point x="199.5" y="420.7"/>
      <point x="173.9" y="378.7"/>
      <point x="128.9" y="378.7" type="curve" smooth="yes"/>
      <point x="85.5" y="378.7"/>
      <point x="60.0" y="420.7"/>
    </contour>
  </outline>
</glyph>
<glyph name="uni2074" format="2">
  <advance width="247.0"/>
  <unicode hex="2074"/>
  <outline>
    <contour>
      <point x="40.0" y="477.0" type="line"/>
      <point x="152.75" y="477.0" type="line"/>
      <point x="152.75" y="370.0" type="line"/>
      <point x="170.75" y="370.0" type="line"/>
      <point x="170.75" y="477.0" type="line"/>
      <point x="213.25" y="477.0" type="line"/>
      <point x="213.25" y="493.0" type="line"/>
      <point x="170.75" y="493.0" type="line"/>
      <point x="170.75" y="770.5" type="line"/>
      <point x="152.5" y="772.75" type="line"/>
      <point x="33.5" y="492.0" type="line"/>
    </contour>
    <contour>
      <point x="50.75" y="493.0" type="line"/>
      <point x="152.75" y="730.25" type="line"/>
      <point x="152.75" y="493.0" type="line"/>
    </contour>
  </outline>
</glyph>
<glyph name="uni2075" format="2">
  <advance width="259.8"/>
  <unicode hex="2075"/>
  <outline>
    <contour>
      <point x="45.7" y="388.6" type="line"/>
      <point x="64.1" y="369.1"/>
      <point x="88.9" y="359.1"/>
      <point x="118.1" y="359.1" type="curve" smooth="yes"/>
      <point x="173.8" y="359.1"/>
      <point x="212.4" y="399.7"/>
      <point x="212.4" y="475.8" type="curve" smooth="yes"/>
      <point x="212.4" y="539.9"/>
      <point x="186.6" y="583.7"/>
      <point x="129.3" y="583.7" type="curve" smooth="yes"/>
      <point x="78.7" y="583.7" type="line"/>
      <point x="87.9" y="746.6" type="line"/>
      <point x="193.8" y="746.6" type="line"/>
      <point x="193.8" y="763.6" type="line"/>
      <point x="72.1" y="763.6" type="line"/>
      <point x="59.6" y="573.7" type="line"/>
      <point x="65.6" y="567.6" type="line"/>
      <point x="125.2" y="567.6" type="line" smooth="yes"/>
      <point x="172.3" y="567.6"/>
      <point x="193.3" y="530.1"/>
      <point x="193.3" y="475.9" type="curve" smooth="yes"/>
      <point x="193.3" y="411.7"/>
      <point x="164.2" y="376.0"/>
      <point x="117.2" y="376.0" type="curve" smooth="yes"/>
      <point x="89.2" y="376.0"/>
      <point x="69.9" y="387.0"/>
      <point x="55.4" y="400.1" type="curve"/>
    </contour>
  </outline>
</glyph>
